<?xml version="1.0" encoding="utf-8"?>
<!-- Generator: Adobe Illustrator 16.0.0, SVG Export Plug-In . SVG Version: 6.00 Build 0)  -->
<!DOCTYPE svg PUBLIC "-//W3C//DTD SVG 1.1//EN" "http://www.w3.org/Graphics/SVG/1.1/DTD/svg11.dtd">
<svg version="1.1" id="Layer_1" xmlns="http://www.w3.org/2000/svg" xmlns:xlink="http://www.w3.org/1999/xlink" x="0px" y="0px"
	 width="1080px" height="1080px" viewBox="0 0 1080 1080" enable-background="new 0 0 1080 1080" xml:space="preserve">
<g>
	<g>
		<path fill="none" stroke="#000000" stroke-linecap="round" stroke-linejoin="round" d="M13.114,58.717
			c0.116,0.2,29.842-17.422,29.926-17.277C53.814,60.101-2.566,48.16,8.208,66.822c0.437,0.757,28.478-22.851,31.253-18.044
			c3.562,6.17-22.659,3.626-17.34,12.837c0.478,0.829,10.568-15.198,14.507-8.376c8.993,15.577-36.739,7.32-27.745,22.896
			c7.627,13.211,36.378-25.287,38.233-22.074c7.186,12.446-33.529,11.91-26.93,23.339c11.358,19.674,19.087-37.631,30.61-17.673
			c8.326,14.42-58.185,8.302-44.48,32.039C21.017,117.23,48.152,33.66,62.854,59.124c10.348,17.923-42.599,8.021-32.251,25.945
			c6.077,10.524,44.04-60.232,59.111-34.128c14.671,25.412-53.587,25.83-49.676,32.605c2.575,4.458,53.908-51.46,62.714-36.208
			c13.244,22.94-79.017,42.211-72.97,52.685c23.664,40.987,47.345-86.466,72.95-42.118c17.656,30.582-64.143,29.929-59.072,38.712
			c12.445,21.556,72.37-82.243,89.89-51.898c33.254,57.599-143.534,16.779-110.28,74.378c29.271,50.7,64.999-114.342,98.261-56.731
			c35.452,61.404-132.363,54.135-119.936,75.66C38.064,201.192,115.2-11.787,151.669,51.38
			c37.354,64.699-163.627,15.177-126.273,79.876c39.956,69.206,148.79-104.619,156.894-90.583
			c1.458,2.524-175.637,82.155-163.782,102.688c43.158,74.752,91.785-152.66,134.943-77.909
			c32.823,56.852-145.02,11.34-112.196,68.193c9.393,16.27,118.096-107.397,135.076-77.987
			c39.183,67.867-172.337,14.805-133.154,82.672C73.48,190.82,154.596-25.666,197.754,49.086
			c30.516,52.854-147.868,84.289-145.621,88.181c14.57,25.235,152.965-96.576,156.542-90.38
			c6.154,10.66-171.44,85.715-165.157,96.597C74.202,196.629,168.36-8.609,203.009,51.403
			c41.436,71.771-184.4,12.096-142.964,83.866c28.476,49.322,102.289-158.726,145.447-83.974
			c42.142,72.992-148.948,78.976-143.212,88.911c25.534,44.225,134.862-154.399,168.003-96.997
			c26.721,46.282-175.52,13.804-135.782,82.631c43.158,74.751,84.533-148.474,127.691-73.723
			c44.66,77.353-180.775,43.962-151.611,94.476C108.87,212.911,236.021,13.42,252.327,41.663
			c15.212,26.349-188.254,20.114-144.91,95.189c43.158,74.751,99.494-146.389,138.009-79.679
			c23.23,40.235-159.838,34.01-132.857,80.741c19.962,34.576,83.551-147.907,126.709-73.155
			c35.154,60.89-151.479,18.855-121.134,71.414c43.158,74.751,91.307-152.385,134.465-77.634
			c11.958,20.713-155.294,10.689-120.334,71.242c43.158,74.752,67.285-138.515,110.442-63.764
			c38.727,67.075-169.31,16.249-130.583,83.324c43.158,74.751,111.041-163.684,154.158-89.003
			c7.315,12.67-120.093,42.538-103.792,70.773c28.276,48.975,137.093-111.869,151.26-87.331
			C366.34,134.854,80.319,60.066,132.9,151.139C152.401,184.916,235.576-7.81,278.734,66.942
			c31.317,54.243-148.676,45.718-129.864,78.302c23.005,39.845,98.797-156.709,141.955-81.958
			c33.071,57.28-125.708,46.116-109.375,74.404c37.329,64.657,110.331-163.369,153.489-88.617
			c39.739,68.831-174.808,14.978-135.069,83.808c43.158,74.751,152.833-104.152,159.724-92.216
			c33.808,58.558-207.292,20.962-159.731,103.341C243.02,218.758,307.469-17.79,350.627,56.962
			c10.476,18.144-164.588,11.894-127.462,76.196c4.23,7.328,101.994-158.555,145.151-83.803
			c45.84,79.397-198.458,22.733-155.305,97.475c3.322,5.754,132.586-176.218,175.744-101.466
			c37.597,65.121-164.677,15.3-127.08,80.421c38.022,65.856,101.141-158.063,144.299-83.311
			C412.109,53.1,220.894,60.769,263.3,134.219c25.215,43.674,85.667-149.127,128.824-74.376
			c33.855,58.639-142.638,23.588-114.624,72.11c36.565,63.333,105.408-80.13,113.753-65.676
			c26.87,46.541-154.938,18.533-118.98,80.813c43.158,74.752,149.694-96.257,153.951-88.884
			c35.306,61.15-156.079,12.043-120.773,73.193c43.158,74.752,128.912-122.158,149.58-86.36
			c38.73,67.082-149.013,51.349-130.111,84.088c43.158,74.751,76.06-143.582,119.218-68.831
			c32.304,55.951-124.524,42.702-110.708,66.631c41.678,72.189,103.961-159.691,147.119-84.939
			c48.186,83.46-167.059,95.892-163.424,102.189c43.158,74.751,121.669-169.915,164.827-95.163
			c45.107,78.127-199.656,14.979-154.549,93.107c43.158,74.752,153.894-131.453,172.341-99.501
			c45.536,78.871-198.134,20.581-152.598,99.451c34.706,60.113,95.155-154.606,138.313-79.855
			c13.97,24.196-141.787,10.051-109.83,65.402c43.158,74.751,63.97-136.602,107.127-61.851
			c34.61,59.946-152.066,13.333-117.456,73.279c20.486,35.484,153.438-121.682,167.769-96.861
			c50.284,87.095-219.545,21.562-169.262,108.656c10.764,18.643,130.835-130.149,154.482-89.19
			c12.561,21.756-129.298,15.741-99.25,67.785c1.875,3.249,86.189-149.43,129.346-74.679
			c8.493,14.711-153.187,16.326-117.922,77.406c43.158,74.751,115.633-166.43,158.791-91.678
			c23.32,40.393-201.054,64.986-175.995,108.389c43.158,74.751,142.637-129.425,163.021-94.12
			c34.832,60.332-165.15,17.827-127.1,83.732c43.158,74.751,101.301-158.155,144.458-83.403
			c42.664,73.896-179.259,30.307-142.894,93.294c43.158,74.752,133.062-176.492,176.22-101.741
			c28.375,49.145-187.711,66.901-165.66,105.095c43.158,74.751,130.59-175.065,173.748-100.314
			c3.095,5.36-218.35,15.919-169.08,101.258c43.158,74.752,141.599-118.849,157.662-91.026
			c39.243,67.973-152.01,50.547-133.767,82.145c21.105,36.556,132.549-168.546,172.394-99.532
			c41.127,71.233-179.824,17.225-138.698,88.458c9.823,17.014,110.002-163.179,153.16-88.427
			c50.555,87.562-184.426,84.95-173.568,103.757c4.65,8.053,124.957-171.812,168.115-97.061
			c42.728,74.007-185.455,20.012-142.728,94.019c25.637,44.403,113.436-143.524,147.224-85
			c15.639,27.086-143.726,37.038-121.118,76.196c43.157,74.751,111.967-164.313,155.125-89.562
			c45.313,78.486-185.956,39.96-152.171,98.477c3.014,5.22,125.393-130.323,150.476-86.877c36.952,64-149.27,36.397-122.772,82.293
			c33.224,57.543,108.61-133.566,139.293-80.421c9.5,16.453-110.173,68.523-107.411,73.307
			c43.157,74.752,84.821-148.64,127.979-73.889c13.453,23.302-152.477,89.375-151.8,90.547
			c43.157,74.752,104.267-159.866,147.424-85.115c25.34,43.889-124.864,63.097-117.207,76.359
			C666.741,216.074,753.952-33.615,797.11,41.137c46.458,80.469-176.643,65.329-156.514,100.191
			c43.157,74.752,128.992-174.142,172.149-99.391c19.814,34.32-198.713,70.973-176.236,109.903
			c43.158,74.751,111.824-164.23,154.982-89.479c12.813,22.193-185.165,15.555-143.112,88.392
			c10.511,18.205,146.499-86.352,147.266-85.024c20.75,35.94-125.222,16.116-95.993,66.741
			c29.674,51.398,114.281-74.217,117.849-68.04c21.308,36.907-155.483,44-133.278,82.459
			c43.158,74.752,99.778-157.275,142.936-82.524c13.433,23.265-185.203,16.033-143.079,88.995
			c32.691,56.622,128.612-173.922,171.769-99.17c45.484,78.78-167.946,72.965-156.922,92.06
			c13.719,23.762,113.785-165.362,156.943-90.611c1.232,2.136-155.279,50.083-133.813,87.264
			c43.157,74.752,150.317-99.756,155.934-90.028c47.567,82.388-210.859,15.268-163.293,97.655
			c43.158,74.751,137.31-178.944,180.468-104.193c40.364,69.914-176.69,16.597-136.325,86.511
			C801.997,207.601,906.5,26.335,915.706,42.281c40.905,70.849-179.774,15.809-140.294,84.189
			c7.528,13.041,98.388-156.473,141.545-81.722c38.386,66.486-168.612,14.854-130.227,81.339
			c43.157,74.751,86.049-149.349,129.207-74.598c22.23,38.505-162.606,11.355-125.979,74.796
			c43.157,74.751,83.416-97.175,104.639-60.414c37.988,65.795-165.77,16.421-127.782,82.216
			c8.163,14.14,138.212-149.666,168.466-97.264c41.893,72.562-203.808,17.789-157.432,98.114
			c20.697,35.848,109.789-163.056,152.946-88.304c31.565,54.674-139.34,11.109-107.774,65.783
			c43.158,74.752,86.276-92.104,104.59-60.385c34.904,60.455-145.661,26.389-116.3,77.244
			c6.337,10.978,118.312-160.643,158.294-91.391c23.826,41.267-198.026,15.247-153.236,92.825
			C852.236,206.836,968.938,44.679,974.11,53.64c45.305,78.469-196.913,20.798-151.608,99.267
			c30.512,52.849,121.283-169.691,164.44-94.94c31.057,53.792-134.914,14.37-103.857,68.162
			c33.508,58.036,79.341-118.797,110.946-64.055c3.697,6.404-161.17,34.611-134.055,81.576
			c43.158,74.752,107.944-145.975,144.167-83.234c41.263,71.469-178.198,21.445-142.347,83.542
			c43.158,74.751,141.231-88.329,144.171-83.237c8.042,13.93-135.952,12.485-104.934,66.212
			c19.339,33.495,93.805-126.351,125.065-72.206c8.185,14.176-174.497,36.815-144.613,88.575
			c43.157,74.752,141.997-111.219,154.657-89.292c28.415,49.217-119.513,53.057-107.739,73.449
			c42.227,73.139,113.212-143.729,147.146-84.955c12.264,21.242-207.632,17.774-160.433,99.525
			c38.777,67.164,87.469-140.053,126.246-72.889c26.679,46.209-118.235,12.105-91.086,59.128
			c28.253,48.936,54.114-113.245,89.622-51.743c23.987,41.548-96.232,24.51-78.651,54.961c30.732,53.23,73.358-50.294,76.797-44.338
			c10.354,17.934-107.965,8.919-83.465,51.354c29.15,50.489,104.114-97.53,120.318-69.465
			c32.324,55.989-134.914,24.346-107.399,72.002c24.153,41.834,48.028-83.508,72.182-41.674
			c15.907,27.553-55.642,29.363-49.535,39.939c2.124,3.679,54.504-66.509,69.678-40.229c15.456,26.772-63.057,13.702-49.855,36.566
			c14.592,25.275,8.82-38.794,23.413-13.518c6.152,10.658-23.561,6.742-17.407,17.399c8.536,14.783,26.905-40.75,37.823-21.837
			c6.036,10.454-24.487,5.116-18.452,15.57c8.462,14.655,22.968-24.092,27.658-15.968c5.486,9.501-59.175,12.401-47.64,32.379
			c6.024,10.435,21.658-26.417,27.683-15.982c3.108,5.383-8.914,7.466-7.499,9.918c1.538,2.663,12.944-9.618,13.873-8.009
			c1.537,2.664,3.759,0.463,5.297,3.127c0.031,0.054,22.94-13.564,23.079-13.325"/>
	</g>
	<g>
		<path fill="none" stroke="#000000" stroke-linecap="round" stroke-linejoin="round" d="M13.114,939.386
			c0.116,0.201,29.842-17.422,29.926-17.277c10.774,18.662-45.606,6.721-34.832,25.384c0.437,0.757,28.478-22.852,31.253-18.045
			c3.562,6.17-22.659,3.626-17.34,12.838c0.478,0.829,10.568-15.199,14.507-8.377c8.993,15.577-36.739,7.32-27.745,22.896
			c7.627,13.212,36.378-25.287,38.233-22.074c7.186,12.447-33.529,11.91-26.93,23.339c11.358,19.675,19.087-37.629,30.61-17.672
			c8.326,14.421-58.185,8.302-44.48,32.038c14.702,25.465,41.837-58.105,56.538-32.642c10.348,17.923-42.599,8.021-32.251,25.945
			c6.077,10.523,44.04-60.233,59.111-34.129c14.671,25.412-53.587,25.83-49.676,32.605c2.575,4.458,53.908-51.462,62.714-36.208
			c13.244,22.94-79.017,42.211-72.97,52.684c23.664,40.987,47.345-86.465,72.95-42.117c17.656,30.582-64.143,29.93-59.072,38.712
			c12.445,21.556,72.37-82.242,89.89-51.897c33.254,57.598-143.534,16.779-110.28,74.378
			c29.271,50.699,64.999-114.342,98.261-56.731c35.452,61.404-132.363,54.135-119.936,75.66
			c36.47,63.166,113.605-149.813,150.075-86.646c37.354,64.699-163.627,15.177-126.273,79.876
			c39.956,69.205,148.79-104.619,156.894-90.582c1.458,2.523-175.637,82.155-163.782,102.688
			c43.158,74.753,91.785-152.659,134.943-77.908c32.823,56.852-145.02,11.341-112.196,68.193
			c9.393,16.27,118.096-107.397,135.076-77.987c39.183,67.867-172.337,14.806-133.154,82.672
			c30.304,52.487,111.42-163.997,154.578-89.246c30.516,52.854-147.868,84.29-145.621,88.182
			c14.57,25.235,152.965-96.576,156.542-90.38c6.154,10.659-171.44,85.714-165.157,96.597
			c30.684,53.146,124.842-152.092,159.49-92.081c41.436,71.771-184.4,12.096-142.964,83.867
			c28.476,49.321,102.289-158.727,145.447-83.975c42.142,72.991-148.948,78.976-143.212,88.91
			c25.534,44.227,134.862-154.399,168.003-96.996c26.721,46.282-175.52,13.804-135.782,82.632
			c43.158,74.751,84.533-148.475,127.691-73.723c44.66,77.352-180.775,43.961-151.611,94.476
			c38.289,66.316,165.44-133.174,181.746-104.931c15.212,26.348-188.254,20.114-144.91,95.188
			c43.158,74.752,99.494-146.389,138.009-79.679c23.23,40.235-159.838,34.01-132.857,80.741
			c19.962,34.575,83.551-147.906,126.709-73.155c35.154,60.89-151.479,18.855-121.134,71.414
			c43.158,74.752,91.307-152.385,134.465-77.634c11.958,20.713-155.294,10.689-120.334,71.243
			c43.158,74.751,67.285-138.516,110.442-63.764c38.727,67.074-169.31,16.248-130.583,83.323
			c43.158,74.751,111.041-163.683,154.158-89.003c7.315,12.67-120.093,42.538-103.792,70.773
			c28.276,48.975,137.093-111.869,151.26-87.331c52.581,91.073-233.44,16.286-180.859,107.358
			c19.501,33.777,102.676-158.949,145.833-84.198c31.317,54.244-148.676,45.719-129.864,78.304
			c23.005,39.845,98.797-156.71,141.955-81.958c33.071,57.28-125.708,46.115-109.375,74.403
			c37.329,64.657,110.331-163.367,153.489-88.616c39.739,68.83-174.808,14.979-135.069,83.809
			c43.158,74.751,152.833-104.153,159.724-92.217c33.808,58.558-207.292,20.962-159.731,103.341
			c43.157,74.752,107.606-161.796,150.765-87.044c10.476,18.145-164.588,11.894-127.462,76.196
			c4.23,7.327,101.994-158.556,145.151-83.803c45.84,79.396-198.458,22.732-155.305,97.475
			c3.322,5.754,132.586-176.218,175.744-101.466c37.597,65.12-164.677,15.301-127.08,80.421
			c38.022,65.856,101.141-158.063,144.299-83.312c6.134,10.626-185.081,18.295-142.675,91.744
			c25.215,43.675,85.667-149.127,128.824-74.376c33.855,58.639-142.638,23.588-114.624,72.111
			c36.565,63.332,105.408-80.131,113.753-65.677c26.87,46.54-154.938,18.533-118.98,80.812
			c43.158,74.753,149.694-96.255,153.951-88.882c35.306,61.149-156.079,12.042-120.773,73.192
			c43.158,74.752,128.912-122.158,149.58-86.359c38.73,67.081-149.013,51.349-130.111,84.088
			c43.158,74.752,76.06-143.582,119.218-68.83c32.304,55.95-124.524,42.701-110.708,66.631
			c41.678,72.189,103.961-159.69,147.119-84.939c48.186,83.461-167.059,95.893-163.424,102.189
			c43.158,74.751,121.669-169.914,164.827-95.162c45.107,78.127-199.656,14.978-154.549,93.105
			c43.158,74.752,153.894-131.453,172.341-99.501c45.536,78.872-198.134,20.581-152.598,99.451
			c34.706,60.113,95.155-154.606,138.313-79.854c13.97,24.195-141.787,10.051-109.83,65.402
			c43.158,74.751,63.97-136.603,107.127-61.852c34.61,59.947-152.066,13.334-117.456,73.279
			c20.486,35.484,153.438-121.683,167.769-96.861c50.284,87.096-219.545,21.562-169.262,108.656
			c10.764,18.643,130.835-130.149,154.482-89.19c12.561,21.757-129.298,15.741-99.25,67.785
			c1.875,3.249,86.189-149.431,129.346-74.679c8.493,14.711-153.187,16.326-117.922,77.405
			c43.158,74.752,115.633-166.43,158.791-91.677c23.32,40.391-201.054,64.985-175.995,108.388
			c43.158,74.751,142.637-129.426,163.021-94.12c34.832,60.332-165.15,17.827-127.1,83.732
			c43.158,74.751,101.301-158.154,144.458-83.403c42.664,73.896-179.259,30.308-142.894,93.295
			c43.158,74.751,133.062-176.494,176.22-101.742c28.375,49.146-187.711,66.9-165.66,105.095
			c43.158,74.752,130.59-175.064,173.748-100.313c3.095,5.36-218.35,15.919-169.08,101.257
			c43.158,74.752,141.599-118.849,157.662-91.026c39.243,67.974-152.01,50.548-133.767,82.146
			c21.105,36.556,132.549-168.546,172.394-99.531c41.127,71.232-179.824,17.225-138.698,88.457
			c9.823,17.015,110.002-163.179,153.16-88.426c50.555,87.563-184.426,84.949-173.568,103.757
			c4.65,8.053,124.957-171.813,168.115-97.062c42.728,74.008-185.455,20.013-142.728,94.019
			c25.637,44.403,113.436-143.523,147.224-85c15.639,27.087-143.726,37.039-121.118,76.196
			c43.157,74.752,111.967-164.313,155.125-89.562c45.313,78.486-185.956,39.96-152.171,98.477
			c3.014,5.22,125.393-130.322,150.476-86.877c36.952,64-149.27,36.396-122.772,82.293c33.224,57.543,108.61-133.565,139.293-80.421
			c9.5,16.453-110.173,68.523-107.411,73.308c43.157,74.752,84.821-148.64,127.979-73.889
			c13.453,23.302-152.477,89.374-151.8,90.547c43.157,74.751,104.267-159.866,147.424-85.115
			c25.34,43.889-124.864,63.097-117.207,76.358c43.157,74.751,130.368-174.938,173.526-100.186
			c46.458,80.47-176.643,65.328-156.514,100.191c43.157,74.752,128.992-174.144,172.149-99.392
			c19.814,34.32-198.713,70.973-176.236,109.903c43.158,74.752,111.824-164.23,154.982-89.479
			c12.813,22.192-185.165,15.555-143.112,88.393c10.511,18.204,146.499-86.352,147.266-85.025
			c20.75,35.941-125.222,16.115-95.993,66.741c29.674,51.397,114.281-74.217,117.849-68.04
			c21.308,36.907-155.483,44.001-133.278,82.46c43.158,74.751,99.778-157.274,142.936-82.523
			c13.433,23.264-185.203,16.033-143.079,88.995c32.691,56.621,128.612-173.922,171.769-99.171
			c45.484,78.779-167.946,72.966-156.922,92.06c13.719,23.762,113.785-165.362,156.943-90.611
			c1.232,2.137-155.279,50.084-133.813,87.265c43.157,74.753,150.317-99.756,155.934-90.028
			c47.567,82.389-210.859,15.268-163.293,97.655c43.158,74.751,137.31-178.944,180.468-104.192
			c40.364,69.913-176.69,16.597-136.325,86.511c43.158,74.751,147.661-106.515,156.867-90.567
			c40.905,70.849-179.774,15.809-140.294,84.189c7.528,13.041,98.388-156.474,141.545-81.722
			c38.386,66.486-168.612,14.854-130.227,81.339c43.157,74.752,86.049-149.349,129.207-74.598
			c22.23,38.506-162.606,11.354-125.979,74.797c43.157,74.751,83.416-97.177,104.639-60.414
			c37.988,65.795-165.77,16.42-127.782,82.215c8.163,14.141,138.212-149.666,168.466-97.264
			c41.893,72.562-203.808,17.79-157.432,98.114c20.697,35.849,109.789-163.056,152.946-88.304
			c31.565,54.674-139.34,11.109-107.774,65.783c43.158,74.752,86.276-92.104,104.59-60.384
			c34.904,60.455-145.661,26.387-116.3,77.243c6.337,10.979,118.312-160.643,158.294-91.392
			c23.826,41.268-198.026,15.248-153.236,92.826c35.867,62.124,152.568-100.032,157.741-91.072
			c45.305,78.469-196.913,20.798-151.608,99.267c30.512,52.849,121.283-169.691,164.44-94.94
			c31.057,53.792-134.914,14.37-103.857,68.161c33.508,58.037,79.341-118.796,110.946-64.054
			c3.697,6.404-161.17,34.61-134.055,81.576c43.158,74.752,107.944-145.976,144.167-83.234
			c41.263,71.469-178.198,21.444-142.347,83.54c43.158,74.752,141.231-88.328,144.171-83.236
			c8.042,13.931-135.952,12.486-104.934,66.213c19.339,33.494,93.805-126.352,125.065-72.206
			c8.185,14.176-174.497,36.815-144.613,88.574c43.157,74.751,141.997-111.219,154.657-89.291
			c28.415,49.216-119.513,53.057-107.739,73.448c42.227,73.139,113.212-143.729,147.146-84.955
			c12.264,21.242-207.632,17.774-160.433,99.525c38.777,67.164,87.469-140.053,126.246-72.889
			c26.679,46.209-118.235,12.105-91.086,59.129c28.253,48.936,54.114-113.245,89.622-51.744
			c23.987,41.549-96.232,24.511-78.651,54.963c30.732,53.229,73.358-50.295,76.797-44.34c10.354,17.934-107.965,8.92-83.465,51.354
			c29.15,50.489,104.114-97.529,120.318-69.466c32.324,55.989-134.914,24.347-107.399,72.003
			c24.153,41.834,48.028-83.509,72.182-41.675c15.907,27.553-55.642,29.363-49.535,39.939c2.124,3.681,54.504-66.509,69.678-40.228
			c15.456,26.771-63.057,13.702-49.855,36.565c14.592,25.275,8.82-38.794,23.413-13.518c6.152,10.658-23.561,6.742-17.407,17.399
			c8.536,14.783,26.905-40.749,37.823-21.838c6.036,10.455-24.487,5.117-18.452,15.57c8.462,14.654,22.968-24.092,27.658-15.968
			c5.486,9.502-59.175,12.4-47.64,32.379c6.024,10.435,21.658-26.419,27.683-15.983c3.108,5.385-8.914,7.466-7.499,9.919
			c1.538,2.662,12.944-9.618,13.873-8.01c1.537,2.664,3.759,0.463,5.297,3.127c0.031,0.055,22.94-13.563,23.079-13.324"/>
	</g>
	<g>
		<path fill="none" stroke="#000000" stroke-linecap="round" stroke-linejoin="round" d="M926.136,26.365
			c0.115,0.2,29.842-17.423,29.926-17.278c10.774,18.663-45.606,6.721-34.831,25.383c0.438,0.757,28.48-22.855,31.258-18.047
			c3.563,6.171-22.666,3.626-17.346,12.84c0.479,0.829,10.574-15.206,14.515-8.38c8.995,15.58-36.748,7.32-27.753,22.901
			c7.631,13.217,36.392-25.297,38.247-22.082c7.188,12.451-33.546,11.912-26.943,23.346c11.363,19.684,19.101-37.652,30.63-17.685
			c8.33,14.427-58.211,8.304-44.501,32.05c14.709,25.478,41.855-58.134,56.564-32.658c10.356,17.937-42.634,8.024-32.278,25.96
			c6.08,10.53,44.066-60.265,59.146-34.147c14.681,25.428-53.623,25.845-49.709,32.625c2.575,4.461,53.939-51.49,62.75-36.229
			c13.251,22.951-79.056,42.227-73.007,52.706c23.021,39.872,45.629-83.865,70.536-40.724
			c16.961,29.377-61.529,28.881-56.657,37.318c11.107,19.238,63.86-72.98,79.496-45.898c30.262,52.416-130.148,15.961-99.886,68.377
			c21.919,37.966,44.413-83.164,69.32-40.022c27.105,46.948-100.497,42.495-90.995,58.951
			c24.906,43.142,85.115-106.664,110.023-63.522c25.806,44.697-112.028,12.056-86.223,56.753
			c24.907,43.142,99.713-69.236,104.765-60.485c1.03,1.783-123.021,59.806-114.643,74.318
			c24.907,43.142,46.814-84.551,71.723-41.409c16.29,28.215-71.183,6.893-54.893,35.109c5.42,9.39,62.057-58.461,71.856-41.486
			c23.844,41.298-103.817,10.669-79.974,51.967c17.489,30.293,66.45-95.887,91.358-52.746
			c18.906,32.747-90.907,53.376-89.515,55.788c8.409,14.565,91.259-57.456,93.323-53.88c3.887,6.732-108.06,54.47-104.093,61.342
			c17.71,30.672,76.275-90.217,96.271-55.582c23.851,41.311-105.892,7.383-82.041,48.693c16.435,28.465,57.32-90.616,82.228-47.474
			c27.018,46.795-94.457,52.269-90.779,58.638c14.736,25.524,85.657-93.626,104.784-60.497c15.878,27.502-103.517,9.47-79.903,50.37
			c24.908,43.142,39.564-80.365,64.473-37.223c29.894,51.777-119.939,31.106-100.418,64.918
			c22.098,38.274,109.116-84.731,118.527-68.431c10.84,18.775-132.542,16.718-101.655,70.215
			c24.908,43.143,52.561-81.681,74.79-43.18c13.532,23.44-92.348,21.054-76.63,48.278c11.521,19.955,38.582-79.798,63.49-36.656
			c17.645,30.562-75.704,10.012-60.473,36.392c24.907,43.142,46.337-84.276,71.245-41.134c6.019,10.425-77.774,6.033-60.178,36.512
			c24.908,43.142,22.316-70.407,47.225-27.265c24.464,42.373-105.567,12.382-81.104,54.755
			c24.909,43.143,66.055-95.604,90.939-52.503c4.341,7.521-69.041,28.363-59.365,45.123c16.32,28.265,79.867-64.993,88.043-50.831
			c35.803,62.012-158.535,11.786-122.732,73.798c11.256,19.495,57.708-90.841,82.616-47.698
			c17.619,30.519-82.99,26.796-72.405,45.128c13.277,22.997,53.828-88.601,78.736-45.458c20.505,35.516-75.78,31.622-65.654,49.162
			c21.545,37.316,65.362-95.26,90.271-52.118c24.415,42.29-106.36,10.847-81.943,53.136c24.908,43.143,92.528-62.607,96.507-55.718
			c24.804,42.963-150.671,17.524-115.776,77.963c24.909,43.143,62.64-93.689,87.549-50.546c5.694,9.864-88.943,7.347-68.761,42.304
			c2.442,4.229,57.026-90.448,81.936-47.305c31.51,54.578-135.278,17.41-105.616,68.788c1.917,3.32,87.619-108.111,112.527-64.968
			c22.895,39.653-98.971,11.321-76.076,50.975c21.945,38.009,56.173-89.956,81.082-46.813c4.176,7.233-124.556,14.62-95.69,64.617
			c14.554,25.207,40.699-81.021,65.607-37.878c18.593,32.203-77.066,14.897-61.682,41.544c21.104,36.553,45.72-37.52,50.536-29.177
			c17.799,30.827-100.572,15.181-76.756,56.434c24.909,43.144,88.278-56.642,90.735-52.386c18.796,32.556-82.355,7.605-63.56,40.161
			c24.909,43.144,74.436-70.524,86.365-49.863c24.991,43.288-94.628,35.433-82.43,56.559c24.908,43.144,31.092-75.476,56.001-32.333
			c15.417,26.704-58.787,21.427-52.193,32.848c24.056,41.666,58.995-91.585,83.903-48.442
			c33.868,58.662-116.336,69.103-113.781,73.528c24.909,43.144,76.702-101.809,101.611-58.665
			c28.803,49.886-126.853,10.601-98.05,60.487c24.908,43.144,98.478-81.446,109.125-63.004
			c32.987,57.136-142.027,17.167-109.04,74.304c20.03,34.695,50.188-86.502,75.098-43.358c6.43,11.136-64.771,5.421-50.064,30.896
			c24.909,43.144,19.003-68.498,43.913-25.353c19.111,33.101-82.82,9.146-63.708,42.248c11.823,20.48,96.282-74.69,104.554-60.365
			c37.521,64.989-162.505,18.104-124.984,83.093c6.213,10.76,77.619-76.334,91.269-52.694c7.15,12.386-71.299,12.143-54.193,41.771
			c1.083,1.875,41.224-81.327,66.133-38.182c5.23,9.059-92.571,12.623-70.857,50.233c24.91,43.145,70.668-98.326,95.578-55.181
			c16.617,28.784-142.379,47.741-124.522,78.67c24.91,43.145,88.042-78.001,99.807-57.624
			c22.897,39.66-106.828,14.264-81.815,57.587c24.91,43.145,56.336-90.052,81.246-46.907c29.84,51.685-123.813,23.538-98.378,67.593
			c24.909,43.145,88.098-108.39,113.008-65.245c20.56,35.611-134.795,50.373-118.817,78.049
			c24.91,43.146,85.627-106.963,110.536-63.818c2.063,3.573-145.017,11.512-112.171,68.401
			c24.909,43.146,85.178-70.589,94.449-54.53c23.463,40.639-89.975,31.672-79.067,50.563c12.182,21.1,86.185-102.87,109.183-63.036
			c27.09,46.92-117.093,13.422-90.003,60.343c5.67,9.821,65.038-95.077,89.948-51.932c34.082,59.034-123.822,58.13-116.501,70.81
			c2.684,4.648,79.993-103.71,104.902-60.565c30.318,52.512-129.951,16.625-99.633,69.138
			c14.797,25.629,64.509-82.284,84.011-48.504c9.04,15.657-81.831,23.333-68.763,45.968c24.91,43.146,67.003-96.212,91.913-53.066
			c32.4,56.119-131.512,30.762-107.355,72.603c1.739,3.013,72.787-75.459,87.266-50.383c24.45,42.351-96.862,26.839-79.327,57.21
			c19.176,33.214,58.37-74.601,76.08-43.926c5.835,10.106-65.456,45.167-63.76,48.105c24.911,43.146,39.857-80.54,64.769-37.394
			c8.341,14.447-94.041,56.231-93.622,56.958c24.91,43.146,59.303-91.766,84.214-48.621c15.289,26.483-73.668,40.551-69.048,48.553
			c24.911,43.146,85.406-106.837,110.317-63.691c33.145,57.41-124.688,48.653-110.327,73.525
			c24.91,43.146,84.029-106.044,108.94-62.897c14.412,24.961-143.497,53.248-127.149,81.563
			c24.911,43.146,66.862-96.132,91.772-52.985c8.136,14.091-116.589,11.42-89.89,57.664c6.066,10.508,83.613-49.296,84.057-48.53
			c11.868,20.559-69.11,12.608-52.391,41.567c17.128,29.667,52.58-35.112,54.639-31.546c12.891,22.326-93.048,28.212-79.615,51.478
			c24.911,43.147,54.815-89.176,79.726-46.03c8.636,14.958-118.02,11.978-90.936,58.89c18.87,32.682,83.65-105.825,108.562-62.678
			c27.968,48.442-103.023,45.286-96.244,57.027c7.918,13.716,68.822-97.264,93.733-54.117c0.825,1.43-102.303,35.899-87.938,60.779
			c24.911,43.146,89.483-59.15,92.725-53.536c31.012,53.714-136.946,10.826-105.935,64.541
			c24.91,43.146,92.348-110.847,117.259-67.7c26.04,45.102-112.673,12.72-86.634,57.822c24.911,43.147,88.346-63.278,93.659-54.074
			c24.257,42.014-106.023,10.336-82.611,50.887c4.345,7.526,53.427-88.376,78.337-45.229c23.23,40.236-100.906,10.763-77.676,50.999
			c24.911,43.146,41.089-81.253,65.999-38.105c11.784,20.409-85.755,6.737-66.342,40.364c24.912,43.147,29.181-45.139,41.432-23.92
			c23.985,41.545-103.181,12.618-79.194,54.163c4.713,8.161,87.795-91.017,105.258-60.77
			c28.684,49.68-138.483,13.846-106.731,68.841c11.946,20.693,64.827-94.957,89.739-51.81c15.109,26.171-65.844,6.68-50.734,32.851
			c24.912,43.147,30.813-42.2,41.383-23.891c21.748,37.667-88.878,19.162-70.584,50.849c3.659,6.337,72.009-94.872,95.087-54.898
			c15.281,26.466-126.299,10.932-97.572,60.687c20.704,35.859,91.549-59.751,94.535-54.579
			c32.952,57.074-141.682,17.434-108.729,74.51c17.613,30.505,76.323-101.596,101.234-58.448
			c16.953,29.363-71.806,10.506-54.853,39.869c19.341,33.5,29.495-59.16,47.738-27.562c2.176,3.767-94.041,21.631-78.087,49.264
			c24.911,43.147,60.051-82.958,80.959-46.742c23.696,41.043-102.079,12.745-81.49,48.405
			c24.912,43.148,79.268-49.683,80.964-46.744c4.049,7.012-67.089,8.309-51.477,35.35c11.162,19.333,43.814-66.967,61.858-35.714
			c5.154,8.928-109.029,24.567-90.21,57.165c24.912,43.148,84.144-65.457,91.452-52.801c17.462,30.246-71.248,35.673-64.013,48.203
			c24.911,43.148,67.147-85,87.167-50.326c8.664,15.007-145.748,14.043-112.403,71.795c24.911,43.149,53.303-88.305,78.215-45.157
			c16.291,28.217-70.96,9.227-54.383,37.938c19.822,34.332,28.005-73.7,52.917-30.552c18.197,31.519-71.829,20.222-58.492,43.322
			c24.912,43.148,53.847-37.524,56.635-32.698c8.563,14.835-89.051,7.781-68.786,42.879c24.912,43.149,91.79-84.974,105.638-60.989
			c33.084,57.303-138.19,24.748-110.031,73.522c24.912,43.148,49.898-86.342,74.811-43.192
			c22.283,38.595-80.362,37.983-71.809,52.799c2.863,4.959,71.497-88.506,91.947-53.085c25.74,44.582-107.587,19.13-85.604,57.205
			c24.912,43.15,34.249-77.306,59.161-34.156c13.656,23.653-57.46,8.985-43.803,32.639c19.474,33.73,15.526-66.497,40.439-23.347
			c15.565,26.961-67.231,7.785-51.667,34.746c24.913,43.149,70.839-72.792,84.648-48.871
			c12.672,21.948-139.718,24.002-113.072,70.155c24.913,43.149,68.201-96.909,93.114-53.759
			c24.575,42.567-93.806,33.894-82.61,53.283c11.856,20.535,81.817-63.783,88.982-51.373
			c24.772,42.907-105.298,14.838-80.525,57.746c5.68,9.837,83.986-106.022,108.898-62.873
			c39.558,68.516-166.046,28.461-132.896,85.879c15.244,26.404,64.717-94.897,89.629-51.747
			c17.537,30.376-83.813,36.215-73.34,54.354c8.015,13.882,82.578-105.21,107.491-62.061
			c8.116,14.059-140.668,17.175-107.972,73.807c24.912,43.15,78.778-67.269,88.213-50.929c20.897,36.195-89.21,11.978-68.313,48.173
			c12.634,21.884,71.663-98.908,96.576-55.759c13.074,22.646-115.184,31.21-95.784,64.812c24.913,43.15,81.645-48.615,82.284-47.507
			c18.478,32.003-91.009,24.329-75.993,50.338c22.463,38.906,36.743-54.57,51.188-29.553c17.759,30.76-64.154,30.463-58.366,40.487
			c10.65,18.448,68.924-43.275,70.433-40.664c1.86,3.224-118.685,14.665-91.071,62.492c24.912,43.15,46.354-84.298,71.267-41.146
			c22.527,39.017-107.683,12.883-82.691,56.168c5.603,9.703,102.062-116.459,126.974-73.309
			c7.36,12.747-138.001,12.027-106.602,66.412c24.914,43.151,89.15-87.761,104.864-60.543
			c31.544,54.638-111.826,58.462-106.597,67.52c24.913,43.15,54.514-89.009,79.428-45.857
			c23.563,40.813-101.489,12.213-77.926,53.026c15.177,26.285,76.496-101.699,101.41-58.548
			c35.655,61.757-157.111,13.005-121.455,74.761c24.912,43.152,92.623-111.012,117.537-67.859
			c8.092,14.015-103.799,9.642-80.101,50.688c24.913,43.151,57.714-77.99,77.056-44.488c22.729,39.368-94.429,18.086-76.552,49.05
			c23.798,41.219,52.565-81.498,74.714-43.137c33.271,57.628-142.189,19.872-114.397,68.012
			c24.915,43.151,65.336-95.257,90.25-52.105c10.16,17.598-90.581,7.562-70.017,43.181c24.914,43.151,40.6-80.976,65.513-37.823
			c25.089,43.454-110.129,9.826-85.04,53.281c14.457,25.042,115.244-76.532,119.572-69.036
			c22.257,38.551-116.23,13.526-89.312,60.152c24.914,43.151,50.937-78.294,72.104-41.63c21.481,37.206-76.19,39.867-73.884,43.861
			c9.399,16.28,46.465-72.241,66.13-38.18c1.933,3.347-85.75,11.029-65.735,45.695c23.903,41.401,56.141-56.799,66.7-38.509
			c20.965,36.311-72.565,40.837-67.117,50.274c24.915,43.152,64.898-61.627,75.359-43.508c2.273,3.937-100.775,41.97-92.069,57.048
			c24.913,43.152,84.436-76.907,96.627-55.789c21.053,36.462-85.439,20.406-72.287,43.188c9.983,17.291,39.549-80.37,64.463-37.218
			c24.149,41.828-103.037,13.918-78.888,55.745c24.914,43.153,80.73-104.145,105.645-60.993
			c28.095,48.663-112.582,29.269-93.377,62.532c21.279,36.856,77.953-68.466,88.11-50.871
			c36.774,63.694-156.653,22.187-122.128,81.986c8.424,14.59,59.835-88.688,83.279-48.082
			c17.758,30.758-82.379,16.421-68.225,40.936c24.913,43.153,65.095-86.651,86.342-49.85c18.612,32.238-79.781,10.204-61.168,42.443
			c23.941,41.468,46.589-35.752,50.423-29.112c21.519,37.271-82.615,29.028-73.784,44.325c23.382,40.499,68.997-91.41,91.33-52.729
			c22.181,38.419-96.316,10.327-74.135,48.746c1.666,2.887,29.02-74.292,53.935-31.139c19.058,33.011-72.192,27.14-63.543,42.12
			c24.914,43.152,63.654-94.288,88.567-51.136c6.767,11.72-140.218,15.01-107.931,70.935c0.094,0.161,71.029-93.439,93.733-54.116
			c24.306,42.1-90.985,36.586-81.508,53.001c7.837,13.575,61.826-85.137,83.235-48.056c29.537,51.16-129.505,11.818-99.967,62.979
			c9.08,15.727,102.75-116.86,127.665-73.707c27.441,47.532-121.378,9.267-93.936,56.8c24.914,43.153,35.568-68.466,56.323-32.519
			c8.084,14.002-58.104,30.313-52.92,39.293c24.915,43.153,40.239-80.77,65.153-37.617c30.516,52.855-107.993,56.292-100.473,69.319
			c15.595,27.011,89.641-90.407,106.378-61.417c21.645,37.489-93.811,10.344-72.166,47.832
			c7.001,12.128,41.387-81.432,66.301-38.278c15.468,26.791-86.646,7.679-66.914,41.855c20.947,36.28,61.963-43.045,65.111-37.592
			c24.364,42.2-107.009,9.449-82.645,51.649c22.003,38.111,62.274-93.492,87.188-50.339
			c24.436,42.323-104.743,54.865-100.569,62.095c23.709,41.065,98.52-68.455,103.532-59.774
			c31.242,54.113-117.379,46.623-107.685,63.416c24.915,43.153,104.267-117.736,129.182-74.583
			c25.863,44.797-170.046,18.93-130.786,86.93c1.245,2.157,69.134-97.452,94.048-54.299c16.23,28.112-70.635,7.319-54.403,35.432
			c24.915,43.154,59.503-91.894,84.418-48.739c26.991,46.751-88.358,62.006-88.237,62.214c1.035,1.794,41.088-73.322,62.565-36.122
			c30.303,52.486-105.828,58.647-100.954,67.089c14.879,25.771,70.874-98.459,95.788-55.305
			c27.542,47.703-117.374,16.067-89.833,63.771c16.224,28.101,113.669-88.454,123.554-71.334
			c0.798,1.384-135.482,44.024-117.063,75.927c24.914,43.154,86.142-54.732,88.306-50.983
			c21.423,37.104-90.569,13.506-69.146,50.611c7.828,13.56,66.935-96.184,91.85-53.028c34.711,60.12-148.389,20.336-116.689,75.241
			c24.387,42.237,83.361-104.445,107.746-62.208c22.579,39.107-81.734,38.389-74.042,51.713
			c18.118,31.38,62.53-52.046,69.435-40.088c16.345,28.311-70.842,7.97-55.355,34.792c10.293,17.829,59.081-76.798,77.564-44.782
			c9.77,16.921-83.172,20.354-68.806,45.234c14.586,25.264,27.241-35.837,35.95-20.755c9.743,16.876-52.084,9.498-39.484,31.321
			c11.463,19.854,50.936-47.433,58.74-33.914c3.349,5.801-41.441,8.563-32.52,24.018c8.84,15.312-1.077-19.793,7.763-4.481
			c0.992,1.718,0.278,2.812,1.629,5.149c5.793,10.034,34.4-26.141,37.12-21.431c15.963,27.647-64.621,15.276-52.262,36.683
			c0.603,1.043,7.74-6.813,8.756-5.054c0.976,1.69,19.365-8.203,20.151-6.843c0.139,0.24,0.341-0.517,0.479-0.276"/>
	</g>
	<g>
		<path fill="none" stroke="#000000" stroke-linecap="round" stroke-linejoin="round" d="M45.465,26.365
			c0.116,0.201,29.842-17.422,29.926-17.277C86.166,27.75,29.784,15.808,40.56,34.47c0.437,0.758,28.481-22.855,31.258-18.047
			c3.563,6.17-22.665,3.627-17.346,12.84c0.479,0.829,10.575-15.206,14.516-8.38c8.995,15.58-36.748,7.32-27.753,22.901
			c7.631,13.217,36.392-25.297,38.248-22.082c7.188,12.451-33.546,11.912-26.944,23.347C63.902,64.733,71.64,7.396,83.168,27.364
			c8.329,14.427-58.212,8.304-44.502,32.051C53.376,84.893,80.522,1.28,95.232,26.757c10.356,17.937-42.634,8.024-32.278,25.96
			c6.079,10.53,44.065-60.265,59.144-34.147c14.681,25.428-53.623,25.845-49.709,32.625c2.576,4.46,53.94-51.49,62.751-36.229
			c13.251,22.951-79.057,42.227-73.007,52.705c23.021,39.873,45.629-83.866,70.537-40.724c16.961,29.377-61.53,28.882-56.659,37.319
			c11.107,19.238,63.861-72.981,79.498-45.898c30.262,52.416-130.15,15.961-99.888,68.377c21.92,37.967,44.414-83.164,69.322-40.022
			c27.106,46.949-100.498,42.495-90.996,58.952C58.854,148.815,119.063-0.99,143.971,42.151
			c25.806,44.697-112.03,12.056-86.224,56.753c24.908,43.142,99.714-69.237,104.766-60.487
			c1.03,1.784-123.022,59.807-114.644,74.319c24.908,43.143,46.815-84.551,71.724-41.409c16.291,28.215-71.184,6.893-54.894,35.109
			c5.421,9.39,62.058-58.46,71.857-41.486c23.844,41.298-103.817,10.669-79.973,51.967c17.49,30.293,66.451-95.888,91.359-52.746
			c18.907,32.747-90.907,53.377-89.515,55.788c8.409,14.565,91.259-57.457,93.324-53.88c3.887,6.731-108.06,54.47-104.092,61.342
			c17.708,30.672,76.274-90.217,96.271-55.582c23.851,41.311-105.892,7.382-82.042,48.693c16.435,28.465,57.32-90.616,82.229-47.474
			c27.018,46.796-94.458,52.269-90.78,58.638c14.736,25.525,85.657-93.626,104.784-60.497c15.879,27.503-103.517,9.47-79.903,50.37
			c24.908,43.142,39.564-80.366,64.473-37.223c29.894,51.778-119.94,31.106-100.418,64.919
			c22.098,38.275,109.117-84.731,118.528-68.432c10.84,18.776-132.543,16.718-101.656,70.216
			c24.908,43.143,52.563-81.682,74.791-43.181c13.533,23.44-92.349,21.054-76.631,48.279c11.521,19.955,38.583-79.799,63.491-36.656
			c17.645,30.563-75.706,10.012-60.475,36.392c24.909,43.143,46.339-84.276,71.247-41.134c6.019,10.425-77.774,6.032-60.177,36.511
			c24.908,43.143,22.316-70.408,47.225-27.265c24.464,42.374-105.569,12.383-81.104,54.757
			c24.908,43.143,66.055-95.606,90.94-52.504c4.342,7.52-69.041,28.363-59.365,45.123c16.319,28.266,79.867-64.994,88.043-50.832
			c35.803,62.013-158.536,11.787-122.733,73.799c11.255,19.495,57.708-90.841,82.617-47.698
			c17.62,30.519-82.991,26.796-72.406,45.129c13.277,22.997,53.829-88.602,78.737-45.459c20.505,35.516-75.781,31.622-65.654,49.162
			c21.545,37.316,65.363-95.261,90.271-52.119c24.417,42.29-106.359,10.847-81.943,53.137c24.909,43.143,92.53-62.607,96.507-55.718
			c24.805,42.963-150.671,17.524-115.776,77.964c24.909,43.143,62.64-93.689,87.549-50.546c5.695,9.865-88.943,7.347-68.76,42.305
			c2.441,4.229,57.026-90.449,81.935-47.306c31.51,54.577-135.279,17.41-105.616,68.788c1.917,3.321,87.619-108.112,112.528-64.968
			c22.894,39.654-98.973,11.321-76.079,50.976c21.945,38.01,56.174-89.957,81.083-46.813c4.176,7.232-124.556,14.62-95.69,64.618
			c14.553,25.207,40.699-81.022,65.608-37.879c18.592,32.203-77.068,14.897-61.683,41.544c21.104,36.554,45.721-37.52,50.537-29.178
			c17.798,30.828-100.574,15.182-76.756,56.435c24.909,43.144,88.279-56.643,90.736-52.387c18.796,32.556-82.356,7.605-63.56,40.162
			c24.909,43.144,74.436-70.524,86.365-49.863c24.992,43.289-94.629,35.434-82.431,56.561
			c24.909,43.144,31.094-75.478,56.003-32.333c15.417,26.704-58.788,21.427-52.194,32.848
			c24.056,41.666,58.995-91.587,83.905-48.442c33.868,58.662-116.338,69.103-113.783,73.528
			c24.91,43.145,76.703-101.81,101.612-58.666c28.803,49.887-126.854,10.602-98.052,60.489
			c24.91,43.144,98.48-81.447,109.127-63.005c32.988,57.137-142.03,17.167-109.042,74.305c20.031,34.695,50.19-86.503,75.099-43.359
			c6.43,11.136-64.773,5.422-50.065,30.897c24.91,43.144,19.004-68.499,43.914-25.354c19.111,33.101-82.821,9.146-63.709,42.248
			c11.824,20.48,96.284-74.691,104.555-60.365c37.521,64.989-162.506,18.104-124.985,83.093
			c6.212,10.76,77.621-76.334,91.269-52.694c7.151,12.385-71.299,12.142-54.193,41.771c1.083,1.875,41.224-81.328,66.134-38.182
			c5.23,9.059-92.574,12.623-70.859,50.234c24.91,43.145,70.668-98.328,95.579-55.183c16.618,28.785-142.38,47.742-124.522,78.671
			c24.909,43.145,88.043-78.002,99.808-57.625c22.898,39.66-106.83,14.265-81.816,57.588c24.91,43.146,56.336-90.053,81.247-46.908
			c29.84,51.685-123.815,23.538-98.379,67.593c24.91,43.146,88.098-108.391,113.009-65.245
			c20.56,35.611-134.796,50.373-118.817,78.049c24.91,43.146,85.626-106.963,110.537-63.818
			c2.063,3.573-145.018,11.512-112.172,68.402c24.911,43.146,85.179-70.589,94.451-54.531c23.463,40.64-89.975,31.672-79.068,50.564
			c12.182,21.1,86.184-102.87,109.183-63.036c27.09,46.921-117.093,13.422-90.003,60.344c5.67,9.821,65.039-95.078,89.949-51.932
			c34.084,59.035-123.822,58.13-116.502,70.81c2.684,4.648,79.994-103.711,104.903-60.566
			c30.318,52.513-129.952,16.626-99.634,69.139c14.797,25.629,64.51-82.285,84.013-48.505c9.04,15.657-81.833,23.333-68.764,45.968
			c24.911,43.146,67.004-96.212,91.915-53.067c32.4,56.12-131.514,30.763-107.357,72.604c1.74,3.013,72.788-75.458,87.266-50.383
			c24.451,42.351-96.862,26.84-79.328,57.211c19.176,33.214,58.372-74.602,76.083-43.926c5.834,10.105-65.458,45.167-63.762,48.105
			c24.91,43.146,39.859-80.541,64.769-37.395c8.341,14.447-94.042,56.231-93.622,56.958c24.911,43.147,59.303-91.767,84.214-48.621
			c15.29,26.483-73.668,40.551-69.048,48.553c24.911,43.147,85.406-106.837,110.317-63.691
			c33.146,57.41-124.687,48.653-110.327,73.526c24.911,43.146,84.03-106.044,108.941-62.897
			c14.411,24.961-143.498,53.248-127.149,81.563c24.911,43.147,66.862-96.132,91.773-52.985
			c8.135,14.091-116.59,11.419-89.892,57.665c6.067,10.508,83.616-49.297,84.058-48.531c11.87,20.559-69.11,12.608-52.391,41.567
			c17.128,29.667,52.582-35.112,54.64-31.546c12.89,22.327-93.049,28.212-79.616,51.478c24.911,43.147,54.815-89.177,79.726-46.03
			c8.637,14.958-118.02,11.978-90.935,58.891c18.869,32.682,83.649-105.825,108.561-62.678
			c27.968,48.442-103.023,45.286-96.245,57.027c7.919,13.716,68.824-97.265,93.734-54.118c0.826,1.43-102.303,35.9-87.939,60.78
			c24.912,43.147,89.484-59.15,92.727-53.536c31.012,53.714-136.949,10.826-105.937,64.541
			c24.912,43.146,92.349-110.848,117.26-67.7c26.04,45.102-112.675,12.72-86.635,57.822c24.912,43.147,88.346-63.279,93.66-54.075
			c24.257,42.014-106.025,10.336-82.613,50.887c4.346,7.526,53.426-88.376,78.338-45.229c23.23,40.236-100.906,10.762-77.676,50.999
			c24.911,43.147,41.088-81.253,66-38.105c11.783,20.409-85.757,6.738-66.343,40.364c24.912,43.148,29.182-45.14,41.433-23.921
			c23.986,41.545-103.183,12.618-79.196,54.164c4.712,8.161,87.796-91.019,105.259-60.771
			c28.684,49.681-138.484,13.847-106.732,68.843c11.947,20.692,64.829-94.959,89.74-51.811c15.11,26.172-65.845,6.68-50.734,32.851
			c24.912,43.148,30.812-42.201,41.383-23.892c21.749,37.669-88.879,19.162-70.584,50.85c3.658,6.337,72.009-94.872,95.087-54.898
			c15.281,26.466-126.3,10.932-97.573,60.688c20.703,35.859,91.549-59.751,94.535-54.579C172.98,578.6-1.653,538.958,31.299,596.034
			c17.612,30.505,76.323-101.597,101.235-58.448c16.954,29.363-71.807,10.506-54.854,39.868
			c19.342,33.501,29.497-59.16,47.74-27.562c2.175,3.768-94.042,21.631-78.087,49.265c24.912,43.148,60.051-82.958,80.96-46.742
			C151.988,593.457,26.212,565.16,46.8,600.82c24.912,43.148,79.269-49.683,80.965-46.745c4.048,7.012-67.089,8.311-51.478,35.352
			c11.162,19.332,43.815-66.968,61.859-35.715c5.155,8.928-109.03,24.568-90.21,57.165c24.912,43.148,84.144-65.457,91.452-52.801
			c17.462,30.246-71.248,35.672-64.013,48.203c24.912,43.148,67.148-85,87.167-50.326c8.664,15.007-145.749,14.042-112.405,71.796
			c24.913,43.149,53.304-88.306,78.216-45.158c16.291,28.217-70.96,9.226-54.383,37.938c19.823,34.332,28.005-73.7,52.917-30.552
			c18.197,31.519-71.83,20.222-58.492,43.322c24.913,43.149,53.849-37.525,56.636-32.698c8.564,14.834-89.051,7.781-68.787,42.88
			c24.913,43.148,91.791-84.975,105.639-60.99c33.084,57.303-138.193,24.748-110.033,73.522
			c24.912,43.149,49.9-86.342,74.812-43.192c22.283,38.595-80.362,37.983-71.809,52.799c2.863,4.959,71.498-88.507,91.948-53.085
			c25.74,44.582-107.588,19.13-85.605,57.205c24.913,43.15,34.249-77.307,59.162-34.156c13.656,23.653-57.461,8.985-43.804,32.64
			c19.474,33.729,15.528-66.498,40.441-23.349c15.566,26.961-67.234,7.786-51.667,34.748c24.912,43.148,70.838-72.793,84.648-48.872
			c12.672,21.948-139.719,24.002-113.072,70.155c24.913,43.149,68.201-96.909,93.113-53.759
			c24.576,42.567-93.805,33.895-82.61,53.284c11.856,20.535,81.818-63.784,88.983-51.374
			c24.772,42.907-105.298,14.838-80.525,57.746c5.679,9.837,83.986-106.022,108.899-62.873
			c39.557,68.516-166.048,28.46-132.896,85.88c15.244,26.403,64.718-94.898,89.631-51.749
			c17.537,30.377-83.814,36.217-73.342,54.355c8.015,13.882,82.579-105.211,107.492-62.061
			c8.116,14.059-140.669,17.174-107.972,73.807c24.913,43.151,78.779-67.271,88.213-50.93
			c20.898,36.196-89.211,11.978-68.313,48.174c12.635,21.885,71.663-98.909,96.577-55.759
			c13.075,22.647-115.184,31.209-95.784,64.812c24.913,43.15,81.644-48.615,82.284-47.507
			c18.477,32.003-91.009,24.329-75.993,50.338c22.463,38.906,36.743-54.571,51.187-29.553c17.759,30.76-64.155,30.463-58.367,40.487
			c10.65,18.448,68.924-43.276,70.433-40.664c1.86,3.224-118.686,14.665-91.072,62.492c24.913,43.151,46.354-84.299,71.269-41.146
			c22.526,39.017-107.684,12.883-82.693,56.168c5.602,9.703,102.062-116.46,126.975-73.309
			c7.359,12.747-138.002,12.027-106.603,66.412c24.913,43.151,89.15-87.762,104.865-60.543
			c31.545,54.638-111.827,58.462-106.597,67.52c24.913,43.15,54.514-89.01,79.428-45.857
			c23.563,40.813-101.489,12.213-77.925,53.026c15.176,26.285,76.495-101.7,101.409-58.548
			c35.656,61.757-157.111,13.004-121.456,74.761c24.914,43.152,92.625-111.012,117.538-67.86
			c8.092,14.016-103.8,9.643-80.102,50.689c24.914,43.151,57.713-77.991,77.056-44.488c22.73,39.369-94.429,18.085-76.552,49.05
			c23.798,41.22,52.565-81.499,74.714-43.137c33.271,57.628-142.19,19.872-114.396,68.012c24.914,43.151,65.336-95.257,90.25-52.105
			c10.16,17.598-90.583,7.562-70.017,43.182c24.914,43.151,40.6-80.977,65.514-37.825c25.089,43.455-110.13,9.826-85.042,53.282
			c14.458,25.042,115.245-76.532,119.573-69.036c22.257,38.551-116.231,13.526-89.312,60.152
			c24.914,43.152,50.937-78.296,72.105-41.63c21.481,37.206-76.191,39.867-73.885,43.862c9.399,16.279,46.466-72.242,66.131-38.181
			c1.932,3.347-85.751,11.029-65.737,45.695c23.903,41.401,56.142-56.8,66.702-38.51c20.965,36.312-72.566,40.838-67.118,50.275
			c24.915,43.152,64.898-61.628,75.359-43.509c2.273,3.937-100.776,41.971-92.071,57.049c24.914,43.153,84.438-76.907,96.63-55.789
			c21.052,36.462-85.441,20.406-72.289,43.188c9.983,17.291,39.549-80.371,64.464-37.219
			c24.149,41.828-103.038,13.919-78.889,55.746c24.914,43.153,80.73-104.146,105.645-60.993
			C189.88,863.1,49.203,843.706,68.408,876.97c21.279,36.856,77.953-68.467,88.111-50.871
			c36.774,63.694-156.654,22.187-122.129,81.986c8.423,14.59,59.836-88.688,83.281-48.082c17.757,30.757-82.38,16.421-68.226,40.936
			c24.914,43.153,65.095-86.651,86.342-49.85c18.613,32.239-79.782,10.205-61.169,42.443c23.942,41.469,46.59-35.752,50.424-29.112
			c21.519,37.271-82.615,29.028-73.784,44.325c23.382,40.499,68.996-91.411,91.33-52.729c22.181,38.419-96.317,10.327-74.136,48.746
			c1.667,2.887,29.021-74.292,53.935-31.139c19.059,33.011-72.191,27.14-63.542,42.12c24.915,43.153,63.653-94.289,88.568-51.136
			c6.766,11.72-140.22,15.011-107.932,70.936c0.093,0.16,71.029-93.441,93.733-54.117c24.306,42.1-90.984,36.586-81.507,53.002
			c7.838,13.574,61.828-85.138,83.236-48.057c29.538,51.161-129.504,11.818-99.966,62.979
			c9.08,15.727,102.75-116.861,127.664-73.707c27.443,47.532-121.378,9.267-93.935,56.8c24.915,43.153,35.568-68.466,56.323-32.519
			c8.084,14.002-58.105,30.313-52.92,39.293c24.915,43.153,40.239-80.77,65.154-37.617c30.517,52.856-107.995,56.292-100.474,69.319
			c15.595,27.011,89.641-90.407,106.378-61.417c21.645,37.489-93.81,10.344-72.166,47.832c7.001,12.128,41.387-81.433,66.302-38.278
			c15.468,26.791-86.647,7.679-66.916,41.855c20.947,36.28,61.964-43.045,65.112-37.592c24.365,42.2-107.01,9.45-82.646,51.649
			c22.003,38.111,62.275-93.493,87.19-50.339c24.435,42.322-104.745,54.865-100.571,62.096
			c23.71,41.066,98.521-68.457,103.533-59.775c31.243,54.113-117.379,46.623-107.684,63.416
			c24.915,43.153,104.267-117.737,129.182-74.583c25.864,44.796-170.046,18.929-130.786,86.93
			c1.246,2.157,69.133-97.453,94.048-54.299c16.231,28.112-70.635,7.318-54.404,35.432c24.915,43.154,59.503-91.895,84.419-48.74
			c26.992,46.751-88.36,62.007-88.239,62.216c1.036,1.794,41.089-73.325,62.567-36.123c30.304,52.486-105.829,58.647-100.955,67.089
			c14.879,25.771,70.875-98.459,95.79-55.305c27.542,47.704-117.375,16.067-89.834,63.771
			c16.224,28.101,113.669-88.454,123.554-71.334c0.798,1.384-135.483,44.024-117.064,75.927
			c24.915,43.154,86.143-54.732,88.307-50.983c21.423,37.105-90.57,13.506-69.147,50.612c7.829,13.56,66.935-96.186,91.851-53.03
			c34.711,60.121-148.39,20.337-116.69,75.242c24.386,42.237,83.362-104.447,107.748-62.208
			c22.578,39.107-81.737,38.389-74.044,51.713c18.118,31.381,62.53-52.047,69.435-40.088c16.345,28.311-70.842,7.97-55.356,34.792
			c10.294,17.829,59.082-76.798,77.566-44.782c9.769,16.92-83.173,20.354-68.808,45.234c14.586,25.264,27.242-35.838,35.95-20.756
			c9.743,16.876-52.083,9.499-39.483,31.322c11.462,19.854,50.934-47.434,58.739-33.914c3.349,5.801-41.441,8.563-32.519,24.018
			c8.84,15.312-1.076-19.793,7.764-4.482c0.992,1.719,0.278,2.812,1.628,5.15c5.793,10.034,34.401-26.142,37.12-21.431
			c15.963,27.647-64.623,15.276-52.263,36.683c0.602,1.043,7.74-6.814,8.756-5.055c0.977,1.691,19.366-8.202,20.151-6.842
			c0.139,0.24,0.342-0.517,0.48-0.276"/>
	</g>
</g>
<g>
</g>
<g>
</g>
<g>
</g>
<g>
</g>
<g>
</g>
<g>
</g>
</svg>
