<svg aria-hidden="true" style="position: absolute; width: 0; height: 0; overflow: hidden;" version="1.1" xmlns="http://www.w3.org/2000/svg" xmlns:xlink="http://www.w3.org/1999/xlink">
	<defs>
		<symbol id="boxshadow" viewBox="0 0 24 24">
			<path stroke="none" d="M0 0h24v24H0z" fill="none"/>
			<polyline points="12 3 20 7.5 20 16.5 12 21 4 16.5 4 7.5 12 3" />
			<line x1="12" y1="12" x2="20" y2="7.5" />
			<line x1="12" y1="12" x2="12" y2="21" />
			<line x1="12" y1="12" x2="4" y2="7.5" />
		</symbol>
		<symbol id="clippath" viewBox="0 0 24 24">
		  <path stroke="none" d="M0 0h24v24H0z" fill="none"/>
			<rect x="3" y="3" width="4" height="4" rx="1" />
			<rect x="17" y="3" width="4" height="4" rx="1" />
			<rect x="17" y="17" width="4" height="4" rx="1" />
			<rect x="3" y="17" width="4" height="4" rx="1" />
			<line x1="5" y1="7" x2="5" y2="17" />
			<line x1="19" y1="7" x2="19" y2="17" />
			<line x1="7" y1="5" x2="17" y2="5" />
			<line x1="7" y1="19" x2="17" y2="19" />
		</symbol>
		<symbol id="svgurl" viewBox="0 0 24 24">
			<path stroke="none" d="M0 0h24v24H0z" fill="none"/>
			<line x1="15" y1="8" x2="15.01" y2="8" />
			<rect x="4" y="4" width="16" height="16" rx="3" />
			<path d="M4 15l4 -4a3 5 0 0 1 3 0l5 5" />
			<path d="M14 14l1 -1a3 5 0 0 1 3 0l2 2" />
		</symbol>
		<symbol id="color" viewBox="0 0 24 24">
			<path stroke="none" d="M0 0h24v24H0z" fill="none"/>
			<path d="M12 21a9 9 0 1 1 0 -18a9 8 0 0 1 9 8a4.5 4 0 0 1 -4.5 4h-2.5a2 2 0 0 0 -1 3.75a1.3 1.3 0 0 1 -1 2.25" />
			<circle cx="7.5" cy="10.5" r=".5" fill="currentColor" />
			<circle cx="12" cy="7.5" r=".5" fill="currentColor" />
			<circle cx="16.5" cy="10.5" r=".5" fill="currentColor" />
		</symbol>
	</defs>
</svg>