<?xml version="1.0" encoding="utf-8"?>
<!-- Generator: Adobe Illustrator 24.1.2, SVG Export Plug-In . SVG Version: 6.00 Build 0)  -->
<svg version="1.1" id="Layer_1" xmlns="http://www.w3.org/2000/svg" xmlns:xlink="http://www.w3.org/1999/xlink" x="0px" y="0px"
	 viewBox="0 0 39.2 13" style="enable-background:new 0 0 39.2 13;" xml:space="preserve">
<style type="text/css">
	.st0{fill:#00BFFF;}
	.st1{fill:#007399;}
</style>
<rect x="1" y="1" class="st0" width="3" height="4"/>
<rect x="5" y="1" class="st0" width="3" height="4"/>
<rect x="9" y="1" class="st0" width="3" height="4"/>
<rect x="1" y="6" class="st1" width="11" height="3"/>
<rect x="1" y="10" class="st0" width="5" height="2"/>
<rect x="7" y="10" class="st0" width="5" height="2"/>
<g>
	<path class="st1" d="M15.2,1.3v3.9h1.3v0.6h-2V1.3H15.2z"/>
	<path class="st1" d="M20.1,4.7h-1.9l-0.5,1.1H17L19.2,1l2.2,4.8h-0.7L20.1,4.7z M19.9,4l-0.7-1.5L18.5,4H19.9z"/>
	<path class="st1" d="M22.4,3.8L21,1.3h0.8l1,1.8l1-1.8h0.8l-1.5,2.6v2h-0.7V3.8z"/>
	<path class="st1" d="M24.7,3.5c0-0.6,0.2-1.2,0.7-1.6c0.5-0.5,1-0.7,1.7-0.7c0.6,0,1.2,0.2,1.7,0.7c0.5,0.5,0.7,1,0.7,1.7
		c0,0.7-0.2,1.2-0.7,1.7c-0.5,0.5-1,0.7-1.7,0.7c-0.6,0-1.1-0.2-1.6-0.6C24.9,4.8,24.7,4.2,24.7,3.5z M25.4,3.5
		c0,0.5,0.2,0.9,0.5,1.2c0.3,0.3,0.7,0.5,1.2,0.5c0.5,0,0.9-0.2,1.2-0.5c0.3-0.3,0.5-0.7,0.5-1.2c0-0.5-0.2-0.9-0.5-1.2
		C27.9,2,27.5,1.8,27,1.8c-0.5,0-0.9,0.2-1.2,0.5C25.5,2.6,25.4,3,25.4,3.5z"/>
	<path class="st1" d="M30.9,1.3V4c0,0.4,0.1,0.7,0.2,0.9c0.2,0.3,0.5,0.4,0.8,0.4c0.3,0,0.6-0.1,0.8-0.4c0.1-0.2,0.2-0.5,0.2-0.9
		V1.3h0.7v2.9c0,0.5-0.1,0.9-0.4,1.2c-0.3,0.3-0.7,0.5-1.2,0.5S31,5.7,30.7,5.3c-0.3-0.3-0.4-0.7-0.4-1.2V1.3H30.9z"/>
	<path class="st1" d="M35.9,1.9v3.9h-0.7V1.9h-1V1.3H37v0.6H35.9z"/>
	<path class="st1" d="M16.2,11.8V7.3h0.7c0.3,0,0.5,0,0.7,0.1c0.2,0,0.3,0.1,0.5,0.2c0.1,0.1,0.2,0.3,0.3,0.4
		c0.1,0.2,0.1,0.3,0.1,0.5c0,0.3-0.1,0.6-0.4,0.8c0.2,0.1,0.4,0.2,0.6,0.4c0.1,0.2,0.2,0.4,0.2,0.7c0,0.4-0.1,0.7-0.4,0.9
		c-0.2,0.2-0.3,0.3-0.5,0.3c-0.2,0.1-0.5,0.1-0.8,0.1H16.2z M16.9,9.2h0.2c0.3,0,0.4-0.1,0.6-0.2s0.2-0.3,0.2-0.5
		c0-0.2-0.1-0.4-0.2-0.5s-0.3-0.2-0.5-0.2h-0.2V9.2z M16.9,11.1h0.4c0.3,0,0.5-0.1,0.7-0.2c0.2-0.1,0.2-0.3,0.2-0.5
		c0-0.2-0.1-0.4-0.2-0.5c-0.1-0.1-0.4-0.2-0.8-0.2h-0.3V11.1z"/>
	<path class="st1" d="M20.5,7.3v3.9h1.3v0.6h-2V7.3H20.5z"/>
	<path class="st1" d="M22,9.5c0-0.6,0.2-1.2,0.7-1.6c0.5-0.5,1-0.7,1.7-0.7c0.6,0,1.2,0.2,1.7,0.7c0.5,0.5,0.7,1,0.7,1.7
		c0,0.7-0.2,1.2-0.7,1.7c-0.5,0.5-1,0.7-1.7,0.7c-0.6,0-1.1-0.2-1.6-0.6C22.3,10.8,22,10.2,22,9.5z M22.7,9.5c0,0.5,0.2,0.9,0.5,1.2
		c0.3,0.3,0.7,0.5,1.2,0.5c0.5,0,0.9-0.2,1.2-0.5c0.3-0.3,0.5-0.7,0.5-1.2c0-0.5-0.2-0.9-0.5-1.2c-0.3-0.3-0.7-0.5-1.2-0.5
		c-0.5,0-0.9,0.2-1.2,0.5C22.9,8.6,22.7,9,22.7,9.5z"/>
	<path class="st1" d="M31,7.5v0.8c-0.4-0.3-0.8-0.5-1.2-0.5c-0.5,0-0.9,0.2-1.2,0.5c-0.3,0.3-0.5,0.7-0.5,1.2c0,0.5,0.2,0.9,0.5,1.2
		s0.7,0.5,1.2,0.5c0.2,0,0.4,0,0.6-0.1c0.1,0,0.2-0.1,0.3-0.2s0.2-0.1,0.3-0.2v0.8c-0.4,0.2-0.8,0.3-1.2,0.3c-0.6,0-1.2-0.2-1.7-0.7
		c-0.5-0.5-0.7-1-0.7-1.6C27.4,9,27.6,8.4,28,8c0.5-0.6,1.1-0.8,1.8-0.8C30.2,7.2,30.6,7.3,31,7.5z"/>
	<path class="st1" d="M32.6,9.1l1.8-1.8h0.9l-2,2l2.1,2.5h-0.9l-1.6-2l-0.1,0.1v1.9h-0.7V7.3h0.7V9.1z"/>
</g>
</svg>
