<?xml version="1.0" standalone="no"?>
<!DOCTYPE svg PUBLIC "-//W3C//DTD SVG 20010904//EN"
 "http://www.w3.org/TR/2001/REC-SVG-20010904/DTD/svg10.dtd">
<svg version="1.0" xmlns="http://www.w3.org/2000/svg"
 width="700.000000pt" height="700.000000pt" viewBox="0 0 700.000000 700.000000"
 preserveAspectRatio="xMidYMid meet">
<metadata>
Created by potrace 1.11, written by Peter Selinger 2001-2013
</metadata>
<g transform="translate(0.000000,700.000000) scale(0.100000,-0.100000)"
fill="#000000" stroke="none">
<path d="M768 6462 l-228 -2 0 -148 c-2 -953 0 -1996 4 -1999 2 -2 364 -5 805
-6 706 -2 801 0 802 13 4 59 3 2133 -1 2138 -5 7 -941 10 -1382 4z"/>
<path d="M2803 6462 l-111 -3 0 -1074 c0 -800 3 -1075 12 -1075 15 -1 1443 -1
1533 0 l71 0 0 1075 0 1075 -111 0 c-62 0 -375 1 -697 3 -322 1 -635 1 -697
-1z"/>
<path d="M4880 6460 l-35 -5 1 -1067 c0 -587 3 -1070 7 -1074 7 -7 1596 -8
1604 -1 6 6 6 2137 0 2143 -6 6 -1535 10 -1577 4z"/>
<path d="M540 3673 c0 -213 -1 -1421 0 -1469 l0 -50 2954 0 c1625 1 2957 4
2961 8 5 4 9 1183 5 1566 l0 42 -2960 0 -2960 0 0 -97z"/>
<path d="M540 1475 c0 -77 0 -259 0 -405 -1 -146 -1 -326 0 -400 l0 -135 1262
2 c695 1 1300 2 1346 3 l82 0 0 538 0 537 -1345 0 -1345 0 0 -140z"/>
<path d="M3770 1078 l0 -538 68 0 c441 -3 2615 0 2618 3 4 3 7 805 5 1027 l-1
45 -1345 0 -1345 0 0 -537z"/>
</g>
</svg>
