<?xml version="1.0" standalone="no"?>
<!DOCTYPE svg PUBLIC "-//W3C//DTD SVG 1.1//EN" "http://www.w3.org/Graphics/SVG/1.1/DTD/svg11.dtd" >
<svg>
<metadata>
Created by FontForge 20090914 at Fri Feb 24 15:19:19 2012
 By root
&#194;&#169; Association for Insight  Meditation
</metadata>
<defs>
<font id="Mandala-Bold" horiz-adv-x="1674" >
  <font-face 
    font-family="Mandala"
    font-weight="700"
    font-stretch="normal"
    units-per-em="2048"
    panose-1="4 3 8 5 2 11 2 2 12 3"
    ascent="1638"
    descent="-410"
    x-height="966"
    cap-height="1434"
    bbox="-1434 -466 4750 1991"
    underline-thickness="100"
    underline-position="-50"
    unicode-range="U+0020-U+FB06"
  />
<missing-glyph horiz-adv-x="1024" 
d="M100 0v1434h824v-1434h-824zM150 50h724v1334h-724v-1334zM516 1198q122 0 198.5 -88.5t76.5 -216.5q0 -104 -74.5 -179t-133.5 -76v-131h-192v284h112q41 0 66 34t25 85q0 58 -24 85t-68 27q-38 0 -62 -27t-24 -129h-193q0 163 87 247.5t206 84.5zM487 238
q-48 0 -76.5 38t-28.5 79q0 43 28.5 80t76.5 37q49 0 77 -37t28 -80q0 -41 -28 -79t-77 -38z" />
    <glyph glyph-name="uni203D" unicode="&#x21;&#x3f;" horiz-adv-x="1114" 
d="M369 945h-287q0 252 148.5 381.5t352.5 129.5q208 0 338.5 -136t130.5 -333q0 -160 -127 -275t-228 -117v-201h-328v551zM537 -20q-83 0 -131.5 58t-48.5 122q0 66 49 123t131 57q83 0 131.5 -57t48.5 -123q0 -64 -48.5 -122t-131.5 -58zM629 847q116 58 116 166
q0 120 -116 160v-326z" />
    <glyph glyph-name="uni221B" unicode="&#xb3;&#x221a;" horiz-adv-x="1454" 
d="M109 1633h445q218 0 218 -135q0 -85 -141 -187q49 -11 122.5 -83.5t73.5 -198.5q0 -127 -94.5 -211.5t-278.5 -84.5h-367v214h342q51 0 79 23t28 76q0 50 -28 84.5t-67 34.5h-232v35l268 224h-368v209zM621 0l-164 359l106 66l53 -116l703 1375h200v-100h-88z" />
    <glyph glyph-name="uni221C" unicode="&#x2074;&#x221a;" horiz-adv-x="1451" 
d="M719 1633v-505h133v-209h-133v-186h-279v186h-221q-162 0 -162 125q0 55 72 159l267 430h238l-300 -505h106v90l248 415h31zM618 0l-164 359l106 66l53 -116l703 1375h200v-100h-88z" />
    <glyph glyph-name="fj" unicode="fj" horiz-adv-x="1219" 
d="M771 746h-330v-746h-320v966q0 261 123 389.5t337 128.5h181v-220h-181q-73 0 -106.5 -54t-33.5 -127v-117h650v-968q0 -402 -476 -402h-165v220h198q123 0 123 182v748z" />
    <glyph glyph-name="fr" unicode="fr" horiz-adv-x="1447" 
d="M776 746h-335v-746h-320v966q0 261 123 389.5t337 128.5h181v-220h-181q-73 0 -106.5 -54t-33.5 -127v-117h655v-72q136 120 265 120h81v-220h-121q-103 0 -164 -96.5t-61 -222.5v-475h-320v746z" />
    <glyph glyph-name="ft" unicode="ft" horiz-adv-x="1525" 
d="M866 746h-425v-746h-320v966q0 261 123 389.5t337 128.5h181v-220h-181q-73 0 -106.5 -54t-33.5 -127v-117h425v311h320v-306h270v-225h-270v-337q0 -78 27 -133.5t95 -55.5h148v-220h-122q-216 0 -342 118t-126 291v337z" />
    <glyph glyph-name="fy" unicode="fy" horiz-adv-x="1798" 
d="M763 746h-322v-746h-320v966q0 261 123 389.5t337 128.5h181v-220h-181q-73 0 -106.5 -54t-33.5 -127v-117h642v-584q0 -84 41 -120.5t107 -36.5t107 36.5t41 120.5v584h320v-584q0 -162 -127 -282q-105 -97 -184 -111v-393h-321v396q-76 14 -176 108q-128 120 -128 282
v364z" />
    <glyph glyph-name="fft" unicode="fft" horiz-adv-x="2282" 
d="M878 746h-437v-746h-320v966q0 211 123 339.5t337 128.5h181v-220h-181q-73 0 -106.5 -54t-33.5 -127v-67h437q0 261 123 389.5t337 128.5h181v-220h-181q-73 0 -106.5 -54t-33.5 -127v-117h425v311h320v-306h270v-225h-270v-337q0 -78 27 -133.5t95 -55.5h148v-220h-122
q-216 0 -342 118t-126 291v337h-425v-746h-320v746z" />
    <glyph glyph-name="ffy" unicode="ffy" horiz-adv-x="2555" 
d="M878 746h-437v-746h-320v966q0 211 123 339.5t337 128.5h181v-220h-181q-73 0 -106.5 -54t-33.5 -127v-67h437q0 261 123 389.5t337 128.5h181v-220h-181q-73 0 -106.5 -54t-33.5 -127v-117h642v-584q0 -84 41 -120.5t107 -36.5t107 36.5t41 120.5v584h320v-584
q0 -162 -127 -282q-105 -97 -184 -111v-393h-321v396q-76 14 -176 108q-128 120 -128 282v364h-322v-746h-320v746z" />
    <glyph glyph-name="fty" unicode="fty" horiz-adv-x="2566" 
d="M866 746h-425v-746h-320v966q0 261 123 389.5t337 128.5h181v-220h-181q-73 0 -106.5 -54t-33.5 -127v-117h425v311h320v-306h345v-5h320v-584q0 -84 41 -120.5t107 -36.5t107 36.5t41 120.5v584h320v-584q0 -162 -127 -282q-105 -97 -184 -111v-393h-321v396
q-76 14 -176 108q-128 120 -128 282v364h-345v-337q0 -78 27 -133.5t95 -55.5h148v-220h-122q-216 0 -342 118t-126 291v337z" />
    <glyph glyph-name="tr" unicode="tr" horiz-adv-x="1548" 
d="M887 746h-458v-337q0 -78 27 -133.5t95 -55.5h148v-220h-122q-216 0 -342 118t-126 291v868h320v-306h778v-77q136 120 265 120h81v-220h-121q-103 0 -164 -96.5t-61 -222.5v-475h-320v746z" />
    <glyph glyph-name="tt" unicode="tt" horiz-adv-x="1536" 
d="M877 746h-448v-337q0 -78 27 -133.5t95 -55.5h148v-220h-122q-216 0 -342 118t-126 291v868h320v-311h448v311h320v-311h270v-220h-270v-337q0 -78 27 -133.5t95 -55.5h148v-220h-122q-216 0 -342 118t-126 291v337z" />
    <glyph glyph-name="tty" unicode="tty" horiz-adv-x="2577" 
d="M1862 966v-584q0 -84 41 -120.5t107 -36.5t107 36.5t41 120.5v584h320v-584q0 -162 -127 -282q-105 -97 -184 -111v-393h-321v396q-76 14 -176 108q-128 120 -128 282v364h-345v-337q0 -78 27 -133.5t95 -55.5h148v-220h-122q-216 0 -342 118t-126 291v337h-448v-337
q0 -78 27 -133.5t95 -55.5h148v-220h-122q-216 0 -342 118t-126 291v868h320v-311h448v311h320v-311h665z" />
    <glyph glyph-name="ty" unicode="ty" horiz-adv-x="1809" 
d="M774 746h-345v-337q0 -78 27 -133.5t95 -55.5h148v-220h-122q-216 0 -342 118t-126 291v868h320v-311h665v-584q0 -84 41 -120.5t107 -36.5t107 36.5t41 120.5v584h320v-584q0 -162 -127 -282q-105 -97 -184 -111v-393h-321v396q-76 14 -176 108q-128 120 -128 282v364z
" />
    <glyph glyph-name="ttr" unicode="ttr" horiz-adv-x="2316" 
d="M877 746h-448v-337q0 -78 27 -133.5t95 -55.5h148v-220h-122q-216 0 -342 118t-126 291v868h320v-306h448v306h320v-306h778v-77q136 120 265 120h81v-220h-121q-103 0 -164 -96.5t-61 -222.5v-475h-320v746h-458v-337q0 -78 27 -133.5t95 -55.5h148v-220h-122
q-216 0 -342 118t-126 291v337z" />
    <glyph glyph-name="ffr" unicode="ffr" horiz-adv-x="2204" 
d="M1853 966v-72q136 120 265 120h81v-220h-121q-103 0 -164 -96.5t-61 -222.5v-475h-320v746h-335v-746h-320v746h-437v-746h-320v966q0 211 123 339.5t337 128.5h181v-220h-181q-73 0 -106.5 -54t-33.5 -127v-67h437q0 261 123 389.5t337 128.5h181v-220h-181
q-73 0 -106.5 -54t-33.5 -127v-117h655z" />
    <glyph glyph-name="fb" unicode="fb" horiz-adv-x="1988" 
d="M861 1264h-280q-73 0 -106.5 -54t-33.5 -127v-117h321v-220h-321v-746h-320v966q0 261 123 389.5t337 128.5h600v-933h1q0 -164 58 -235t159 -71t159 71t58 185q0 111 -63 180.5t-134 69.5q-95 0 -181 -76v296q104 43 211 43q182 0 335 -155.5t153 -357.5
q0 -205 -153 -362t-385 -157t-385 157t-153 362v763z" />
    <glyph glyph-name="ffb" unicode="ffb" horiz-adv-x="2745" 
d="M1938 1484v-933h1q0 -164 58 -235t159 -71t159 71t58 185q0 111 -63 180.5t-134 69.5q-95 0 -181 -76v296q104 43 211 43q182 0 335 -155.5t153 -357.5q0 -205 -153 -362t-385 -157t-385 157t-153 362v763h-280q-73 0 -106.5 -54t-33.5 -127v-117h321v-220h-321v-746
h-320v746h-437v-746h-320v966q0 211 123 339.5t337 128.5h181v-220h-181q-73 0 -106.5 -54t-33.5 -127v-67h437q0 261 123 389.5t337 128.5h600z" />
    <glyph glyph-name="fh" unicode="fh" horiz-adv-x="1912" 
d="M878 1264h-297q-73 0 -106.5 -54t-33.5 -127v-117h321v-220h-321v-746h-320v966q0 261 123 389.5t337 128.5h617v-542q91 72 220 72q172 0 284 -119.5t112 -347.5v-547h-320v552q0 88 -34.5 143t-94.5 55q-77 0 -122 -60t-45 -155v-535h-320v1264z" />
    <glyph glyph-name="ffh" unicode="ffh" horiz-adv-x="2669" 
d="M1955 1484v-542q91 72 220 72q172 0 284 -119.5t112 -347.5v-547h-320v552q0 88 -34.5 143t-94.5 55q-77 0 -122 -60t-45 -155v-535h-320v1264h-297q-73 0 -106.5 -54t-33.5 -127v-117h321v-220h-321v-746h-320v746h-437v-746h-320v966q0 211 123 339.5t337 128.5h181
v-220h-181q-73 0 -106.5 -54t-33.5 -127v-67h437q0 261 123 389.5t337 128.5h617z" />
    <glyph glyph-name="fk" unicode="fk" horiz-adv-x="1850" 
d="M878 1264h-297q-73 0 -106.5 -54t-33.5 -127v-117h321v-220h-321v-746h-320v966q0 261 123 389.5t337 128.5h617v-835h42q77 0 248 317h323q-152 -312 -240 -368q59 0 111 -74t57 -180v-344h-321v296q0 63 -19.5 98t-76.5 35h-124v-429h-320v1264z" />
    <glyph glyph-name="ffk" unicode="ffk" horiz-adv-x="2607" 
d="M1955 1484v-835h42q77 0 248 317h323q-152 -312 -240 -368q59 0 111 -74t57 -180v-344h-321v296q0 63 -19.5 98t-76.5 35h-124v-429h-320v1264h-297q-73 0 -106.5 -54t-33.5 -127v-117h321v-220h-321v-746h-320v746h-437v-746h-320v966q0 211 123 339.5t337 128.5h181
v-220h-181q-73 0 -106.5 -54t-33.5 -127v-67h437q0 261 123 389.5t337 128.5h617z" />
    <glyph glyph-name="ff" unicode="ff" horiz-adv-x="1514" 
d="M878 746h-437v-746h-320v966q0 211 123 339.5t337 128.5h181v-220h-181q-73 0 -106.5 -54t-33.5 -127v-67h437q0 261 123 389.5t337 128.5h181v-220h-181q-73 0 -106.5 -54t-33.5 -127v-117h321v-220h-321v-746h-320v746z" />
    <glyph glyph-name="fi" unicode="fi" horiz-adv-x="1319" 
d="M871 746h-430v-746h-320v966q0 261 123 389.5t337 128.5h181v-220h-181q-73 0 -106.5 -54t-33.5 -127v-117h750v-966h-320v746z" />
    <glyph glyph-name="fl" unicode="fl" horiz-adv-x="1321" 
d="M878 746h-437v-746h-320v966q0 261 123 389.5t337 128.5h181v-220h-181q-73 0 -106.5 -54t-33.5 -127v-117h437v518h320v-1484h-320v746z" />
    <glyph glyph-name="ffi" unicode="ffi" horiz-adv-x="2076" 
d="M878 746h-437v-746h-320v966q0 211 123 339.5t337 128.5h181v-220h-181q-73 0 -106.5 -54t-33.5 -127v-67h437q0 261 123 389.5t337 128.5h181v-220h-181q-73 0 -106.5 -54t-33.5 -127v-117h750v-966h-320v746h-430v-746h-320v746z" />
    <glyph glyph-name="ffl" unicode="ffl" horiz-adv-x="2078" 
d="M878 746h-437v-746h-320v966q0 211 123 339.5t337 128.5h181v-220h-181q-73 0 -106.5 -54t-33.5 -127v-67h437q0 261 123 389.5t337 128.5h181v-220h-181q-73 0 -106.5 -54t-33.5 -127v-117h437v518h320v-1484h-320v746h-437v-746h-320v746z" />
    <glyph glyph-name="longst" unicode="&#x17f;t" horiz-adv-x="1525" 
d="M441 0h-320v966q0 261 123 390q114 118 305 127v1h213v-1q191 -9 307.5 -132t116.5 -380h270v-225h-270v-337q0 -78 27 -133.5t95 -55.5h148v-220h-122q-216 0 -342 118t-126 291v674q0 73 -31.5 127t-104.5 54h-149q-73 0 -106.5 -54t-33.5 -127v-1083z" />
    <glyph glyph-name=".notdef" horiz-adv-x="1024" 
d="M100 0v1434h824v-1434h-824zM150 50h724v1334h-724v-1334zM516 1198q122 0 198.5 -88.5t76.5 -216.5q0 -104 -74.5 -179t-133.5 -76v-131h-192v284h112q41 0 66 34t25 85q0 58 -24 85t-68 27q-38 0 -62 -27t-24 -129h-193q0 163 87 247.5t206 84.5zM487 238
q-48 0 -76.5 38t-28.5 79q0 43 28.5 80t76.5 37q49 0 77 -37t28 -80q0 -41 -28 -79t-77 -38z" />
    <glyph glyph-name=".null" horiz-adv-x="1291" 
 />
    <glyph glyph-name="nonmarkingreturn" horiz-adv-x="508" 
 />
    <glyph glyph-name="space" unicode=" " horiz-adv-x="578" 
 />
    <glyph glyph-name="exclam" unicode="!" horiz-adv-x="698" 
d="M187 1434h327v-979h-327v979zM349 -20q-83 0 -131.5 58t-48.5 122q0 66 49 123t131 57q83 0 131.5 -57t48.5 -123q0 -64 -48.5 -122t-131.5 -58z" />
    <glyph glyph-name="quotedbl" unicode="&#x22;" horiz-adv-x="839" 
d="M120 1484h232v-583h-232v583zM487 1484h232v-583h-232v583z" />
    <glyph glyph-name="numbersign" unicode="#" horiz-adv-x="1605" 
d="M308 465l191 502h-199l54 141h198l125 326h286l-120 -326h215l125 326h286l-120 -326h206l-54 -141h-204l-183 -502h191l-54 -141h-189l-120 -324h-307l125 324h-204l-120 -324h-307l125 324h-204l54 141h204zM791 967l-183 -502h206l191 502h-214z" />
    <glyph glyph-name="dollar" unicode="$" horiz-adv-x="1236" 
d="M698 533v-249q37 4 57 22q27 23 27 88q0 85 -84 139zM538 1153h-15q-62 0 -62 -83q0 -69 77 -124v207zM538 616l-199 101q-237 122 -237 353q0 150 114.5 257t306.5 107h15v227h160v-227h382v-281h-382v-294l207 -106q236 -124 236 -359q0 -166 -129 -280
q-119 -105 -314 -113v-228h-160v227h-444v282h444v334z" />
    <glyph glyph-name="percent" unicode="%" horiz-adv-x="1837" 
d="M357 1018q14 -89 88 -89q85 0 98 89v201q-13 89 -98 89q-74 0 -88 -89v-201zM829 1017q0 -106 -102.5 -175t-281.5 -69q-176 0 -274.5 69.5t-98.5 174.5v203q0 105 98.5 174.5t274.5 69.5q179 0 281.5 -69.5t102.5 -174.5v-203zM532 -30l640 1464h134l-638 -1464h-136z
M1296 215q13 -89 87 -89q85 0 98 89v201q-13 89 -98 89q-74 0 -87 -89v-201zM1767 214q0 -105 -102.5 -174.5t-281.5 -69.5q-176 0 -274.5 69.5t-98.5 174.5v203q0 105 98.5 175t274.5 70q179 0 281.5 -69.5t102.5 -175.5v-203z" />
    <glyph glyph-name="ampersand" unicode="&#x26;" horiz-adv-x="1567" 
d="M324 955l-45 55q-47 70 -47 190q0 97 67.5 165.5t213.5 68.5h576v-242h-495q-52 0 -52 -79l546 -680q19 58 19 127q0 155 -98 258l193 148q0 -1 1 -1q175 -173 175 -405q0 -190 -118 -341l178 -221h-328l-45 54q-131 -70 -297 -70q-259 0 -434 173t-175 405
q0 225 165 395zM920 230l-437 531q-53 -86 -53 -201q0 -161 102.5 -265.5t235.5 -104.5q81 0 152 40z" />
    <glyph glyph-name="quotesingle" unicode="'" horiz-adv-x="472" 
d="M120 1484h232v-583h-232v583z" />
    <glyph glyph-name="parenleft" unicode="(" horiz-adv-x="767" 
d="M120 593q0 474 502 944l65 -245q-347 -294 -347 -699q0 -406 347 -699l-65 -245q-502 469 -502 944z" />
    <glyph glyph-name="parenright" unicode=")" horiz-adv-x="767" 
d="M146 -351l-66 245q347 293 347 699q0 405 -347 699l66 245q501 -470 501 -944q0 -475 -501 -944z" />
    <glyph glyph-name="asterisk" unicode="*" horiz-adv-x="1145" 
d="M482 1201q-22 142 -91 283h327q-69 -141 -90 -282q111 89 199 219l164 -283q-158 -10 -292 -63q134 -53 292 -64l-164 -282q-88 131 -200 220q22 -142 91 -284h-327q69 142 91 284q-113 -89 -201 -220l-163 282q157 11 291 64q-134 53 -291 63l163 283q88 -131 201 -220z
" />
    <glyph glyph-name="plus" unicode="+" horiz-adv-x="1228" 
d="M724 408v-408h-220v408h-408v220h408v408h220v-408h408v-220h-408z" />
    <glyph glyph-name="comma" unicode="," horiz-adv-x="754" 
d="M252 269h262l-128 -477h-231z" />
    <glyph glyph-name="hyphen" unicode="-" horiz-adv-x="792" 
d="M64 596h664v-228h-664v228z" />
    <glyph glyph-name="period" unicode="." horiz-adv-x="754" 
d="M404 -20q-83 0 -131.5 58t-48.5 122t48.5 122t131.5 58t131.5 -58t48.5 -122t-48.5 -122t-131.5 -58z" />
    <glyph glyph-name="slash" unicode="/" horiz-adv-x="698" 
d="M204 -165h-222l476 1649h222z" />
    <glyph glyph-name="zero" unicode="0" horiz-adv-x="1228" 
d="M431 492q24 -229 175 -229q167 0 190 229v450q-23 229 -190 229q-151 0 -175 -229v-450zM1156 491q0 -222 -146.5 -365.5t-403.5 -143.5q-252 0 -393 144t-141 365v452q0 221 141 365t393 144q257 0 403.5 -143.5t146.5 -365.5v-452z" />
    <glyph glyph-name="one" unicode="1" horiz-adv-x="1228" 
d="M329 1434h547v-1434h-359v1152h-265q77 185 77 282z" />
    <glyph glyph-name="two" unicode="2" horiz-adv-x="1228" 
d="M632 1452q270 0 406 -135.5t136 -341.5q0 -243 -219 -412l-362 -273h573v-290h-823q-261 0 -261 191q0 117 264 297l355 263q105 92 105 224q0 98 -47.5 147t-126.5 49q-75 0 -116.5 -45.5t-48.5 -151.5q0 -101 119 -181l-244 -190q-242 161 -242 372q0 209 157.5 343
t374.5 134z" />
    <glyph glyph-name="three" unicode="3" horiz-adv-x="1228" 
d="M130 1434h645q295 0 295 -192q0 -127 -170 -257l-81 -72q126 -30 230.5 -142t104.5 -310q0 -200 -134 -330.5t-400 -130.5h-524v291h486q82 0 143.5 38.5t61.5 159.5q0 115 -56 157t-131 42h-316v95l400 369h-554v282z" />
    <glyph glyph-name="four" unicode="4" horiz-adv-x="1228" 
d="M988 1434v-841h204v-282h-204v-311h-350v311h-380q-209 0 -209 175q0 83 106 251l401 697h325l-462 -841h219v259l306 582h44z" />
    <glyph glyph-name="five" unicode="5" horiz-adv-x="1228" 
d="M153 1434h871v-282h-521v-222h90q303 0 431 -135.5t128 -325.5q0 -242 -154.5 -355.5t-395.5 -113.5h-500v291h509q100 0 132 37t32 141q0 101 -36.5 140t-112.5 39h-473v786z" />
    <glyph glyph-name="six" unicode="6" horiz-adv-x="1228" 
d="M156 774l480 660h414l-577 -792q-44 -64 -44 -145q0 -103 61.5 -164t132.5 -61t133 61t62 164q0 93 -52 154t-151 61l190 272q111 -25 241 -154t130 -333q0 -205 -157.5 -360t-395.5 -155q-239 0 -396 155t-157 360q0 150 86 277z" />
    <glyph glyph-name="seven" unicode="7" horiz-adv-x="1227" 
d="M96 1434h781q286 0 286 -209q0 -70 -84 -251l-433 -974h-399l520 1142h-671v292z" />
    <glyph glyph-name="eight" unicode="8" horiz-adv-x="1228" 
d="M818 469q0 91 -62.5 145t-137.5 54q-74 0 -137 -54t-63 -145q0 -92 63 -146.5t137 -54.5q75 0 137.5 54.5t62.5 146.5zM738 1063q0 50 -35.5 85t-84.5 35t-84.5 -35t-35.5 -85t35.5 -85t84.5 -35t84.5 35t35.5 85zM1160 453q0 -187 -156.5 -329t-389.5 -142t-389.5 142
t-156.5 329t209 328q-128 116 -128 273q0 156 132.5 277t333.5 121q199 0 331.5 -121t132.5 -277q0 -157 -127 -273q208 -141 208 -328z" />
    <glyph glyph-name="nine" unicode="9" horiz-adv-x="1228" 
d="M1091 660l-481 -660h-414l577 791q45 65 45 146q0 102 -61.5 163t-133.5 61q-71 0 -132.5 -61t-61.5 -163q0 -93 51.5 -154t150.5 -61l-190 -272q-110 25 -240.5 154t-130.5 333t157.5 359.5t395.5 155.5q239 0 396 -155.5t157 -359.5q0 -150 -85 -277z" />
    <glyph glyph-name="colon" unicode=":" horiz-adv-x="754" 
d="M403 500q-83 0 -131.5 58t-48.5 122t48.5 122t131.5 58t131.5 -58t48.5 -122t-48.5 -122t-131.5 -58zM404 -20q-83 0 -131.5 58t-48.5 122t48.5 122t131.5 58t131.5 -58t48.5 -122t-48.5 -122t-131.5 -58z" />
    <glyph glyph-name="semicolon" unicode=";" horiz-adv-x="754" 
d="M252 269h262l-128 -477h-231zM403 500q-83 0 -131.5 58t-48.5 122t48.5 122t131.5 58t131.5 -58t48.5 -122t-48.5 -122t-131.5 -58z" />
    <glyph glyph-name="less" unicode="&#x3c;" horiz-adv-x="1228" 
d="M1132 1103v-253l-656 -303l656 -297v-250l-1036 474v143z" />
    <glyph glyph-name="equal" unicode="=" horiz-adv-x="1228" 
d="M80 253v220h1036v-220h-1036zM80 632v220h1036v-220h-1036z" />
    <glyph glyph-name="greater" unicode="&#x3e;" horiz-adv-x="1228" 
d="M1132 617v-143l-1036 -474v250l656 297l-656 303v253z" />
    <glyph glyph-name="question" unicode="?" horiz-adv-x="1114" 
d="M583 1456q208 0 338.5 -136t130.5 -333q0 -160 -127 -275t-228 -117v-201h-328v437h192q69 0 111.5 52t42.5 130q0 90 -41 131t-115 41q-66 0 -107 -41.5t-41 -198.5h-329q0 252 148.5 381.5t352.5 129.5zM533 -20q-83 0 -131.5 58t-48.5 122q0 66 49 123t131 57
q83 0 131.5 -57t48.5 -123q0 -64 -48.5 -122t-131.5 -58z" />
    <glyph glyph-name="at" unicode="@" horiz-adv-x="2060" 
d="M1131 1495q377 0 608 -206.5t231 -494.5q0 -293 -174 -479t-377 -186q-157 0 -230 106q-116 -106 -302 -106q-167 0 -263.5 104t-96.5 254q0 256 151.5 414t345.5 158q149 0 217 -123l23 87h275l-151 -651q0 -79 72 -82q95 0 205.5 147.5t110.5 366.5q0 247 -208.5 389
t-453.5 142q-359 0 -586 -219.5t-227 -551.5q0 -314 199.5 -487t520.5 -173q308 0 662 210l70 -124q-338 -247 -699 -247q-459 0 -703.5 232.5t-244.5 588.5q0 392 287 661.5t738 269.5zM928 280q162 0 221 253l46 200q0 92 -47 132t-116 40q-223 0 -223 -377
q0 -248 119 -248z" />
    <glyph glyph-name="A" unicode="A" horiz-adv-x="1339" 
d="M1223 932v-932h-359v605h-317v282h317v45q0 102 -61.5 163t-132.5 61t-132.5 -61t-61.5 -220v-875h-359v932q0 204 157.5 360t395.5 156t395.5 -156t157.5 -360z" />
    <glyph glyph-name="B" unicode="B" horiz-adv-x="1267" 
d="M1148 1037q-1 -178 -112 -265q170 -86 170 -328q0 -221 -166.5 -332.5t-320.5 -111.5h-156v282h129q87 0 120.5 31.5t33.5 121.5q0 94 -43 132t-111 38h-129v282h68q77 0 117 42t40 112q0 71 -32.5 93t-85.5 22q-71 0 -132.5 -61t-61.5 -220v-875h-359v932
q0 204 157.5 360t395.5 156q216 0 347 -113t131 -298z" />
    <glyph glyph-name="C" unicode="C" horiz-adv-x="1139" 
d="M825 1143q-156 0 -277 -119.5t-121 -306.5q0 -186 121 -306t277 -120h237v-291h-237q-323 0 -540 215t-217 502t217 502t540 215h237v-291h-237z" />
    <glyph glyph-name="D" unicode="D" horiz-adv-x="1386" 
d="M490 1143v-1143h-359v1434h434q323 0 540 -215t217 -502t-217 -502t-513 -215v291q129 0 250 120t121 306q0 187 -121 306.5t-277 119.5h-75z" />
    <glyph glyph-name="E" unicode="E" horiz-adv-x="1160" 
d="M442 857h604v-280h-604q12 -78 120 -187t263 -109h221v-281h-221q-323 0 -540 215t-217 502t217 502t540 215h221v-281h-221q-155 0 -262.5 -108.5t-120.5 -187.5z" />
    <glyph glyph-name="F" unicode="F" horiz-adv-x="1050" 
d="M476 861h483v-279h-483v-582h-359v915q0 519 566 519h276v-282h-310q-173 0 -173 -203v-88z" />
    <glyph glyph-name="G" unicode="G" horiz-adv-x="1660" 
d="M1260 589h-455v212h795q17 -51 17 -134q0 -245 -222.5 -465t-553.5 -220q-330 0 -552.5 220t-222.5 515t222.5 515t552.5 220q401 0 630 -324l-222 -165q-180 224 -408 224q-169 0 -299.5 -133t-130.5 -337q0 -205 130.5 -337.5t299.5 -132.5q168 0 289 122t130 220z" />
    <glyph glyph-name="H" unicode="H" horiz-adv-x="1365" 
d="M131 1434h359v-547h388v547h359v-1434h-359v605h-388v-605h-359v1434z" />
    <glyph glyph-name="I" unicode="I" horiz-adv-x="632" 
d="M137 1434h359v-1434h-359v1434z" />
    <glyph glyph-name="J" unicode="J" horiz-adv-x="955" 
d="M481 1434h357v-906q0 -528 -565 -528h-277v282h328q139 0 157 197v955z" />
    <glyph glyph-name="K" unicode="K" horiz-adv-x="1300" 
d="M131 1434h359v-547h96q64 0 177 241l148 306h360q-206 -534 -348 -594q96 -9 179 -118.5t83 -302.5v-419h-357v393q0 212 -149 212h-189v-605h-359v1434z" />
    <glyph glyph-name="L" unicode="L" horiz-adv-x="976" 
d="M117 1434h359v-955q17 -197 155 -197h354v-282h-293q-575 0 -575 528v906z" />
    <glyph glyph-name="M" unicode="M" horiz-adv-x="1786" 
d="M439 1459q195 0 292 -310l171 -542l186 550q95 302 270 302q163 0 196 -119l191 -1340h-350l-105 746l-166 -520q-73 -243 -226 -243t-229 243l-163 521l-111 -747h-350l201 1339q28 120 193 120z" />
    <glyph glyph-name="N" unicode="N" horiz-adv-x="1398" 
d="M365 1460q187 0 316 -289l241 -511v774h348v-1163q0 -288 -240 -288q-172 0 -296 276l-253 522v-781h-350v1159q0 301 234 301z" />
    <glyph glyph-name="O" unicode="O" horiz-adv-x="1660" 
d="M841 -18q-330 0 -552.5 220t-222.5 515t222.5 515t552.5 220q331 0 553.5 -220t222.5 -515t-222.5 -515t-553.5 -220zM1272 717q0 203 -131.5 336.5t-299.5 133.5q-169 0 -299.5 -133t-130.5 -337q0 -205 130.5 -337.5t299.5 -132.5q168 0 299.5 132.5t131.5 337.5z" />
    <glyph glyph-name="P" unicode="P" horiz-adv-x="1220" 
d="M476 0h-359v935q0 204 157.5 360t395.5 156t395.5 -156t157.5 -360q0 -205 -157.5 -360t-419.5 -155v291q95 0 156.5 60.5t61.5 163.5q0 102 -56.5 163t-137.5 61q-101 0 -147.5 -71t-46.5 -210v-878z" />
    <glyph glyph-name="Q" unicode="Q" horiz-adv-x="1660" 
d="M966 -4v-223h-249v803h249v-307q97 3 201.5 123t104.5 325q0 203 -131.5 336.5t-299.5 133.5q-169 0 -299.5 -133t-130.5 -337q0 -215 60.5 -321t160.5 -119v-272q-235 50 -400.5 233.5t-165.5 478.5t222.5 515t552.5 220q331 0 553.5 -220t222.5 -515t-205 -497.5
t-446 -223.5z" />
    <glyph glyph-name="R" unicode="R" horiz-adv-x="1255" 
d="M476 0h-359v932q0 204 157.5 360t395.5 156q216 0 347 -113t131 -295q-1 -181 -112 -268q170 -86 170 -328v-444h-359l1 387q-4 114 -46 166t-110 52h-129v282q135 0 180 42t45 112q0 58 -27.5 86.5t-100.5 28.5q-61 0 -122.5 -61t-61.5 -220v-875z" />
    <glyph glyph-name="S" unicode="S" horiz-adv-x="1190" 
d="M501 1434h557v-281h-557q-62 0 -62 -83q0 -88 124 -153l320 -164q236 -124 236 -359q0 -166 -129 -280t-346 -114h-572v282h575q59 0 86 23.5t27 88.5q0 102 -121 159l-322 164q-237 122 -237 353q0 150 114.5 257t306.5 107z" />
    <glyph glyph-name="T" unicode="T" horiz-adv-x="1106" 
d="M33 1434h1038v-281h-341v-1153h-358v1153h-339v281z" />
    <glyph glyph-name="U" unicode="U" horiz-adv-x="1342" 
d="M867 1434h359v-880q0 -262 -158 -417t-396 -155t-395.5 155t-157.5 417h-2l2 880h359v-880q0 -160 56 -220.5t138 -60.5q80 0 137.5 60.5t57.5 220.5v880z" />
    <glyph glyph-name="V" unicode="V" horiz-adv-x="1189" 
d="M-39 1434h361l275 -868l274 868h362l-411 -1288q-58 -171 -225 -171q-165 0 -227 171z" />
    <glyph glyph-name="W" unicode="W" horiz-adv-x="1903" 
d="M958 92q-80 -110 -334 -110q-221 0 -362 156t-141 359v937h338v-937q0 -104 44.5 -164t120.5 -60q74 0 118.5 60t44.5 164v937h341v-937q0 -104 44 -164t120 -60q75 0 119.5 60t44.5 164v937h339v-937q0 -203 -141 -359t-362 -156q-256 0 -334 110z" />
    <glyph glyph-name="X" unicode="X" horiz-adv-x="1373" 
d="M686 1143q256 291 669 291v-291q-246 0 -367 -119.5t-121 -306.5q0 -186 121 -306t367 -120v-291q-413 0 -669 291q-255 -291 -668 -291v291q246 0 367 120t121 306q0 187 -121 306.5t-367 119.5v291q413 0 668 -291z" />
    <glyph glyph-name="Y" unicode="Y" horiz-adv-x="1227" 
d="M794 513v-513h-359v513q-86 19 -208.5 152t-122.5 336v433h359v-433q0 -105 38.5 -164t112.5 -59t113 59t39 164v433h359v-433q0 -203 -123 -336t-208 -152z" />
    <glyph glyph-name="Z" unicode="Z" horiz-adv-x="1133" 
d="M109 1434h694q284 0 284 -201q0 -75 -144 -271l-494 -680h656v-282h-788q-284 0 -284 190q0 88 138 277l501 686h-563v281z" />
    <glyph glyph-name="bracketleft" unicode="[" horiz-adv-x="594" 
d="M105 1484h389v-143h-169v-1489h169v-144h-389v1776z" />
    <glyph glyph-name="backslash" unicode="\" horiz-adv-x="698" 
d="M-18 1484h222l476 -1649h-222z" />
    <glyph glyph-name="bracketright" unicode="]" horiz-adv-x="594" 
d="M100 1484h389v-1776h-389v144h169v1489h-169v143z" />
    <glyph glyph-name="asciicircum" unicode="^" horiz-adv-x="1236" 
d="M618 1236l-234 -269h-260l404 467h180l404 -467h-261z" />
    <glyph glyph-name="underscore" unicode="_" horiz-adv-x="1228" 
d="M1 -100h1227v-100h-1227v100z" />
    <glyph glyph-name="grave" unicode="`" horiz-adv-x="1063" 
d="M246 1520h305l290 -342h-204z" />
    <glyph glyph-name="a" unicode="a" horiz-adv-x="1231" 
d="M1139 501v-501h-321v501q0 112 -68 181t-149 69t-149 -69t-68 -181q0 -114 53 -185t114 -71q48 0 106 16l104 -212q-80 -67 -210 -67q-192 0 -340 157t-148 362q0 203 153 358t385 155t385 -155t153 -358z" />
    <glyph glyph-name="b" unicode="b" horiz-adv-x="1231" 
d="M104 501v983h320v-933h1q0 -164 58 -235t159 -71t159 71t58 185q0 111 -63 180.5t-134 69.5q-95 0 -181 -76v296q104 43 211 43q182 0 335 -155.5t153 -357.5q0 -205 -153 -362t-385 -157t-385 157t-153 362z" />
    <glyph glyph-name="c" unicode="c" horiz-adv-x="894" 
d="M61 483q0 216 149 349.5t375 133.5h234v-220h-234q-76 0 -142 -68t-66 -195t66 -195t142 -68h234v-220h-234q-226 0 -375 133.5t-149 349.5z" />
    <glyph glyph-name="d" unicode="d" horiz-adv-x="1231" 
d="M642 -18q-232 0 -385 155t-153 364q0 203 153 358t335 155q107 0 211 -43v-295q-86 75 -181 75q-71 0 -134 -69t-63 -181q0 -114 58 -185t159 -71t159 71t58 235h1v933h320v-983q0 -209 -153 -364t-385 -155z" />
    <glyph glyph-name="e" unicode="e" horiz-adv-x="1199" 
d="M382 500q0 -104 58 -180t159 -76q81 0 152.5 42.5t89.5 128.5l275 -86q-35 -125 -160 -236.5t-357 -111.5t-385 155t-153 364q0 203 153 358.5t385 155.5q220 0 346.5 -108t154.5 -221l-537 -333l-105 149l294 180q-63 70 -133 70q-101 0 -169 -69.5t-68 -181.5z" />
    <glyph glyph-name="f" unicode="f" horiz-adv-x="757" 
d="M581 1484h181v-220h-181q-73 0 -106.5 -54t-33.5 -127v-117h321v-220h-321v-746h-320v966q0 261 123 389.5t337 128.5z" />
    <glyph glyph-name="g" unicode="g" horiz-adv-x="1231" 
d="M601 -213q111 0 164 54t53 183l1 426q-1 143 -59 222t-159 79t-159 -69t-58 -182q0 -116 58 -185.5t139 -69.5q85 0 181 66v-286q-83 -43 -171 -43q-212 0 -370 155.5t-158 362.5q0 204 153 359t385 155t385 -155t153 -359v-466q0 -200 -153 -320t-385 -120
q-222 0 -405 146l106 159q158 -112 299 -112z" />
    <glyph glyph-name="h" unicode="h" horiz-adv-x="1155" 
d="M121 1484h320v-542q91 72 220 72q172 0 284 -119.5t112 -347.5v-547h-320v552q0 88 -34.5 143t-94.5 55q-77 0 -122 -60t-45 -155v-535h-320v1484z" />
    <glyph glyph-name="i" unicode="i" horiz-adv-x="562" 
d="M114 966h320v-966h-320v966zM274 1035q-79 0 -124.5 55.5t-45.5 114.5q0 61 45.5 115.5t124.5 54.5t124.5 -54.5t45.5 -115.5q0 -59 -45.5 -114.5t-124.5 -55.5z" />
    <glyph glyph-name="j" unicode="j" horiz-adv-x="562" 
d="M114 966h320v-968q0 -402 -476 -402h-165v220h198q123 0 123 182v968zM274 1035q-79 0 -124.5 55.5t-45.5 114.5q0 61 45.5 115.5t124.5 54.5t124.5 -54.5t45.5 -115.5q0 -59 -45.5 -114.5t-124.5 -55.5z" />
    <glyph glyph-name="k" unicode="k" horiz-adv-x="1093" 
d="M121 1484h320v-835h42q77 0 248 317h323q-152 -312 -240 -368q59 0 111 -74t57 -180v-344h-321v296q0 63 -19.5 98t-76.5 35h-124v-429h-320v1484z" />
    <glyph glyph-name="l" unicode="l" horiz-adv-x="564" 
d="M121 1484h320v-1484h-320v1484z" />
    <glyph glyph-name="m" unicode="m" horiz-adv-x="1641" 
d="M666 0v602q0 85 -36.5 121t-90.5 36t-91 -36t-37 -121v-602h-305v602q0 161 122 286.5t311 125.5q159 0 281 -130q121 130 280 130q189 0 311.5 -125.5t122.5 -286.5v-602h-306v602q0 85 -36.5 121t-91.5 36q-54 0 -90.5 -36t-36.5 -121v-602h-307z" />
    <glyph glyph-name="n" unicode="n" horiz-adv-x="1141" 
d="M1042 602v-602h-320v602q0 84 -41 120.5t-107 36.5t-107 -36.5t-41 -120.5v-602h-320v602q0 162 133.5 287t334.5 125t334.5 -125t133.5 -287z" />
    <glyph glyph-name="o" unicode="o" horiz-adv-x="1194" 
d="M816 500q0 112 -68 181.5t-149 69.5t-149 -69.5t-68 -181.5q0 -114 68 -183t149 -69t149 69t68 183zM61 500q0 204 153 359t385 155t385 -155t153 -359q0 -205 -153 -360t-385 -155t-385 155t-153 360z" />
    <glyph glyph-name="p" unicode="p" horiz-adv-x="1231" 
d="M642 1016q232 0 385 -156t153 -361q0 -203 -153 -363.5t-335 -160.5q-107 0 -211 43v296q86 -76 181 -76q71 0 134 74.5t63 186.5q0 114 -58 184t-159 70t-159 -70t-58 -234h-1v-853h-320v903q0 205 153 361t385 156z" />
    <glyph glyph-name="q" unicode="q" horiz-adv-x="1231" 
d="M1180 499v-903h-320v853h-1q0 164 -58 234t-159 70t-159 -70t-58 -184q0 -112 63 -186.5t134 -74.5q95 0 181 76v-296q-104 -43 -211 -43q-182 0 -335 160.5t-153 363.5q0 205 153 361t385 156t385 -156t153 -361z" />
    <glyph glyph-name="r" unicode="r" horiz-adv-x="780" 
d="M704 1014h81v-220h-121q-103 0 -164 -96.5t-61 -222.5v-475h-320v966h320v-72q136 120 265 120z" />
    <glyph glyph-name="s" unicode="s" horiz-adv-x="988" 
d="M406 966h467v-220h-417q-64 0 -64 -61q0 -63 262 -137t262 -250q0 -119 -101.5 -208.5t-256.5 -89.5h-486v220h456q58 0 58 73q0 66 -191 115t-257 116.5t-66 168.5q0 109 94 191t240 82z" />
    <glyph glyph-name="t" unicode="t" horiz-adv-x="768" 
d="M109 1277h320v-311h270v-220h-270v-337q0 -78 27 -133.5t95 -55.5h148v-220h-122q-216 0 -342 118t-126 291v868z" />
    <glyph glyph-name="u" unicode="u" horiz-adv-x="1141" 
d="M574 -34q-201 0 -334.5 125t-133.5 287v588h320v-588q0 -84 41 -120.5t107 -36.5t107 36.5t41 120.5v588h320v-588q0 -162 -133.5 -287t-334.5 -125z" />
    <glyph glyph-name="v" unicode="v" horiz-adv-x="1044" 
d="M526 -46q-180 0 -259 266l-267 746h331l195 -528l194 528h332l-267 -746q-79 -266 -259 -266z" />
    <glyph glyph-name="w" unicode="w" horiz-adv-x="1641" 
d="M973 966v-583q0 -85 36.5 -121t90.5 -36q55 0 91.5 36t36.5 121v583h306v-583q0 -161 -122.5 -286.5t-311.5 -125.5q-211 0 -280 84q-69 -84 -281 -84q-189 0 -311 125.5t-122 286.5v583h305v-583q0 -85 37 -121t91 -36t90.5 36t36.5 121v583h307z" />
    <glyph glyph-name="x" unicode="x" horiz-adv-x="994" 
d="M488 827q142 139 368 139h98v-223h-98q-76 0 -142 -66.5t-66 -175.5q0 -110 66 -195.5t142 -85.5h98v-220h-98q-226 0 -368 144q-140 -144 -368 -144h-97v220h97q78 0 143.5 85.5t65.5 195.5q0 109 -65.5 175.5t-143.5 66.5h-97v223h97q228 0 368 -139z" />
    <glyph glyph-name="y" unicode="y" horiz-adv-x="1141" 
d="M731 -11v-393h-321v396q-76 14 -176 108q-128 120 -128 282v584h320v-584q0 -84 41 -120.5t107 -36.5t107 36.5t41 120.5v584h320v-584q0 -162 -127 -282q-105 -97 -184 -111z" />
    <glyph glyph-name="z" unicode="z" horiz-adv-x="953" 
d="M79 966h569q258 0 258 -179q0 -71 -130 -221l-321 -346h451v-220h-621q-240 0 -240 168q0 104 165 273l283 305h-414v220z" />
    <glyph glyph-name="braceleft" unicode="{" horiz-adv-x="815" 
d="M100 643h65q97 0 97 247v289q0 147 81.5 226t241.5 79h125v-182h-125q-104 0 -104 -123v-297q0 -253 -119 -304q119 -53 119 -305v-297q0 -123 104 -123h125v-182h-125q-160 0 -241.5 79t-81.5 226v289q0 247 -97 247h-65v131z" />
    <glyph glyph-name="bar" unicode="|" horiz-adv-x="700" 
d="M240 1484h220v-1888h-220v1888z" />
    <glyph glyph-name="braceright" unicode="}" horiz-adv-x="815" 
d="M715 512h-65q-97 0 -97 -247v-289q0 -147 -81.5 -226t-241.5 -79h-125v182h125q104 0 104 123v297q0 252 119 305q-119 51 -119 304v297q0 123 -104 123h-125v182h125q160 0 241.5 -79t81.5 -226v-289q0 -247 97 -247h65v-131z" />
    <glyph glyph-name="asciitilde" unicode="~" horiz-adv-x="1228" 
d="M1075 966v-253q-79 -90 -151.5 -137t-147.5 -47q-79 0 -166.5 60t-159.5 60q-111 0 -298 -177v252q79 92 152 139.5t146 47.5q69 0 168.5 -61.5t157.5 -61.5q119 0 299 178z" />
    <glyph glyph-name="uni00A0" unicode="&#xa0;" horiz-adv-x="578" 
 />
    <glyph glyph-name="exclamdown" unicode="&#xa1;" horiz-adv-x="698" 
d="M511 -466h-327v979h327v-979zM349 986q83 0 131.5 -58t48.5 -122q0 -66 -49 -123t-131 -57q-83 0 -131.5 57t-48.5 123q0 64 48.5 122t131.5 58z" />
    <glyph glyph-name="cent" unicode="&#xa2;" horiz-adv-x="1236" 
d="M838 0v-404h-222v420q-130 30 -228 118q-149 133 -149 349t149 350q98 87 228 117v484h222v-468h159v-220h-234q-76 0 -142 -68t-66 -195t66 -195t142 -68h234v-220h-159z" />
    <glyph glyph-name="sterling" unicode="&#xa3;" horiz-adv-x="1236" 
d="M779 1465q117 0 296 -57l-110 -243q-118 43 -194 43q-64 0 -104.5 -53t-40.5 -188h219v-221h-219q0 -525 -1 -526h144q153 0 153 276h250q0 -496 -479 -496h-646v220h150q78 0 78 84v442h-110v221h110q0 246 138 372t366 126z" />
    <glyph glyph-name="currency" unicode="&#xa4;" horiz-adv-x="1236" 
d="M463 562q41 -40 98 -57q29 -8 57 -8q29 0 57 8q58 17 98 57t56 98q9 28 9 57t-9 57q-16 59 -56 98q-40 40 -99 57q-28 8 -57 8t-57 -9q-57 -16 -97 -56q-38 -39 -55 -97q-10 -29 -10 -59q0 -28 9 -55q15 -59 56 -99zM298 940l-142 142l96 97l142 -142q53 36 119 56
q52 16 106 16q50 0 100 -14q68 -20 122 -58l142 142l96 -97l-140 -141q37 -55 57 -122q15 -50 15 -102q0 -50 -15 -102q-20 -67 -57 -122l140 -141l-96 -97l-142 142q-54 -39 -121 -58q-50 -14 -102 -14q-50 0 -102 14q-68 19 -122 58l-142 -142l-96 97l142 141
q-39 55 -58 123q-14 51 -14 101q0 53 15 104q20 66 57 119z" />
    <glyph glyph-name="yen" unicode="&#xa5;" horiz-adv-x="1236" 
d="M332 569q-48 37 -102 96q-123 133 -123 336v433h359v-433q0 -105 38.5 -164t112.5 -59t113 59t39 164v433h359v-433q0 -203 -123 -336q-55 -59 -102 -96h151v-120h-257v-107h256v-120h-256v-222h-359v222h-257v120h257v107h-256v120h150z" />
    <glyph glyph-name="brokenbar" unicode="&#xa6;" horiz-adv-x="700" 
d="M240 1484.11h220v-811.826h-220v811.826zM240 410.109h220v-811.826h-220v811.826z" />
    <glyph glyph-name="section" unicode="&#xa7;" horiz-adv-x="988" 
d="M494 788l-58 29q-44 0 -44 -80q0 -42 102 -90l34 -16q58 0 58 73q0 41 -92 84zM820 504q96 -75 96 -188q0 -126 -101.5 -221t-256.5 -95h-486v243h456q58 0 58 57q0 59 -191 121.5t-257 134t-66 179.5q0 113 91 202q-14 11 -25 23q-66 71 -66 178q0 116 94 205.5
t240 89.5h467v-242h-437q-44 0 -44 -51q0 -66 262 -150t262 -270q0 -123 -96 -216z" />
    <glyph glyph-name="dieresis" unicode="&#xa8;" horiz-adv-x="988" 
d="M369 1230q-49 0 -84.5 35.5t-35.5 84.5t35.5 84.5t84.5 35.5t84.5 -35.5t35.5 -84.5t-35.5 -84.5t-84.5 -35.5zM702 1230q-50 0 -85 35.5t-35 84.5t35 84.5t85 35.5q49 0 84.5 -35.5t35.5 -84.5t-35.5 -84.5t-84.5 -35.5z" />
    <glyph glyph-name="copyright" unicode="&#xa9;" horiz-adv-x="1591" 
d="M787 -20q-305 0 -521 216t-216 521t216 521t521 216t521 -216t216 -521t-216 -521t-521 -216zM1424 717q0 263 -187 450t-450 187q-265 0 -451 -187t-186 -450q0 -265 186 -451t451 -186q263 0 450 186t187 451zM271 717q0 216 149 349.5t375 133.5h234v-220h-234
q-76 0 -142 -68t-66 -195t66 -195t142 -68h234v-220h-234q-226 0 -375 133.5t-149 349.5z" />
    <glyph glyph-name="ordfeminine" unicode="&#xaa;" horiz-adv-x="865" 
d="M773 1122v-328h-212v328q0 74 -45 119t-98 45q-54 0 -99 -45t-45 -119t35 -121t76 -47q31 0 70 11l68 -139q-53 -44 -138 -44q-127 0 -224.5 103t-97.5 237t101 235.5t254 101.5t254 -101.5t101 -235.5z" />
    <glyph glyph-name="guillemotleft" unicode="&#xab;" horiz-adv-x="940" 
d="M80 479l366 303v-167l-155 -136l155 -136v-167zM454 479l366 303v-167l-155 -136l155 -136v-167z" />
    <glyph glyph-name="logicalnot" unicode="&#xac;" horiz-adv-x="1228" 
d="M1131 0h-220v408h-815v220h1036z" />
    <glyph glyph-name="uni00AD" unicode="&#xad;" horiz-adv-x="676" 
d="M64 596h664v-228h-664v228z" />
    <glyph glyph-name="registered" unicode="&#xae;" horiz-adv-x="1591" 
d="M787 -20q-305 0 -521 216t-216 521t216 521t521 216t521 -216t216 -521t-216 -521t-521 -216zM1424 717q0 263 -187 450t-450 187q-265 0 -451 -187t-186 -450q0 -265 186 -451t451 -186q263 0 450 186t187 451zM655 243h-252v653q0 143 110.5 252.5t276.5 109.5
q152 0 243.5 -79t91.5 -207q0 -127 -78 -188q119 -60 119 -229v-312h-252l1 272q-3 79 -32 115.5t-77 36.5h-91v198q95 0 126.5 29.5t31.5 78.5q0 40 -19 60t-71 20q-42 0 -85 -42.5t-43 -153.5v-614z" />
    <glyph glyph-name="macron" unicode="&#xaf;" horiz-adv-x="1024" 
d="M212 1271v160h600v-160h-600z" />
    <glyph glyph-name="degree" unicode="&#xb0;" horiz-adv-x="786" 
d="M394 1309q-83 0 -142 -58.5t-59 -142.5q0 -83 58.5 -141t142.5 -58q83 0 141 58t58 141q0 84 -58.5 142.5t-140.5 58.5zM394 1442q138 0 235 -97.5t97 -235.5q0 -137 -98 -235t-236 -98q-140 0 -236 97t-96 236t97.5 236t236.5 97z" />
    <glyph glyph-name="plusminus" unicode="&#xb1;" horiz-adv-x="1236" 
d="M488 220v188h-408v220h408v408h220v-408h408v-220h-408v-188h408v-220h-1036v220h408z" />
    <glyph glyph-name="uni00B2" unicode="&#xb2;" horiz-adv-x="899" 
d="M462 1444q187 0 282.5 -88t95.5 -218q0 -155 -151 -262l-186 -129h332v-214h-561q-196 0 -196 134q0 80 181 194l230 157q80 48 80 120q0 52 -34 79.5t-73 27.5q-37 0 -67.5 -25.5t-34.5 -82.5q0 -51 71 -87l-197 -142q-144 94 -144 230q0 133 110 219.5t262 86.5z" />
    <glyph glyph-name="uni00B3" unicode="&#xb3;" horiz-adv-x="899" 
d="M109 1434h445q218 0 218 -135q0 -85 -141 -187q49 -11 122.5 -83.5t73.5 -198.5q0 -127 -94.5 -211.5t-278.5 -84.5h-367v214h342q51 0 79 23t28 76q0 50 -28 84.5t-67 34.5h-232v35l268 224h-368v209z" />
    <glyph glyph-name="acute" unicode="&#xb4;" horiz-adv-x="827" 
d="M480 1178h-204l290 342h305z" />
    <glyph glyph-name="mu" unicode="&#xb5;" horiz-adv-x="1141" 
d="M163 183q-57 89 -57 195v588h320v-588q0 -84 41 -120.5t107 -36.5t107 36.5t41 120.5v588h320v-588q0 -162 -133.5 -287t-334.5 -125q-124 0 -222 47l-69 -417h-267z" />
    <glyph glyph-name="paragraph" unicode="&#xb6;" horiz-adv-x="1236" 
d="M1093 1435v-83h-101v-1352h-147v1352h-96v-1352h-150v610q-206 9 -326 121t-120 291q0 186 127.5 299.5t337.5 113.5h475z" />
    <glyph glyph-name="periodcentered" unicode="&#xb7;" horiz-adv-x="508" 
d="M298 597q-50 0 -85 35t-35 85t35 85t85 35q49 0 84.5 -35t35.5 -85t-35.5 -85t-84.5 -35z" />
    <glyph glyph-name="cedilla" unicode="&#xb8;" horiz-adv-x="1024" 
d="M360 -277q65 -32 142 -32q46 0 69.5 21.5t23.5 46.5q0 35 -22 57.5t-47 22.5h-54v224h114v-149q86 0 134 -40.5t48 -113.5q0 -76 -58.5 -120.5t-160.5 -44.5q-109 0 -189 32v96z" />
    <glyph glyph-name="uni00B9" unicode="&#xb9;" horiz-adv-x="899" 
d="M244 1434h408v-900h-285v691h-183q60 134 60 209z" />
    <glyph glyph-name="ordmasculine" unicode="&#xba;" horiz-adv-x="832" 
d="M560 1120q0 74 -45 120t-99 46t-99 -46t-45 -120q0 -76 45 -121.5t99 -45.5t99 45.5t45 121.5zM60 1120q0 135 101 237.5t255 102.5t255 -102.5t101 -237.5q0 -136 -101 -238.5t-255 -102.5t-255 102.5t-101 238.5z" />
    <glyph glyph-name="guillemotright" unicode="&#xbb;" horiz-adv-x="940" 
d="M494 176v167l155 136l-155 136v167l366 -303zM120 176v167l155 136l-155 136v167l366 -303z" />
    <glyph glyph-name="onequarter" unicode="&#xbc;" horiz-adv-x="2046" 
d="M244 1434h408v-900h-285v691h-183q60 134 60 209zM633 -30l640 1464h134l-638 -1464h-136zM1866 902v-505h133v-209h-133v-186h-279v186h-221q-162 0 -162 125q0 55 72 159l267 430h238l-300 -505h106v90l248 415h31z" />
    <glyph glyph-name="onehalf" unicode="&#xbd;" horiz-adv-x="2046" 
d="M244 1434h408v-900h-285v691h-183q60 134 60 209zM633 -30l640 1464h134l-638 -1464h-136zM1609 913q187 0 282.5 -88t95.5 -218q0 -155 -151 -262l-186 -129h332v-214h-561q-196 0 -196 134q0 80 181 194l230 157q80 48 80 120q0 52 -34 79.5t-73 27.5
q-37 0 -67.5 -25.5t-34.5 -82.5q0 -51 71 -87l-197 -142q-144 94 -144 230q0 133 110 219.5t262 86.5z" />
    <glyph glyph-name="threequarters" unicode="&#xbe;" horiz-adv-x="2046" 
d="M109 1434h445q218 0 218 -135q0 -85 -141 -187q49 -11 122.5 -83.5t73.5 -198.5q0 -127 -94.5 -211.5t-278.5 -84.5h-367v214h342q51 0 79 23t28 76q0 50 -28 84.5t-67 34.5h-232v35l268 224h-368v209zM633 -30l640 1464h134l-638 -1464h-136zM1866 902v-505h133v-209
h-133v-186h-279v186h-221q-162 0 -162 125q0 55 72 159l267 430h238l-300 -505h106v90l248 415h31z" />
    <glyph glyph-name="questiondown" unicode="&#xbf;" horiz-adv-x="1114" 
d="M551 -466q-208 0 -338.5 136t-130.5 333q0 160 127 275t228 117v181h328v-417h-192q-69 0 -111.5 -52t-42.5 -130q0 -90 41 -131t115 -41q66 0 107 41.5t41 198.5h329q0 -252 -148.5 -381.5t-352.5 -129.5zM601 986q83 0 131.5 -58t48.5 -122q0 -66 -49 -123t-131 -57
q-83 0 -131.5 57t-48.5 123q0 64 48.5 122t131.5 58z" />
    <glyph glyph-name="Agrave" unicode="&#xc0;" horiz-adv-x="1339" 
d="M1223 932v-932h-359v605h-317v282h317v45q0 102 -61.5 163t-132.5 61t-132.5 -61t-61.5 -220v-875h-359v932q0 204 157.5 360t395.5 156t395.5 -156t157.5 -360zM273 1988h305l290 -342h-204z" />
    <glyph glyph-name="Aacute" unicode="&#xc1;" horiz-adv-x="1339" 
d="M1223 932v-932h-359v605h-317v282h317v45q0 102 -61.5 163t-132.5 61t-132.5 -61t-61.5 -220v-875h-359v932q0 204 157.5 360t395.5 156t395.5 -156t157.5 -360zM798 1646h-204l290 342h305z" />
    <glyph glyph-name="Acircumflex" unicode="&#xc2;" horiz-adv-x="1339" 
d="M1223 932v-932h-359v605h-317v282h317v45q0 102 -61.5 163t-132.5 61t-132.5 -61t-61.5 -220v-875h-359v932q0 204 157.5 360t395.5 156t395.5 -156t157.5 -360zM650 1789l-151 -143h-264l319 342h191l319 -342h-264z" />
    <glyph glyph-name="Atilde" unicode="&#xc3;" horiz-adv-x="1339" 
d="M1223 932v-932h-359v605h-317v282h317v45q0 102 -61.5 163t-132.5 61t-132.5 -61t-61.5 -220v-875h-359v932q0 204 157.5 360t395.5 156t395.5 -156t157.5 -360zM1000 1958q-23 -111 -79 -185.5t-145 -74.5q-51 0 -119.5 34.5t-111.5 34.5q-45 0 -70 -24t-38 -65h-97
q22 141 78.5 200.5t148.5 59.5q41 0 110.5 -37.5t113.5 -37.5q46 0 71 30t41 65h97z" />
    <glyph glyph-name="Adieresis" unicode="&#xc4;" horiz-adv-x="1339" 
d="M1223 932v-932h-359v605h-317v282h317v45q0 102 -61.5 163t-132.5 61t-132.5 -61t-61.5 -220v-875h-359v932q0 204 157.5 360t395.5 156t395.5 -156t157.5 -360zM504 1698q-49 0 -84.5 35.5t-35.5 84.5t35.5 84.5t84.5 35.5t84.5 -35.5t35.5 -84.5t-35.5 -84.5
t-84.5 -35.5zM837 1698q-50 0 -85 35.5t-35 84.5t35 84.5t85 35.5q49 0 84.5 -35.5t35.5 -84.5t-35.5 -84.5t-84.5 -35.5z" />
    <glyph glyph-name="Aring" unicode="&#xc5;" horiz-adv-x="1339" 
d="M1223 932v-932h-359v605h-317v282h317v45q0 102 -61.5 163t-132.5 61t-132.5 -61t-61.5 -220v-875h-359v932q0 204 157.5 360t395.5 156t395.5 -156t157.5 -360zM589 1770q0 -34 23 -57t57 -23t57 23t23 57q0 32 -23.5 56t-56.5 24t-56.5 -24t-23.5 -56zM481 1770
q0 80 54.5 135t133.5 55q81 0 136.5 -55.5t55.5 -134.5q0 -80 -55.5 -135t-136.5 -55q-79 0 -133.5 55t-54.5 135z" />
    <glyph glyph-name="AE" unicode="&#xc6;" horiz-adv-x="1943" 
d="M1223 96v-96h-359v577h-317v280h317v75q0 102 -61.5 163t-132.5 61t-132.5 -61t-61.5 -220v-875h-359v932q0 204 157.5 360t395.5 156t396 -156l37 -40q208 182 505 182h221v-281h-221q-155 0 -262.5 -108.5t-120.5 -187.5h604v-280h-604q12 -78 120 -187t263 -109h221
v-281h-221q-216 0 -385 96z" />
    <glyph glyph-name="Ccedilla" unicode="&#xc7;" horiz-adv-x="1139" 
d="M573 38q-162 52 -288 177q-217 215 -217 502t217 502t540 215h237v-291h-237q-156 0 -277 -119.5t-121 -306.5q0 -186 121 -306t277 -120h237v-291h-237q-72 0 -138 11v-97q86 0 134 -40.5t48 -113.5q0 -76 -58.5 -120.5t-160.5 -44.5q-109 0 -189 32v96q65 -32 142 -32
q46 0 69.5 21.5t23.5 46.5q0 35 -22 57.5t-47 22.5h-54v199z" />
    <glyph glyph-name="Egrave" unicode="&#xc8;" horiz-adv-x="1160" 
d="M442 857h604v-280h-604q12 -78 120 -187t263 -109h221v-281h-221q-323 0 -540 215t-217 502t217 502t540 215h221v-281h-221q-155 0 -262.5 -108.5t-120.5 -187.5zM248 1988h305l290 -342h-204z" />
    <glyph glyph-name="Eacute" unicode="&#xc9;" horiz-adv-x="1160" 
d="M442 857h604v-280h-604q12 -78 120 -187t263 -109h221v-281h-221q-323 0 -540 215t-217 502t217 502t540 215h221v-281h-221q-155 0 -262.5 -108.5t-120.5 -187.5zM691 1646h-204l290 342h305z" />
    <glyph glyph-name="Ecircumflex" unicode="&#xca;" horiz-adv-x="1160" 
d="M442 857h604v-280h-604q12 -78 120 -187t263 -109h221v-281h-221q-323 0 -540 215t-217 502t217 502t540 215h221v-281h-221q-155 0 -262.5 -108.5t-120.5 -187.5zM666 1789l-151 -143h-264l319 342h191l319 -342h-264z" />
    <glyph glyph-name="Edieresis" unicode="&#xcb;" horiz-adv-x="1160" 
d="M442 857h604v-280h-604q12 -78 120 -187t263 -109h221v-281h-221q-323 0 -540 215t-217 502t217 502t540 215h221v-281h-221q-155 0 -262.5 -108.5t-120.5 -187.5zM499 1698q-49 0 -84.5 35.5t-35.5 84.5t35.5 84.5t84.5 35.5t84.5 -35.5t35.5 -84.5t-35.5 -84.5
t-84.5 -35.5zM832 1698q-50 0 -85 35.5t-35 84.5t35 84.5t85 35.5q49 0 84.5 -35.5t35.5 -84.5t-35.5 -84.5t-84.5 -35.5z" />
    <glyph glyph-name="Igrave" unicode="&#xcc;" horiz-adv-x="632" 
d="M137 1434h359v-1434h-359v1434zM-98 1988h305l290 -342h-204z" />
    <glyph glyph-name="Iacute" unicode="&#xcd;" horiz-adv-x="632" 
d="M137 1434h359v-1434h-359v1434zM344 1646h-204l290 342h305z" />
    <glyph glyph-name="Icircumflex" unicode="&#xce;" horiz-adv-x="632" 
d="M137 1434h359v-1434h-359v1434zM319 1789l-151 -143h-264l319 342h191l319 -342h-264z" />
    <glyph glyph-name="Idieresis" unicode="&#xcf;" horiz-adv-x="632" 
d="M137 1434h359v-1434h-359v1434zM152 1698q-49 0 -84.5 35.5t-35.5 84.5t35.5 84.5t84.5 35.5t84.5 -35.5t35.5 -84.5t-35.5 -84.5t-84.5 -35.5zM485 1698q-50 0 -85 35.5t-35 84.5t35 84.5t85 35.5q49 0 84.5 -35.5t35.5 -84.5t-35.5 -84.5t-84.5 -35.5z" />
    <glyph glyph-name="Eth" unicode="&#xd0;" horiz-adv-x="1386" 
d="M131 777v657h434q323 0 540 -215t217 -502t-217 -502t-513 -215v291q129 0 250 120t121 306q0 187 -121 306.5t-277 119.5h-75v-366h244v-120h-244v-657h-359v657h-114v120h114z" />
    <glyph glyph-name="Ntilde" unicode="&#xd1;" horiz-adv-x="1398" 
d="M365 1460q187 0 316 -289l241 -511v774h348v-1163q0 -288 -240 -288q-172 0 -296 276l-253 522v-781h-350v1159q0 301 234 301zM1031 1958q-23 -111 -79 -185.5t-145 -74.5q-51 0 -119.5 34.5t-111.5 34.5q-45 0 -70 -24t-38 -65h-97q22 141 78.5 200.5t148.5 59.5
q41 0 110.5 -37.5t113.5 -37.5q46 0 71 30t41 65h97z" />
    <glyph glyph-name="Ograve" unicode="&#xd2;" horiz-adv-x="1660" 
d="M841 -18q-330 0 -552.5 220t-222.5 515t222.5 515t552.5 220q331 0 553.5 -220t222.5 -515t-222.5 -515t-553.5 -220zM1272 717q0 203 -131.5 336.5t-299.5 133.5q-169 0 -299.5 -133t-130.5 -337q0 -205 130.5 -337.5t299.5 -132.5q168 0 299.5 132.5t131.5 337.5z
M425 1988h305l290 -342h-204z" />
    <glyph glyph-name="Oacute" unicode="&#xd3;" horiz-adv-x="1660" 
d="M841 -18q-330 0 -552.5 220t-222.5 515t222.5 515t552.5 220q331 0 553.5 -220t222.5 -515t-222.5 -515t-553.5 -220zM1272 717q0 203 -131.5 336.5t-299.5 133.5q-169 0 -299.5 -133t-130.5 -337q0 -205 130.5 -337.5t299.5 -132.5q168 0 299.5 132.5t131.5 337.5z
M867 1646h-204l290 342h305z" />
    <glyph glyph-name="Ocircumflex" unicode="&#xd4;" horiz-adv-x="1660" 
d="M841 -18q-330 0 -552.5 220t-222.5 515t222.5 515t552.5 220q331 0 553.5 -220t222.5 -515t-222.5 -515t-553.5 -220zM1272 717q0 203 -131.5 336.5t-299.5 133.5q-169 0 -299.5 -133t-130.5 -337q0 -205 130.5 -337.5t299.5 -132.5q168 0 299.5 132.5t131.5 337.5z
M842 1789l-151 -143h-264l319 342h191l319 -342h-264z" />
    <glyph glyph-name="Otilde" unicode="&#xd5;" horiz-adv-x="1660" 
d="M841 -18q-330 0 -552.5 220t-222.5 515t222.5 515t552.5 220q331 0 553.5 -220t222.5 -515t-222.5 -515t-553.5 -220zM1272 717q0 203 -131.5 336.5t-299.5 133.5q-169 0 -299.5 -133t-130.5 -337q0 -205 130.5 -337.5t299.5 -132.5q168 0 299.5 132.5t131.5 337.5z
M1172 1958q-23 -111 -79 -185.5t-145 -74.5q-51 0 -119.5 34.5t-111.5 34.5q-45 0 -70 -24t-38 -65h-97q22 141 78.5 200.5t148.5 59.5q41 0 110.5 -37.5t113.5 -37.5q46 0 71 30t41 65h97z" />
    <glyph glyph-name="Odieresis" unicode="&#xd6;" horiz-adv-x="1660" 
d="M841 -18q-330 0 -552.5 220t-222.5 515t222.5 515t552.5 220q331 0 553.5 -220t222.5 -515t-222.5 -515t-553.5 -220zM1272 717q0 203 -131.5 336.5t-299.5 133.5q-169 0 -299.5 -133t-130.5 -337q0 -205 130.5 -337.5t299.5 -132.5q168 0 299.5 132.5t131.5 337.5z
M675 1698q-49 0 -84.5 35.5t-35.5 84.5t35.5 84.5t84.5 35.5t84.5 -35.5t35.5 -84.5t-35.5 -84.5t-84.5 -35.5zM1008 1698q-50 0 -85 35.5t-35 84.5t35 84.5t85 35.5q49 0 84.5 -35.5t35.5 -84.5t-35.5 -84.5t-84.5 -35.5z" />
    <glyph glyph-name="multiply" unicode="&#xd7;" horiz-adv-x="1236" 
d="M754 518l288 -288l-156 -156l-288 288l-288 -288l-156 156l288 288l-288 288l156 156l288 -288l288 288l156 -156z" />
    <glyph glyph-name="Oslash" unicode="&#xd8;" horiz-adv-x="1660" 
d="M804 249q18 -2 37 -2q168 0 299.5 132.5t131.5 337.5q0 203 -131 337q-45 45 -94 75zM646 298l245 886q-25 3 -50 3q-169 0 -299.5 -133t-130.5 -337q0 -205 131 -337q49 -51 104 -82zM1124 1405q151 -55 271 -173q222 -220 222 -515t-222.5 -515t-553.5 -220
q-56 0 -109 6l-42 -153h-172l52 190q-157 54 -281 177q-223 220 -223 515t222.5 515t552.5 220q63 0 122 -8l31 114h172z" />
    <glyph glyph-name="Ugrave" unicode="&#xd9;" horiz-adv-x="1342" 
d="M867 1434h359v-880q0 -262 -158 -417t-396 -155t-395.5 155t-157.5 417h-2l2 880h359v-880q0 -160 56 -220.5t138 -60.5q80 0 137.5 60.5t57.5 220.5v880zM255 1988h305l290 -342h-204z" />
    <glyph glyph-name="Uacute" unicode="&#xda;" horiz-adv-x="1342" 
d="M867 1434h359v-880q0 -262 -158 -417t-396 -155t-395.5 155t-157.5 417h-2l2 880h359v-880q0 -160 56 -220.5t138 -60.5q80 0 137.5 60.5t57.5 220.5v880zM697 1646h-204l290 342h305z" />
    <glyph glyph-name="Ucircumflex" unicode="&#xdb;" horiz-adv-x="1342" 
d="M867 1434h359v-880q0 -262 -158 -417t-396 -155t-395.5 155t-157.5 417h-2l2 880h359v-880q0 -160 56 -220.5t138 -60.5q80 0 137.5 60.5t57.5 220.5v880zM672 1789l-151 -143h-264l319 342h191l319 -342h-264z" />
    <glyph glyph-name="Udieresis" unicode="&#xdc;" horiz-adv-x="1342" 
d="M867 1434h359v-880q0 -262 -158 -417t-396 -155t-395.5 155t-157.5 417h-2l2 880h359v-880q0 -160 56 -220.5t138 -60.5q80 0 137.5 60.5t57.5 220.5v880zM505 1698q-49 0 -84.5 35.5t-35.5 84.5t35.5 84.5t84.5 35.5t84.5 -35.5t35.5 -84.5t-35.5 -84.5t-84.5 -35.5z
M838 1698q-50 0 -85 35.5t-35 84.5t35 84.5t85 35.5q49 0 84.5 -35.5t35.5 -84.5t-35.5 -84.5t-84.5 -35.5z" />
    <glyph glyph-name="Yacute" unicode="&#xdd;" horiz-adv-x="1227" 
d="M794 513v-513h-359v513q-86 19 -208.5 152t-122.5 336v433h359v-433q0 -105 38.5 -164t112.5 -59t113 59t39 164v433h359v-433q0 -203 -123 -336t-208 -152zM640 1646h-204l290 342h305z" />
    <glyph glyph-name="Thorn" unicode="&#xde;" horiz-adv-x="1220" 
d="M476 -200h-359v1634h359v-213q89 30 194 30q238 0 395.5 -156t157.5 -360q0 -205 -157.5 -360t-419.5 -155v291q95 0 156.5 60.5t61.5 163.5q0 102 -56.5 163t-137.5 61q-101 0 -147 -71q-47 -70 -47 -207v-881z" />
    <glyph glyph-name="germandbls" unicode="&#xdf;" horiz-adv-x="1267" 
d="M1148 1037q-1 -178 -112 -265q170 -86 170 -328q0 -221 -166.5 -332.5t-320.5 -111.5h-156v282h129q87 0 120.5 31.5t33.5 121.5q0 94 -43 132t-111 38h-129v282h68q77 0 117 42t40 112q0 71 -32.5 93t-85.5 22q-71 0 -132.5 -61t-61.5 -220v-1279h-359v1336
q0 204 157.5 360t395.5 156q216 0 347 -113t131 -298z" />
    <glyph glyph-name="agrave" unicode="&#xe0;" horiz-adv-x="1231" 
d="M1139 501v-501h-321v501q0 112 -68 181t-149 69t-149 -69t-68 -181q0 -114 53 -185t114 -71q48 0 106 16l104 -212q-80 -67 -210 -67q-192 0 -340 157t-148 362q0 203 153 358t385 155t385 -155t153 -358zM206 1520h305l290 -342h-204z" />
    <glyph glyph-name="aacute" unicode="&#xe1;" horiz-adv-x="1231" 
d="M1139 501v-501h-321v501q0 112 -68 181t-149 69t-149 -69t-68 -181q0 -114 53 -185t114 -71q48 0 106 16l104 -212q-80 -67 -210 -67q-192 0 -340 157t-148 362q0 203 153 358t385 155t385 -155t153 -358zM729 1178h-204l290 342h305z" />
    <glyph glyph-name="acircumflex" unicode="&#xe2;" horiz-adv-x="1231" 
d="M1139 501v-501h-321v501q0 112 -68 181t-149 69t-149 -69t-68 -181q0 -114 53 -185t114 -71q48 0 106 16l104 -212q-80 -67 -210 -67q-192 0 -340 157t-148 362q0 203 153 358t385 155t385 -155t153 -358zM602 1321l-151 -143h-264l319 342h191l319 -342h-264z" />
    <glyph glyph-name="atilde" unicode="&#xe3;" horiz-adv-x="1231" 
d="M1139 501v-501h-321v501q0 112 -68 181t-149 69t-149 -69t-68 -181q0 -114 53 -185t114 -71q48 0 106 16l104 -212q-80 -67 -210 -67q-192 0 -340 157t-148 362q0 203 153 358t385 155t385 -155t153 -358zM931 1490q-23 -111 -79 -185.5t-145 -74.5q-51 0 -119.5 34.5
t-111.5 34.5q-45 0 -70 -24t-38 -65h-97q22 141 78.5 200.5t148.5 59.5q41 0 110.5 -37.5t113.5 -37.5q46 0 71 30t41 65h97z" />
    <glyph glyph-name="adieresis" unicode="&#xe4;" horiz-adv-x="1231" 
d="M1139 501v-501h-321v501q0 112 -68 181t-149 69t-149 -69t-68 -181q0 -114 53 -185t114 -71q48 0 106 16l104 -212q-80 -67 -210 -67q-192 0 -340 157t-148 362q0 203 153 358t385 155t385 -155t153 -358zM435 1230q-49 0 -84.5 35.5t-35.5 84.5t35.5 84.5t84.5 35.5
t84.5 -35.5t35.5 -84.5t-35.5 -84.5t-84.5 -35.5zM768 1230q-50 0 -85 35.5t-35 84.5t35 84.5t85 35.5q49 0 84.5 -35.5t35.5 -84.5t-35.5 -84.5t-84.5 -35.5z" />
    <glyph glyph-name="aring" unicode="&#xe5;" horiz-adv-x="1231" 
d="M1139 501v-501h-321v501q0 112 -68 181t-149 69t-149 -69t-68 -181q0 -114 53 -185t114 -71q48 0 106 16l104 -212q-80 -67 -210 -67q-192 0 -340 157t-148 362q0 203 153 358t385 155t385 -155t153 -358zM520 1351q0 -34 23 -57t57 -23t57 23t23 57q0 32 -23.5 56
t-56.5 24t-56.5 -24t-23.5 -56zM412 1351q0 80 54.5 135t133.5 55q81 0 136.5 -55.5t55.5 -134.5q0 -80 -55.5 -135t-136.5 -55q-79 0 -133.5 55t-54.5 135z" />
    <glyph glyph-name="ae" unicode="&#xe6;" horiz-adv-x="1957" 
d="M1139 22v-22h-321v501q0 112 -68 181t-149 69t-149 -69t-68 -181q0 -114 53 -185t114 -71q48 0 106 16l104 -212q-80 -67 -210 -67q-192 0 -340 157t-148 362q0 203 153 358t385 155q227 0 378 -148q151 148 378 148q220 0 346.5 -108t154.5 -221l-537 -333l-105 149
l294 180q-63 70 -133 70q-101 0 -169 -69.5t-68 -181.5q0 -104 58 -180t159 -76q81 0 152.5 42.5t89.5 128.5l275 -86q-35 -125 -160 -236.5t-357 -111.5q-119 0 -218 41z" />
    <glyph glyph-name="ccedilla" unicode="&#xe7;" horiz-adv-x="894" 
d="M428 18q-124 31 -218 116q-149 133 -149 349t149 349.5t375 133.5h234v-220h-234q-76 0 -142 -68t-66 -195t66 -195t142 -68h234v-220h-234q-22 0 -43 1v-87q86 0 134 -40.5t48 -113.5q0 -76 -58.5 -120.5t-160.5 -44.5q-109 0 -189 32v96q65 -32 142 -32q46 0 69.5 21.5
t23.5 46.5q0 35 -22 57.5t-47 22.5h-54v179z" />
    <glyph glyph-name="egrave" unicode="&#xe8;" horiz-adv-x="1199" 
d="M382 500q0 -104 58 -180t159 -76q81 0 152.5 42.5t89.5 128.5l275 -86q-35 -125 -160 -236.5t-357 -111.5t-385 155t-153 364q0 203 153 358.5t385 155.5q220 0 346.5 -108t154.5 -221l-537 -333l-105 149l294 180q-63 70 -133 70q-101 0 -169 -69.5t-68 -181.5z
M174 1520h305l290 -342h-204z" />
    <glyph glyph-name="eacute" unicode="&#xe9;" horiz-adv-x="1199" 
d="M382 500q0 -104 58 -180t159 -76q81 0 152.5 42.5t89.5 128.5l275 -86q-35 -125 -160 -236.5t-357 -111.5t-385 155t-153 364q0 203 153 358.5t385 155.5q220 0 346.5 -108t154.5 -221l-537 -333l-105 149l294 180q-63 70 -133 70q-101 0 -169 -69.5t-68 -181.5z
M614 1178h-204l290 342h305z" />
    <glyph glyph-name="ecircumflex" unicode="&#xea;" horiz-adv-x="1199" 
d="M382 500q0 -104 58 -180t159 -76q81 0 152.5 42.5t89.5 128.5l275 -86q-35 -125 -160 -236.5t-357 -111.5t-385 155t-153 364q0 203 153 358.5t385 155.5q220 0 346.5 -108t154.5 -221l-537 -333l-105 149l294 180q-63 70 -133 70q-101 0 -169 -69.5t-68 -181.5z
M589 1321l-151 -143h-264l319 342h191l319 -342h-264z" />
    <glyph glyph-name="edieresis" unicode="&#xeb;" horiz-adv-x="1199" 
d="M382 500q0 -104 58 -180t159 -76q81 0 152.5 42.5t89.5 128.5l275 -86q-35 -125 -160 -236.5t-357 -111.5t-385 155t-153 364q0 203 153 358.5t385 155.5q220 0 346.5 -108t154.5 -221l-537 -333l-105 149l294 180q-63 70 -133 70q-101 0 -169 -69.5t-68 -181.5z
M422 1230q-49 0 -84.5 35.5t-35.5 84.5t35.5 84.5t84.5 35.5t84.5 -35.5t35.5 -84.5t-35.5 -84.5t-84.5 -35.5zM755 1230q-50 0 -85 35.5t-35 84.5t35 84.5t85 35.5q49 0 84.5 -35.5t35.5 -84.5t-35.5 -84.5t-84.5 -35.5z" />
    <glyph glyph-name="igrave" unicode="&#xec;" horiz-adv-x="562" 
d="M114 966h320v-966h-320v966zM-141 1520h305l290 -342h-204z" />
    <glyph glyph-name="iacute" unicode="&#xed;" horiz-adv-x="562" 
d="M114 966h320v-966h-320v966zM302 1178h-204l290 342h305z" />
    <glyph glyph-name="icircumflex" unicode="&#xee;" horiz-adv-x="562" 
d="M114 966h320v-966h-320v966zM277 1321l-151 -143h-264l319 342h191l319 -342h-264z" />
    <glyph glyph-name="idieresis" unicode="&#xef;" horiz-adv-x="562" 
d="M114 966h320v-966h-320v966zM110 1230q-49 0 -84.5 35.5t-35.5 84.5t35.5 84.5t84.5 35.5t84.5 -35.5t35.5 -84.5t-35.5 -84.5t-84.5 -35.5zM443 1230q-50 0 -85 35.5t-35 84.5t35 84.5t85 35.5q49 0 84.5 -35.5t35.5 -84.5t-35.5 -84.5t-84.5 -35.5z" />
    <glyph glyph-name="eth" unicode="&#xf0;" horiz-adv-x="1228" 
d="M739 1256l351 -482q86 -127 86 -277q0 -205 -157 -360t-396 -155q-238 0 -395.5 155t-157.5 360q0 204 130 333t241 154l190 -272q-99 0 -151 -61t-52 -154q0 -103 62 -164t133 -61t132.5 61t61.5 164q0 81 -44 145l-318 436l-172 -108l-64 102l165 104l-188 258h414
l58 -80l127 80l71 -98z" />
    <glyph glyph-name="ntilde" unicode="&#xf1;" horiz-adv-x="1141" 
d="M1042 602v-602h-320v602q0 84 -41 120.5t-107 36.5t-107 -36.5t-41 -120.5v-602h-320v602q0 162 133.5 287t334.5 125t334.5 -125t133.5 -287zM904 1490q-23 -111 -79 -185.5t-145 -74.5q-51 0 -119.5 34.5t-111.5 34.5q-45 0 -70 -24t-38 -65h-97q22 141 78.5 200.5
t148.5 59.5q41 0 110.5 -37.5t113.5 -37.5q46 0 71 30t41 65h97z" />
    <glyph glyph-name="ograve" unicode="&#xf2;" horiz-adv-x="1194" 
d="M816 500q0 112 -68 181.5t-149 69.5t-149 -69.5t-68 -181.5q0 -114 68 -183t149 -69t149 69t68 183zM61 500q0 204 153 359t385 155t385 -155t153 -359q0 -205 -153 -360t-385 -155t-385 155t-153 360zM184 1520h305l290 -342h-204z" />
    <glyph glyph-name="oacute" unicode="&#xf3;" horiz-adv-x="1194" 
d="M816 500q0 112 -68 181.5t-149 69.5t-149 -69.5t-68 -181.5q0 -114 68 -183t149 -69t149 69t68 183zM61 500q0 204 153 359t385 155t385 -155t153 -359q0 -205 -153 -360t-385 -155t-385 155t-153 360zM625 1178h-204l290 342h305z" />
    <glyph glyph-name="ocircumflex" unicode="&#xf4;" horiz-adv-x="1194" 
d="M816 500q0 112 -68 181.5t-149 69.5t-149 -69.5t-68 -181.5q0 -114 68 -183t149 -69t149 69t68 183zM61 500q0 204 153 359t385 155t385 -155t153 -359q0 -205 -153 -360t-385 -155t-385 155t-153 360zM600 1321l-151 -143h-264l319 342h191l319 -342h-264z" />
    <glyph glyph-name="otilde" unicode="&#xf5;" horiz-adv-x="1194" 
d="M816 500q0 112 -68 181.5t-149 69.5t-149 -69.5t-68 -181.5q0 -114 68 -183t149 -69t149 69t68 183zM61 500q0 204 153 359t385 155t385 -155t153 -359q0 -205 -153 -360t-385 -155t-385 155t-153 360zM929 1490q-23 -111 -79 -185.5t-145 -74.5q-51 0 -119.5 34.5
t-111.5 34.5q-45 0 -70 -24t-38 -65h-97q22 141 78.5 200.5t148.5 59.5q41 0 110.5 -37.5t113.5 -37.5q46 0 71 30t41 65h97z" />
    <glyph glyph-name="odieresis" unicode="&#xf6;" horiz-adv-x="1194" 
d="M816 500q0 112 -68 181.5t-149 69.5t-149 -69.5t-68 -181.5q0 -114 68 -183t149 -69t149 69t68 183zM61 500q0 204 153 359t385 155t385 -155t153 -359q0 -205 -153 -360t-385 -155t-385 155t-153 360zM433 1230q-49 0 -84.5 35.5t-35.5 84.5t35.5 84.5t84.5 35.5
t84.5 -35.5t35.5 -84.5t-35.5 -84.5t-84.5 -35.5zM766 1230q-50 0 -85 35.5t-35 84.5t35 84.5t85 35.5q49 0 84.5 -35.5t35.5 -84.5t-35.5 -84.5t-84.5 -35.5z" />
    <glyph glyph-name="divide" unicode="&#xf7;" horiz-adv-x="1236" 
d="M80 408v220h1036v-220h-1036zM598 698q-83 0 -131.5 58t-48.5 122t48.5 122t131.5 58t131.5 -58t48.5 -122t-48.5 -122t-131.5 -58zM599 -22q-83 0 -131.5 58t-48.5 122t48.5 122t131.5 58t131.5 -58t48.5 -122t-48.5 -122t-131.5 -58z" />
    <glyph glyph-name="oslash" unicode="&#xf8;" horiz-adv-x="1194" 
d="M351 40q-75 37 -137 100q-153 155 -153 360q0 204 153 359t385 155q48 0 93 -7l58 164h170l-75 -211q76 -38 139 -101q153 -155 153 -359q0 -205 -153 -360t-385 -155q-50 0 -95 7l-56 -157h-169zM747 682l-153 -434h5q81 0 149 69t68 183q0 112 -68 182h-1zM449 318
l153 433h-3q-81 0 -149 -69.5t-68 -181.5q0 -113 67 -182z" />
    <glyph glyph-name="ugrave" unicode="&#xf9;" horiz-adv-x="1141" 
d="M574 -34q-201 0 -334.5 125t-133.5 287v588h320v-588q0 -84 41 -120.5t107 -36.5t107 36.5t41 120.5v588h320v-588q0 -162 -133.5 -287t-334.5 -125zM159 1520h305l290 -342h-204z" />
    <glyph glyph-name="uacute" unicode="&#xfa;" horiz-adv-x="1141" 
d="M574 -34q-201 0 -334.5 125t-133.5 287v588h320v-588q0 -84 41 -120.5t107 -36.5t107 36.5t41 120.5v588h320v-588q0 -162 -133.5 -287t-334.5 -125zM600 1178h-204l290 342h305z" />
    <glyph glyph-name="ucircumflex" unicode="&#xfb;" horiz-adv-x="1141" 
d="M574 -34q-201 0 -334.5 125t-133.5 287v588h320v-588q0 -84 41 -120.5t107 -36.5t107 36.5t41 120.5v588h320v-588q0 -162 -133.5 -287t-334.5 -125zM575 1321l-151 -143h-264l319 342h191l319 -342h-264z" />
    <glyph glyph-name="udieresis" unicode="&#xfc;" horiz-adv-x="1141" 
d="M574 -34q-201 0 -334.5 125t-133.5 287v588h320v-588q0 -84 41 -120.5t107 -36.5t107 36.5t41 120.5v588h320v-588q0 -162 -133.5 -287t-334.5 -125zM408 1230q-49 0 -84.5 35.5t-35.5 84.5t35.5 84.5t84.5 35.5t84.5 -35.5t35.5 -84.5t-35.5 -84.5t-84.5 -35.5z
M741 1230q-50 0 -85 35.5t-35 84.5t35 84.5t85 35.5q49 0 84.5 -35.5t35.5 -84.5t-35.5 -84.5t-84.5 -35.5z" />
    <glyph glyph-name="yacute" unicode="&#xfd;" horiz-adv-x="1141" 
d="M731 -11v-393h-321v396q-76 14 -176 108q-128 120 -128 282v584h320v-584q0 -84 41 -120.5t107 -36.5t107 36.5t41 120.5v584h320v-584q0 -162 -127 -282q-105 -97 -184 -111zM600 1178h-204l290 342h305z" />
    <glyph glyph-name="thorn" unicode="&#xfe;" horiz-adv-x="1231" 
d="M424 -404h-320v1888h320v-509q99 41 218 41q232 0 385 -156t153 -361q0 -203 -153 -363.5t-335 -160.5q-107 0 -211 43v296q86 -76 181 -76q71 0 134 74.5t63 186.5q0 114 -58 184t-159 70t-159 -70t-58 -234h-1v-853z" />
    <glyph glyph-name="ydieresis" unicode="&#xff;" horiz-adv-x="1141" 
d="M731 -11v-393h-321v396q-76 14 -176 108q-128 120 -128 282v584h320v-584q0 -84 41 -120.5t107 -36.5t107 36.5t41 120.5v584h320v-584q0 -162 -127 -282q-105 -97 -184 -111zM408 1230q-49 0 -84.5 35.5t-35.5 84.5t35.5 84.5t84.5 35.5t84.5 -35.5t35.5 -84.5
t-35.5 -84.5t-84.5 -35.5zM741 1230q-50 0 -85 35.5t-35 84.5t35 84.5t85 35.5q49 0 84.5 -35.5t35.5 -84.5t-35.5 -84.5t-84.5 -35.5z" />
    <glyph glyph-name="Amacron" unicode="&#x100;" horiz-adv-x="1339" 
d="M1223 932v-932h-359v605h-317v282h317v45q0 102 -61.5 163t-132.5 61t-132.5 -61t-61.5 -220v-875h-359v932q0 204 157.5 360t395.5 156t395.5 -156t157.5 -360zM370 1739v160h600v-160h-600z" />
    <glyph glyph-name="amacron" unicode="&#x101;" horiz-adv-x="1231" 
d="M1139 501v-501h-321v501q0 112 -68 181t-149 69t-149 -69t-68 -181q0 -114 53 -185t114 -71q48 0 106 16l104 -212q-80 -67 -210 -67q-192 0 -340 157t-148 362q0 203 153 358t385 155t385 -155t153 -358zM301 1271v160h600v-160h-600z" />
    <glyph glyph-name="Abreve" unicode="&#x102;" horiz-adv-x="1339" 
d="M1223 932v-932h-359v605h-317v282h317v45q0 102 -61.5 163t-132.5 61t-132.5 -61t-61.5 -220v-875h-359v932q0 204 157.5 360t395.5 156t395.5 -156t157.5 -360zM520 1953q6 -50 43.5 -87.5t107.5 -37.5t106.5 37t42.5 88h191q-22 -146 -113.5 -221.5t-226.5 -75.5
q-134 0 -226.5 76t-115.5 221h191z" />
    <glyph glyph-name="abreve" unicode="&#x103;" horiz-adv-x="1231" 
d="M1139 501v-501h-321v501q0 112 -68 181t-149 69t-149 -69t-68 -181q0 -114 53 -185t114 -71q48 0 106 16l104 -212q-80 -67 -210 -67q-192 0 -340 157t-148 362q0 203 153 358t385 155t385 -155t153 -358zM451 1485q6 -50 43.5 -87.5t107.5 -37.5t106.5 37t42.5 88h191
q-22 -146 -113.5 -221.5t-226.5 -75.5q-134 0 -226.5 76t-115.5 221h191z" />
    <glyph glyph-name="Aogonek" unicode="&#x104;" horiz-adv-x="1339" 
d="M865 0h-1v605h-317v282h317v45q0 102 -61.5 163t-132.5 61t-132.5 -61t-61.5 -220v-875h-359v932q0 204 157.5 360t395.5 156t395.5 -156t157.5 -360v-932h-184q-163 -136 -163 -191t23.5 -76.5t69.5 -21.5q57 0 122 32v-116q-80 -32 -189 -32q-102 0 -160.5 44.5
t-58.5 120.5q0 73 182 240z" />
    <glyph glyph-name="aogonek" unicode="&#x105;" horiz-adv-x="1231" 
d="M818 0v501q0 112 -68 181t-149 69t-149 -69t-68 -181q0 -114 53 -185t114 -71q48 0 106 16l104 -212q-80 -67 -210 -67q-192 0 -340 157t-148 362q0 203 153 358t385 155t385 -155t153 -358v-501h-147q-163 -136 -163 -191t23.5 -76.5t69.5 -21.5q57 0 122 32v-116
q-80 -32 -189 -32q-102 0 -160.5 44.5t-58.5 120.5q0 73 182 240z" />
    <glyph glyph-name="Cacute" unicode="&#x106;" horiz-adv-x="1139" 
d="M825 1143q-156 0 -277 -119.5t-121 -306.5q0 -186 121 -306t277 -120h237v-291h-237q-323 0 -540 215t-217 502t217 502t540 215h237v-291h-237zM691 1646h-204l290 342h305z" />
    <glyph glyph-name="cacute" unicode="&#x107;" horiz-adv-x="894" 
d="M61 483q0 216 149 349.5t375 133.5h234v-220h-234q-76 0 -142 -68t-66 -195t66 -195t142 -68h234v-220h-234q-226 0 -375 133.5t-149 349.5zM546 1178h-204l290 342h305z" />
    <glyph glyph-name="Ccircumflex" unicode="&#x108;" horiz-adv-x="1139" 
d="M825 1143q-156 0 -277 -119.5t-121 -306.5q0 -186 121 -306t277 -120h237v-291h-237q-323 0 -540 215t-217 502t217 502t540 215h237v-291h-237zM666 1789l-151 -143h-264l319 342h191l319 -342h-264z" />
    <glyph glyph-name="ccircumflex" unicode="&#x109;" horiz-adv-x="894" 
d="M61 483q0 216 149 349.5t375 133.5h234v-220h-234q-76 0 -142 -68t-66 -195t66 -195t142 -68h234v-220h-234q-226 0 -375 133.5t-149 349.5zM521 1321l-151 -143h-264l319 342h191l319 -342h-264z" />
    <glyph glyph-name="Cdotaccent" unicode="&#x10a;" horiz-adv-x="1139" 
d="M825 1143q-156 0 -277 -119.5t-121 -306.5q0 -186 121 -306t277 -120h237v-291h-237q-323 0 -540 215t-217 502t217 502t540 215h237v-291h-237zM665 1698q-49 0 -84.5 35.5t-35.5 84.5t35.5 84.5t84.5 35.5t84.5 -35.5t35.5 -84.5t-35.5 -84.5t-84.5 -35.5z" />
    <glyph glyph-name="cdotaccent" unicode="&#x10b;" horiz-adv-x="894" 
d="M61 483q0 216 149 349.5t375 133.5h234v-220h-234q-76 0 -142 -68t-66 -195t66 -195t142 -68h234v-220h-234q-226 0 -375 133.5t-149 349.5zM520 1230q-49 0 -84.5 35.5t-35.5 84.5t35.5 84.5t84.5 35.5t84.5 -35.5t35.5 -84.5t-35.5 -84.5t-84.5 -35.5z" />
    <glyph glyph-name="Ccaron" unicode="&#x10c;" horiz-adv-x="1139" 
d="M825 1143q-156 0 -277 -119.5t-121 -306.5q0 -186 121 -306t277 -120h237v-291h-237q-323 0 -540 215t-217 502t217 502t540 215h237v-291h-237zM816 1988h264l-319 -342h-191l-319 342h264l151 -143z" />
    <glyph glyph-name="ccaron" unicode="&#x10d;" horiz-adv-x="894" 
d="M61 483q0 216 149 349.5t375 133.5h234v-220h-234q-76 0 -142 -68t-66 -195t66 -195t142 -68h234v-220h-234q-226 0 -375 133.5t-149 349.5zM671 1520h264l-319 -342h-191l-319 342h264l151 -143z" />
    <glyph glyph-name="Dcaron" unicode="&#x10e;" horiz-adv-x="1386" 
d="M490 1143v-1143h-359v1434h434q323 0 540 -215t217 -502t-217 -502t-513 -215v291q129 0 250 120t121 306q0 187 -121 306.5t-277 119.5h-75zM777 1988h264l-319 -342h-191l-319 342h264l151 -143z" />
    <glyph glyph-name="dcaron" unicode="&#x10f;" horiz-adv-x="1463" 
d="M642 -18q-232 0 -385 155t-153 364q0 203 153 358t335 155q107 0 211 -43v-295q-86 75 -181 75q-71 0 -134 -69t-63 -181q0 -114 58 -185t159 -71t159 71t58 235h1v933h320v-983q0 -209 -153 -364t-385 -155zM1504 1484h151l-78 -275h-131z" />
    <glyph glyph-name="Dcroat" unicode="&#x110;" horiz-adv-x="1386" 
d="M131 777v657h434q323 0 540 -215t217 -502t-217 -502t-513 -215v291q129 0 250 120t121 306q0 187 -121 306.5t-277 119.5h-75v-366h244v-120h-244v-657h-359v657h-114v120h114z" />
    <glyph glyph-name="dcroat" unicode="&#x111;" horiz-adv-x="1231" 
d="M1180 1150v-649q0 -209 -153 -364t-385 -155t-385 155t-153 364q0 203 153 358t335 155q107 0 211 -43v-295q-86 75 -181 75q-71 0 -134 -69t-63 -181q0 -114 58 -185t159 -71t159 71t58 235h1v599h-341v120h341v214h320v-214h56v-120h-56z" />
    <glyph glyph-name="Emacron" unicode="&#x112;" horiz-adv-x="1160" 
d="M442 857h604v-280h-604q12 -78 120 -187t263 -109h221v-281h-221q-323 0 -540 215t-217 502t217 502t540 215h221v-281h-221q-155 0 -262.5 -108.5t-120.5 -187.5zM365 1739v160h600v-160h-600z" />
    <glyph glyph-name="emacron" unicode="&#x113;" horiz-adv-x="1199" 
d="M382 500q0 -104 58 -180t159 -76q81 0 152.5 42.5t89.5 128.5l275 -86q-35 -125 -160 -236.5t-357 -111.5t-385 155t-153 364q0 203 153 358.5t385 155.5q220 0 346.5 -108t154.5 -221l-537 -333l-105 149l294 180q-63 70 -133 70q-101 0 -169 -69.5t-68 -181.5z
M289 1271v160h600v-160h-600z" />
    <glyph glyph-name="Ebreve" unicode="&#x114;" horiz-adv-x="1160" 
d="M442 857h604v-280h-604q12 -78 120 -187t263 -109h221v-281h-221q-323 0 -540 215t-217 502t217 502t540 215h221v-281h-221q-155 0 -262.5 -108.5t-120.5 -187.5zM515 1953q6 -50 43.5 -87.5t107.5 -37.5t106.5 37t42.5 88h191q-22 -146 -113.5 -221.5t-226.5 -75.5
q-134 0 -226.5 76t-115.5 221h191z" />
    <glyph glyph-name="ebreve" unicode="&#x115;" horiz-adv-x="1199" 
d="M382 500q0 -104 58 -180t159 -76q81 0 152.5 42.5t89.5 128.5l275 -86q-35 -125 -160 -236.5t-357 -111.5t-385 155t-153 364q0 203 153 358.5t385 155.5q220 0 346.5 -108t154.5 -221l-537 -333l-105 149l294 180q-63 70 -133 70q-101 0 -169 -69.5t-68 -181.5z
M439 1485q6 -50 43.5 -87.5t107.5 -37.5t106.5 37t42.5 88h191q-22 -146 -113.5 -221.5t-226.5 -75.5q-134 0 -226.5 76t-115.5 221h191z" />
    <glyph glyph-name="Edotaccent" unicode="&#x116;" horiz-adv-x="1160" 
d="M442 857h604v-280h-604q12 -78 120 -187t263 -109h221v-281h-221q-323 0 -540 215t-217 502t217 502t540 215h221v-281h-221q-155 0 -262.5 -108.5t-120.5 -187.5zM665 1698q-49 0 -84.5 35.5t-35.5 84.5t35.5 84.5t84.5 35.5t84.5 -35.5t35.5 -84.5t-35.5 -84.5
t-84.5 -35.5z" />
    <glyph glyph-name="edotaccent" unicode="&#x117;" horiz-adv-x="1199" 
d="M382 500q0 -104 58 -180t159 -76q81 0 152.5 42.5t89.5 128.5l275 -86q-35 -125 -160 -236.5t-357 -111.5t-385 155t-153 364q0 203 153 358.5t385 155.5q220 0 346.5 -108t154.5 -221l-537 -333l-105 149l294 180q-63 70 -133 70q-101 0 -169 -69.5t-68 -181.5z
M589 1230q-49 0 -84.5 35.5t-35.5 84.5t35.5 84.5t84.5 35.5t84.5 -35.5t35.5 -84.5t-35.5 -84.5t-84.5 -35.5z" />
    <glyph glyph-name="Eogonek" unicode="&#x118;" horiz-adv-x="1160" 
d="M871 0h-46q-323 0 -540 215t-217 502t217 502t540 215h221v-281h-221q-155 0 -262.5 -108.5t-120.5 -187.5h604v-280h-604q12 -78 120 -187t263 -109h221v-281h-1q-163 -136 -163 -191t23.5 -76.5t69.5 -21.5q57 0 122 32v-116q-80 -32 -189 -32q-102 0 -160.5 44.5
t-58.5 120.5q0 73 182 240z" />
    <glyph glyph-name="eogonek" unicode="&#x119;" horiz-adv-x="1199" 
d="M677 -16q-37 -3 -78 -3q-232 0 -385 155t-153 364q0 203 153 358.5t385 155.5q220 0 346.5 -108t154.5 -221l-537 -333l-105 149l294 180q-63 70 -133 70q-101 0 -169 -69.5t-68 -181.5q0 -104 58 -180t159 -76q81 0 152.5 42.5t89.5 128.5l275 -86q-34 -122 -154 -231
q-162 -136 -162 -191t23.5 -76.5t69.5 -21.5q57 0 122 32v-116q-80 -32 -189 -32q-102 0 -160.5 44.5t-58.5 120.5q0 45 70 126z" />
    <glyph glyph-name="Ecaron" unicode="&#x11a;" horiz-adv-x="1160" 
d="M442 857h604v-280h-604q12 -78 120 -187t263 -109h221v-281h-221q-323 0 -540 215t-217 502t217 502t540 215h221v-281h-221q-155 0 -262.5 -108.5t-120.5 -187.5zM816 1988h264l-319 -342h-191l-319 342h264l151 -143z" />
    <glyph glyph-name="ecaron" unicode="&#x11b;" horiz-adv-x="1199" 
d="M382 500q0 -104 58 -180t159 -76q81 0 152.5 42.5t89.5 128.5l275 -86q-35 -125 -160 -236.5t-357 -111.5t-385 155t-153 364q0 203 153 358.5t385 155.5q220 0 346.5 -108t154.5 -221l-537 -333l-105 149l294 180q-63 70 -133 70q-101 0 -169 -69.5t-68 -181.5z
M739 1520h264l-319 -342h-191l-319 342h264l151 -143z" />
    <glyph glyph-name="Gcircumflex" unicode="&#x11c;" horiz-adv-x="1660" 
d="M1260 589h-455v212h795q17 -51 17 -134q0 -245 -222.5 -465t-553.5 -220q-330 0 -552.5 220t-222.5 515t222.5 515t552.5 220q401 0 630 -324l-222 -165q-180 224 -408 224q-169 0 -299.5 -133t-130.5 -337q0 -205 130.5 -337.5t299.5 -132.5q168 0 289 122t130 220z
M842 1789l-151 -143h-264l319 342h191l319 -342h-264z" />
    <glyph glyph-name="gcircumflex" unicode="&#x11d;" horiz-adv-x="1231" 
d="M601 -213q111 0 164 54t53 183l1 426q-1 143 -59 222t-159 79t-159 -69t-58 -182q0 -116 58 -185.5t139 -69.5q85 0 181 66v-286q-83 -43 -171 -43q-212 0 -370 155.5t-158 362.5q0 204 153 359t385 155t385 -155t153 -359v-466q0 -200 -153 -320t-385 -120
q-222 0 -405 146l106 159q158 -112 299 -112zM602 1321l-151 -143h-264l319 342h191l319 -342h-264z" />
    <glyph glyph-name="Gbreve" unicode="&#x11e;" horiz-adv-x="1660" 
d="M1260 589h-455v212h795q17 -51 17 -134q0 -245 -222.5 -465t-553.5 -220q-330 0 -552.5 220t-222.5 515t222.5 515t552.5 220q401 0 630 -324l-222 -165q-180 224 -408 224q-169 0 -299.5 -133t-130.5 -337q0 -205 130.5 -337.5t299.5 -132.5q168 0 289 122t130 220z
M692 1953q6 -50 43.5 -87.5t107.5 -37.5t106.5 37t42.5 88h191q-22 -146 -113.5 -221.5t-226.5 -75.5q-134 0 -226.5 76t-115.5 221h191z" />
    <glyph glyph-name="gbreve" unicode="&#x11f;" horiz-adv-x="1231" 
d="M601 -213q111 0 164 54t53 183l1 426q-1 143 -59 222t-159 79t-159 -69t-58 -182q0 -116 58 -185.5t139 -69.5q85 0 181 66v-286q-83 -43 -171 -43q-212 0 -370 155.5t-158 362.5q0 204 153 359t385 155t385 -155t153 -359v-466q0 -200 -153 -320t-385 -120
q-222 0 -405 146l106 159q158 -112 299 -112zM451 1485q6 -50 43.5 -87.5t107.5 -37.5t106.5 37t42.5 88h191q-22 -146 -113.5 -221.5t-226.5 -75.5q-134 0 -226.5 76t-115.5 221h191z" />
    <glyph glyph-name="Gdotaccent" unicode="&#x120;" horiz-adv-x="1660" 
d="M1260 589h-455v212h795q17 -51 17 -134q0 -245 -222.5 -465t-553.5 -220q-330 0 -552.5 220t-222.5 515t222.5 515t552.5 220q401 0 630 -324l-222 -165q-180 224 -408 224q-169 0 -299.5 -133t-130.5 -337q0 -205 130.5 -337.5t299.5 -132.5q168 0 289 122t130 220z
M842 1698q-49 0 -84.5 35.5t-35.5 84.5t35.5 84.5t84.5 35.5t84.5 -35.5t35.5 -84.5t-35.5 -84.5t-84.5 -35.5z" />
    <glyph glyph-name="gdotaccent" unicode="&#x121;" horiz-adv-x="1231" 
d="M601 -213q111 0 164 54t53 183l1 426q-1 143 -59 222t-159 79t-159 -69t-58 -182q0 -116 58 -185.5t139 -69.5q85 0 181 66v-286q-83 -43 -171 -43q-212 0 -370 155.5t-158 362.5q0 204 153 359t385 155t385 -155t153 -359v-466q0 -200 -153 -320t-385 -120
q-222 0 -405 146l106 159q158 -112 299 -112zM601 1230q-49 0 -84.5 35.5t-35.5 84.5t35.5 84.5t84.5 35.5t84.5 -35.5t35.5 -84.5t-35.5 -84.5t-84.5 -35.5z" />
    <glyph glyph-name="Gcommaaccent" unicode="&#x122;" horiz-adv-x="1660" 
d="M1260 589h-455v212h795q17 -51 17 -134q0 -245 -222.5 -465t-553.5 -220q-330 0 -552.5 220t-222.5 515t222.5 515t552.5 220q401 0 630 -324l-222 -165q-180 224 -408 224q-169 0 -299.5 -133t-130.5 -337q0 -205 130.5 -337.5t299.5 -132.5q168 0 289 122t130 220z
M752 -136h196l-88 -270h-174z" />
    <glyph glyph-name="gcommaaccent" unicode="&#x123;" horiz-adv-x="1231" 
d="M601 -213q111 0 164 54t53 183l1 426q-1 143 -59 222t-159 79t-159 -69t-58 -182q0 -116 58 -185.5t139 -69.5q85 0 181 66v-286q-83 -43 -171 -43q-212 0 -370 155.5t-158 362.5q0 204 153 359t385 155t385 -155t153 -359v-466q0 -200 -153 -320t-385 -120
q-222 0 -405 146l106 159q158 -112 299 -112zM574 1434h132l-59 -275h-150z" />
    <glyph glyph-name="Hcircumflex" unicode="&#x124;" horiz-adv-x="1365" 
d="M131 1434h359v-547h388v547h359v-1434h-359v605h-388v-605h-359v1434zM685 1789l-151 -143h-264l319 342h191l319 -342h-264z" />
    <glyph glyph-name="hcircumflex" unicode="&#x125;" horiz-adv-x="1155" 
d="M121 1484h320v-542q91 72 220 72q172 0 284 -119.5t112 -347.5v-547h-320v552q0 88 -34.5 143t-94.5 55q-77 0 -122 -60t-45 -155v-535h-320v1484zM590 1792l-151 -143h-264l319 342h191l319 -342h-264z" />
    <glyph glyph-name="Hbar" unicode="&#x126;" horiz-adv-x="1365" 
d="M131 1254v180h359v-180h388v180h359v-180h117v-120h-117v-1134h-359v605h-388v-605h-359v1134h-105v120h105zM490 1134v-247h388v247h-388z" />
    <glyph glyph-name="hbar" unicode="&#x127;" horiz-adv-x="1155" 
d="M121 1270v214h320v-214h278v-120h-278v-208q91 72 220 72q172 0 284 -119.5t112 -347.5v-547h-320v552q0 88 -34.5 143t-94.5 55q-77 0 -122 -60t-45 -155v-535h-320v1150h-99v120h99z" />
    <glyph glyph-name="Itilde" unicode="&#x128;" horiz-adv-x="632" 
d="M137 1434h359v-1434h-359v1434zM649 1958q-23 -111 -79 -185.5t-145 -74.5q-51 0 -119.5 34.5t-111.5 34.5q-45 0 -70 -24t-38 -65h-97q22 141 78.5 200.5t148.5 59.5q41 0 110.5 -37.5t113.5 -37.5q46 0 71 30t41 65h97z" />
    <glyph glyph-name="itilde" unicode="&#x129;" horiz-adv-x="562" 
d="M114 966h320v-966h-320v966zM606 1490q-23 -111 -79 -185.5t-145 -74.5q-51 0 -119.5 34.5t-111.5 34.5q-45 0 -70 -24t-38 -65h-97q22 141 78.5 200.5t148.5 59.5q41 0 110.5 -37.5t113.5 -37.5q46 0 71 30t41 65h97z" />
    <glyph glyph-name="Imacron" unicode="&#x12a;" horiz-adv-x="632" 
d="M137 1434h359v-1434h-359v1434zM19 1739v160h600v-160h-600z" />
    <glyph glyph-name="imacron" unicode="&#x12b;" horiz-adv-x="562" 
d="M114 966h320v-966h-320v966zM-24 1271v160h600v-160h-600z" />
    <glyph glyph-name="Ibreve" unicode="&#x12c;" horiz-adv-x="632" 
d="M137 1434h359v-1434h-359v1434zM169 1953q6 -50 43.5 -87.5t107.5 -37.5t106.5 37t42.5 88h191q-22 -146 -113.5 -221.5t-226.5 -75.5q-134 0 -226.5 76t-115.5 221h191z" />
    <glyph glyph-name="ibreve" unicode="&#x12d;" horiz-adv-x="562" 
d="M114 966h320v-966h-320v966zM126 1485q6 -50 43.5 -87.5t107.5 -37.5t106.5 37t42.5 88h191q-22 -146 -113.5 -221.5t-226.5 -75.5q-134 0 -226.5 76t-115.5 221h191z" />
    <glyph glyph-name="Iogonek" unicode="&#x12e;" horiz-adv-x="632" 
d="M321 0h-184v1434h359v-1434h-1q-163 -136 -163 -191t23.5 -76.5t69.5 -21.5q57 0 122 32v-116q-80 -32 -189 -32q-102 0 -160.5 44.5t-58.5 120.5q0 73 182 240z" />
    <glyph glyph-name="iogonek" unicode="&#x12f;" horiz-adv-x="562" 
d="M274 1035q-79 0 -124.5 55.5t-45.5 114.5q0 61 45.5 115.5t124.5 54.5t124.5 -54.5t45.5 -115.5q0 -59 -45.5 -114.5t-124.5 -55.5zM260 0h-146v966h320v-966q-163 -136 -163 -191t23.5 -76.5t69.5 -21.5q57 0 122 32v-116q-80 -32 -189 -32q-102 0 -160.5 44.5
t-58.5 120.5q0 73 182 240z" />
    <glyph glyph-name="Idotaccent" unicode="&#x130;" horiz-adv-x="632" 
d="M137 1434h359v-1434h-359v1434zM319 1698q-49 0 -84.5 35.5t-35.5 84.5t35.5 84.5t84.5 35.5t84.5 -35.5t35.5 -84.5t-35.5 -84.5t-84.5 -35.5z" />
    <glyph glyph-name="dotlessi" unicode="&#x131;" horiz-adv-x="562" 
d="M114 966h320v-966h-320v966z" />
    <glyph glyph-name="IJ" unicode="&#x132;" horiz-adv-x="1587" 
d="M137 1434h359v-1434h-359v1434zM1113 1434h357v-906q0 -528 -565 -528h-277v282h328q139 0 157 197v955z" />
    <glyph glyph-name="ij" unicode="&#x133;" horiz-adv-x="1124" 
d="M114 966h320v-966h-320v966zM274 1035q-79 0 -124.5 55.5t-45.5 114.5q0 61 45.5 115.5t124.5 54.5t124.5 -54.5t45.5 -115.5q0 -59 -45.5 -114.5t-124.5 -55.5zM676 966h320v-968q0 -402 -476 -402h-165v220h198q123 0 123 182v968zM836 1035q-79 0 -124.5 55.5
t-45.5 114.5q0 61 45.5 115.5t124.5 54.5t124.5 -54.5t45.5 -115.5q0 -59 -45.5 -114.5t-124.5 -55.5z" />
    <glyph glyph-name="Jcircumflex" unicode="&#x134;" horiz-adv-x="955" 
d="M481 1434h357v-906q0 -528 -565 -528h-277v282h328q139 0 157 197v955zM657 1789l-151 -143h-264l319 342h191l319 -342h-264z" />
    <glyph glyph-name="jcircumflex" unicode="&#x135;" horiz-adv-x="562" 
d="M114 966h320v-968q0 -402 -476 -402h-165v220h198q123 0 123 182v968zM270 1321l-151 -143h-264l319 342h191l319 -342h-264z" />
    <glyph glyph-name="Kcommaaccent" unicode="&#x136;" horiz-adv-x="1300" 
d="M131 1434h359v-547h96q64 0 177 241l148 306h360q-206 -534 -348 -594q96 -9 179 -118.5t83 -302.5v-419h-357v393q0 212 -149 212h-189v-605h-359v1434zM570 -136h196l-88 -270h-174z" />
    <glyph glyph-name="kcommaaccent" unicode="&#x137;" horiz-adv-x="1093" 
d="M121 1484h320v-835h42q77 0 248 317h323q-152 -312 -240 -368q59 0 111 -74t57 -180v-344h-321v296q0 63 -19.5 98t-76.5 35h-124v-429h-320v1484zM448 -136h196l-88 -270h-174z" />
    <glyph glyph-name="kgreenlandic" unicode="&#x138;" horiz-adv-x="1093" 
d="M121 966h320v-317h42q77 0 248 317h323q-152 -312 -240 -368q59 0 111 -74t57 -180v-344h-321v296q0 63 -19.5 98t-76.5 35h-124v-429h-320v966z" />
    <glyph glyph-name="Lacute" unicode="&#x139;" horiz-adv-x="976" 
d="M117 1434h359v-955q17 -197 155 -197h354v-282h-293q-575 0 -575 528v906zM429 1646h-204l290 342h305z" />
    <glyph glyph-name="lacute" unicode="&#x13a;" horiz-adv-x="564" 
d="M121 1484h320v-1484h-320v1484zM190 1649h-204l290 342h305z" />
    <glyph glyph-name="Lcommaaccent" unicode="&#x13b;" horiz-adv-x="976" 
d="M117 1434h359v-955q17 -197 155 -197h354v-282h-293q-575 0 -575 528v906zM486 -136h196l-88 -270h-174z" />
    <glyph glyph-name="lcommaaccent" unicode="&#x13c;" horiz-adv-x="564" 
d="M121 1484h320v-1484h-320v1484zM183 -136h196l-88 -270h-174z" />
    <glyph glyph-name="Lcaron" unicode="&#x13d;" horiz-adv-x="976" 
d="M117 1434h359v-955q17 -197 155 -197h354v-282h-293q-575 0 -575 528v906zM907 1484h151l-78 -275h-131z" />
    <glyph glyph-name="lcaron" unicode="&#x13e;" horiz-adv-x="796" 
d="M121 1484h320v-1484h-320v1484zM672 1484h151l-78 -275h-131z" />
    <glyph glyph-name="Ldot" unicode="&#x13f;" horiz-adv-x="976" 
d="M117 1434h359v-955q17 -197 155 -197h354v-282h-293q-575 0 -575 528v906zM793 597q-50 0 -85 35t-35 85t35 85t85 35q49 0 84.5 -35t35.5 -85t-35.5 -85t-84.5 -35z" />
    <glyph glyph-name="ldot" unicode="&#x140;" horiz-adv-x="804" 
d="M121 1484h320v-1484h-320v1484zM685 622q-50 0 -85 35t-35 85t35 85t85 35q49 0 84.5 -35t35.5 -85t-35.5 -85t-84.5 -35z" />
    <glyph glyph-name="Lslash" unicode="&#x141;" horiz-adv-x="976" 
d="M117 667v767h359v-559l127 73l60 -104l-187 -108v-257q17 -197 155 -197h354v-282h-293q-575 0 -575 528v1l-75 -43l-60 103z" />
    <glyph glyph-name="lslash" unicode="&#x142;" horiz-adv-x="564" 
d="M121 719v765h320v-580l120 69l60 -104l-180 -104v-765h-320v580l-120 -69l-60 104z" />
    <glyph glyph-name="Nacute" unicode="&#x143;" horiz-adv-x="1398" 
d="M365 1460q187 0 316 -289l241 -511v774h348v-1163q0 -288 -240 -288q-172 0 -296 276l-253 522v-781h-350v1159q0 301 234 301zM726 1646h-204l290 342h305z" />
    <glyph glyph-name="nacute" unicode="&#x144;" horiz-adv-x="1141" 
d="M1042 602v-602h-320v602q0 84 -41 120.5t-107 36.5t-107 -36.5t-41 -120.5v-602h-320v602q0 162 133.5 287t334.5 125t334.5 -125t133.5 -287zM600 1178h-204l290 342h305z" />
    <glyph glyph-name="Ncommaaccent" unicode="&#x145;" horiz-adv-x="1398" 
d="M365 1460q187 0 316 -289l241 -511v774h348v-1163q0 -288 -240 -288q-172 0 -296 276l-253 522v-781h-350v1159q0 301 234 301zM608 -136h196l-88 -270h-174z" />
    <glyph glyph-name="ncommaaccent" unicode="&#x146;" horiz-adv-x="1141" 
d="M1042 602v-602h-320v602q0 84 -41 120.5t-107 36.5t-107 -36.5t-41 -120.5v-602h-320v602q0 162 133.5 287t334.5 125t334.5 -125t133.5 -287zM491 -136h196l-88 -270h-174z" />
    <glyph glyph-name="Ncaron" unicode="&#x147;" horiz-adv-x="1398" 
d="M365 1460q187 0 316 -289l241 -511v774h348v-1163q0 -288 -240 -288q-172 0 -296 276l-253 522v-781h-350v1159q0 301 234 301zM851 1988h264l-319 -342h-191l-319 342h264l151 -143z" />
    <glyph glyph-name="ncaron" unicode="&#x148;" horiz-adv-x="1141" 
d="M1042 602v-602h-320v602q0 84 -41 120.5t-107 36.5t-107 -36.5t-41 -120.5v-602h-320v602q0 162 133.5 287t334.5 125t334.5 -125t133.5 -287zM725 1520h264l-319 -342h-191l-319 342h264l151 -143z" />
    <glyph glyph-name="napostrophe" unicode="&#x149;" horiz-adv-x="1257" 
d="M105 1434h151l-78 -275h-131zM1158 602v-602h-320v602q0 84 -41 120.5t-107 36.5t-107 -36.5t-41 -120.5v-602h-320v602q0 162 133.5 287t334.5 125t334.5 -125t133.5 -287z" />
    <glyph glyph-name="Eng" unicode="&#x14a;" horiz-adv-x="1390" 
d="M828 67l-347 712v-779h-350v1159q0 301 234 301q187 0 314 -289l234 -503v766h349v-1163q0 -675 -661 -675v169q257 0 257 203q0 41 -30 99z" />
    <glyph glyph-name="eng" unicode="&#x14b;" horiz-adv-x="1163" 
d="M1064 603v-546q0 -462 -570 -462v169q228 0 228 293v546q0 80 -38 113.5t-99 33.5t-99 -33.5t-38 -113.5v-603h-342v603q0 162 136.5 288t342.5 126q207 0 343 -126t136 -288z" />
    <glyph glyph-name="Omacron" unicode="&#x14c;" horiz-adv-x="1660" 
d="M841 -18q-330 0 -552.5 220t-222.5 515t222.5 515t552.5 220q331 0 553.5 -220t222.5 -515t-222.5 -515t-553.5 -220zM1272 717q0 203 -131.5 336.5t-299.5 133.5q-169 0 -299.5 -133t-130.5 -337q0 -205 130.5 -337.5t299.5 -132.5q168 0 299.5 132.5t131.5 337.5z
M542 1739v160h600v-160h-600z" />
    <glyph glyph-name="omacron" unicode="&#x14d;" horiz-adv-x="1194" 
d="M816 500q0 112 -68 181.5t-149 69.5t-149 -69.5t-68 -181.5q0 -114 68 -183t149 -69t149 69t68 183zM61 500q0 204 153 359t385 155t385 -155t153 -359q0 -205 -153 -360t-385 -155t-385 155t-153 360zM299 1271v160h600v-160h-600z" />
    <glyph glyph-name="Obreve" unicode="&#x14e;" horiz-adv-x="1660" 
d="M841 -18q-330 0 -552.5 220t-222.5 515t222.5 515t552.5 220q331 0 553.5 -220t222.5 -515t-222.5 -515t-553.5 -220zM1272 717q0 203 -131.5 336.5t-299.5 133.5q-169 0 -299.5 -133t-130.5 -337q0 -205 130.5 -337.5t299.5 -132.5q168 0 299.5 132.5t131.5 337.5z
M692 1953q6 -50 43.5 -87.5t107.5 -37.5t106.5 37t42.5 88h191q-22 -146 -113.5 -221.5t-226.5 -75.5q-134 0 -226.5 76t-115.5 221h191z" />
    <glyph glyph-name="obreve" unicode="&#x14f;" horiz-adv-x="1194" 
d="M816 500q0 112 -68 181.5t-149 69.5t-149 -69.5t-68 -181.5q0 -114 68 -183t149 -69t149 69t68 183zM61 500q0 204 153 359t385 155t385 -155t153 -359q0 -205 -153 -360t-385 -155t-385 155t-153 360zM449 1485q6 -50 43.5 -87.5t107.5 -37.5t106.5 37t42.5 88h191
q-22 -146 -113.5 -221.5t-226.5 -75.5q-134 0 -226.5 76t-115.5 221h191z" />
    <glyph glyph-name="Ohungarumlaut" unicode="&#x150;" horiz-adv-x="1660" 
d="M841 -18q-330 0 -552.5 220t-222.5 515t222.5 515t552.5 220q331 0 553.5 -220t222.5 -515t-222.5 -515t-553.5 -220zM1272 717q0 203 -131.5 336.5t-299.5 133.5q-169 0 -299.5 -133t-130.5 -337q0 -205 130.5 -337.5t299.5 -132.5q168 0 299.5 132.5t131.5 337.5z
M690 1646h-204l191 342h245zM1068 1646h-204l191 342h245z" />
    <glyph glyph-name="ohungarumlaut" unicode="&#x151;" horiz-adv-x="1194" 
d="M816 500q0 112 -68 181.5t-149 69.5t-149 -69.5t-68 -181.5q0 -114 68 -183t149 -69t149 69t68 183zM61 500q0 204 153 359t385 155t385 -155t153 -359q0 -205 -153 -360t-385 -155t-385 155t-153 360zM448 1178h-204l191 342h245zM826 1178h-204l191 342h245z" />
    <glyph glyph-name="OE" unicode="&#x152;" horiz-adv-x="2112" 
d="M1325 1294q191 140 452 140h221v-281h-221q-155 0 -262.5 -108.5t-120.5 -187.5h604v-280h-604q12 -78 120 -187t263 -109h221v-281h-221q-261 0 -453 140q-202 -158 -483 -158q-330 0 -552.5 220t-222.5 515t222.5 515t552.5 220q271 0 469 -147zM1120 1074
q-124 113 -279 113q-169 0 -299.5 -133t-130.5 -337q0 -205 130.5 -337.5t299.5 -132.5q155 0 279 113q-100 162 -100 357t100 357z" />
    <glyph glyph-name="oe" unicode="&#x153;" horiz-adv-x="2064" 
d="M816 500q0 112 -68 181.5t-149 69.5t-149 -69.5t-68 -181.5q0 -114 68 -183t149 -69t149 69t68 183zM1030 192q-21 -27 -46 -52q-153 -155 -385 -155t-385 155t-153 360q0 204 153 359t385 155t385 -155q26 -26 48 -54q21 27 47 54q153 155 385 155q220 0 346.5 -108
t154.5 -221l-537 -333l-105 149l294 180q-63 70 -133 70q-101 0 -169 -69.5t-68 -181.5q0 -104 58 -180t159 -76q81 0 152.5 42.5t89.5 128.5l275 -86q-35 -125 -160 -236.5t-357 -111.5t-385 155q-27 27 -49 56z" />
    <glyph glyph-name="Racute" unicode="&#x154;" horiz-adv-x="1255" 
d="M476 0h-359v932q0 204 157.5 360t395.5 156q216 0 347 -113t131 -295q-1 -181 -112 -268q170 -86 170 -328v-444h-359l1 387q-4 114 -46 166t-110 52h-129v282q135 0 180 42t45 112q0 58 -27.5 86.5t-100.5 28.5q-61 0 -122.5 -61t-61.5 -220v-875zM687 1646h-204
l290 342h305z" />
    <glyph glyph-name="racute" unicode="&#x155;" horiz-adv-x="780" 
d="M704 1014h81v-220h-121q-103 0 -164 -96.5t-61 -222.5v-475h-320v966h320v-72q136 120 265 120zM480 1178h-204l290 342h305z" />
    <glyph glyph-name="Rcommaaccent" unicode="&#x156;" horiz-adv-x="1255" 
d="M476 0h-359v932q0 204 157.5 360t395.5 156q216 0 347 -113t131 -295q-1 -181 -112 -268q170 -86 170 -328v-444h-359l1 387q-4 114 -46 166t-110 52h-129v282q135 0 180 42t45 112q0 58 -27.5 86.5t-100.5 28.5q-61 0 -122.5 -61t-61.5 -220v-875zM567 -136h196
l-88 -270h-174z" />
    <glyph glyph-name="rcommaaccent" unicode="&#x157;" horiz-adv-x="780" 
d="M704 1014h81v-220h-121q-103 0 -164 -96.5t-61 -222.5v-475h-320v966h320v-72q136 120 265 120zM187 -136h196l-88 -270h-174z" />
    <glyph glyph-name="Rcaron" unicode="&#x158;" horiz-adv-x="1255" 
d="M476 0h-359v932q0 204 157.5 360t395.5 156q216 0 347 -113t131 -295q-1 -181 -112 -268q170 -86 170 -328v-444h-359l1 387q-4 114 -46 166t-110 52h-129v282q135 0 180 42t45 112q0 58 -27.5 86.5t-100.5 28.5q-61 0 -122.5 -61t-61.5 -220v-875zM812 1988h264
l-319 -342h-191l-319 342h264l151 -143z" />
    <glyph glyph-name="rcaron" unicode="&#x159;" horiz-adv-x="780" 
d="M704 1014h81v-220h-121q-103 0 -164 -96.5t-61 -222.5v-475h-320v966h320v-72q136 120 265 120zM605 1520h264l-319 -342h-191l-319 342h264l151 -143z" />
    <glyph glyph-name="Sacute" unicode="&#x15a;" horiz-adv-x="1190" 
d="M501 1434h557v-281h-557q-62 0 -62 -83q0 -88 124 -153l320 -164q236 -124 236 -359q0 -166 -129 -280t-346 -114h-572v282h575q59 0 86 23.5t27 88.5q0 102 -121 159l-322 164q-237 122 -237 353q0 150 114.5 257t306.5 107zM621 1646h-204l290 342h305z" />
    <glyph glyph-name="sacute" unicode="&#x15b;" horiz-adv-x="988" 
d="M406 966h467v-220h-417q-64 0 -64 -61q0 -63 262 -137t262 -250q0 -119 -101.5 -208.5t-256.5 -89.5h-486v220h456q58 0 58 73q0 66 -191 115t-257 116.5t-66 168.5q0 109 94 191t240 82zM520 1178h-204l290 342h305z" />
    <glyph glyph-name="Scircumflex" unicode="&#x15c;" horiz-adv-x="1190" 
d="M501 1434h557v-281h-557q-62 0 -62 -83q0 -88 124 -153l320 -164q236 -124 236 -359q0 -166 -129 -280t-346 -114h-572v282h575q59 0 86 23.5t27 88.5q0 102 -121 159l-322 164q-237 122 -237 353q0 150 114.5 257t306.5 107zM596 1789l-151 -143h-264l319 342h191
l319 -342h-264z" />
    <glyph glyph-name="scircumflex" unicode="&#x15d;" horiz-adv-x="988" 
d="M406 966h467v-220h-417q-64 0 -64 -61q0 -63 262 -137t262 -250q0 -119 -101.5 -208.5t-256.5 -89.5h-486v220h456q58 0 58 73q0 66 -191 115t-257 116.5t-66 168.5q0 109 94 191t240 82zM497 1321l-151 -143h-264l319 342h191l319 -342h-264z" />
    <glyph glyph-name="Scedilla" unicode="&#x15e;" horiz-adv-x="1190" 
d="M504 0h-432v282h575q59 0 86 23.5t27 88.5q0 102 -121 159l-322 164q-237 122 -237 353q0 150 114.5 257t306.5 107h557v-281h-557q-62 0 -62 -83q0 -88 124 -153l320 -164q236 -124 236 -359q0 -166 -129 -280t-346 -114h-26v-86q86 0 134 -40.5t48 -113.5
q0 -76 -58.5 -120.5t-160.5 -44.5q-109 0 -189 32v96q65 -32 142 -32q46 0 69.5 21.5t23.5 46.5q0 35 -22 57.5t-47 22.5h-54v161z" />
    <glyph glyph-name="scedilla" unicode="&#x15f;" horiz-adv-x="988" 
d="M402 0h-330v220h456q58 0 58 73q0 66 -191 115t-257 116.5t-66 168.5q0 109 94 191t240 82h467v-220h-417q-64 0 -64 -61q0 -63 262 -137t262 -250q0 -119 -101.5 -208.5t-256.5 -89.5h-42v-86q86 0 134 -40.5t48 -113.5q0 -76 -58.5 -120.5t-160.5 -44.5q-109 0 -189 32
v96q65 -32 142 -32q46 0 69.5 21.5t23.5 46.5q0 35 -22 57.5t-47 22.5h-54v161z" />
    <glyph glyph-name="Scaron" unicode="&#x160;" horiz-adv-x="1190" 
d="M501 1434h557v-281h-557q-62 0 -62 -83q0 -88 124 -153l320 -164q236 -124 236 -359q0 -166 -129 -280t-346 -114h-572v282h575q59 0 86 23.5t27 88.5q0 102 -121 159l-322 164q-237 122 -237 353q0 150 114.5 257t306.5 107zM746 1988h264l-319 -342h-191l-319 342h264
l151 -143z" />
    <glyph glyph-name="scaron" unicode="&#x161;" horiz-adv-x="988" 
d="M406 966h467v-220h-417q-64 0 -64 -61q0 -63 262 -137t262 -250q0 -119 -101.5 -208.5t-256.5 -89.5h-486v220h456q58 0 58 73q0 66 -191 115t-257 116.5t-66 168.5q0 109 94 191t240 82zM647 1520h264l-319 -342h-191l-319 342h264l151 -143z" />
    <glyph glyph-name="Tcommaaccent" unicode="&#x162;" horiz-adv-x="1106" 
d="M460 0h-88v1153h-339v281h1038v-281h-341v-1153h-156v-86q86 0 134 -40.5t48 -113.5q0 -76 -58.5 -120.5t-160.5 -44.5q-109 0 -189 32v96q65 -32 142 -32q46 0 69.5 21.5t23.5 46.5q0 35 -22 57.5t-47 22.5h-54v161z" />
    <glyph glyph-name="tcommaaccent" unicode="&#x163;" horiz-adv-x="768" 
d="M312 62q-42 23 -77 56q-126 118 -126 291v868h320v-311h270v-220h-270v-337q0 -78 27 -133.5t95 -55.5h148v-220h-122q-82 0 -151 17v-103q86 0 134 -40.5t48 -113.5q0 -76 -58.5 -120.5t-160.5 -44.5q-109 0 -189 32v96q65 -32 142 -32q46 0 69.5 21.5t23.5 46.5
q0 35 -22 57.5t-47 22.5h-54v223z" />
    <glyph glyph-name="Tcaron" unicode="&#x164;" horiz-adv-x="1106" 
d="M33 1434h1038v-281h-341v-1153h-358v1153h-339v281zM703 1988h264l-319 -342h-191l-319 342h264l151 -143z" />
    <glyph glyph-name="tcaron" unicode="&#x165;" horiz-adv-x="1000" 
d="M109 1277h320v-311h270v-220h-270v-337q0 -78 27 -133.5t95 -55.5h148v-220h-122q-216 0 -342 118t-126 291v868zM876 1484h151l-78 -275h-131z" />
    <glyph glyph-name="Tbar" unicode="&#x166;" horiz-adv-x="1106" 
d="M372 797v356h-339v281h1038v-281h-341v-356h181v-120h-181v-677h-358v677h-178v120h178z" />
    <glyph glyph-name="tbar" unicode="&#x167;" horiz-adv-x="768" 
d="M109 591v686h320v-311h270v-220h-270v-155h300v-120h-300v-62q0 -78 27 -133.5t95 -55.5h148v-220h-122q-216 0 -342 118t-126 291v62h-97v120h97z" />
    <glyph glyph-name="Utilde" unicode="&#x168;" horiz-adv-x="1342" 
d="M867 1434h359v-880q0 -262 -158 -417t-396 -155t-395.5 155t-157.5 417h-2l2 880h359v-880q0 -160 56 -220.5t138 -60.5q80 0 137.5 60.5t57.5 220.5v880zM1002 1958q-23 -111 -79 -185.5t-145 -74.5q-51 0 -119.5 34.5t-111.5 34.5q-45 0 -70 -24t-38 -65h-97
q22 141 78.5 200.5t148.5 59.5q41 0 110.5 -37.5t113.5 -37.5q46 0 71 30t41 65h97z" />
    <glyph glyph-name="utilde" unicode="&#x169;" horiz-adv-x="1141" 
d="M574 -34q-201 0 -334.5 125t-133.5 287v588h320v-588q0 -84 41 -120.5t107 -36.5t107 36.5t41 120.5v588h320v-588q0 -162 -133.5 -287t-334.5 -125zM904 1490q-23 -111 -79 -185.5t-145 -74.5q-51 0 -119.5 34.5t-111.5 34.5q-45 0 -70 -24t-38 -65h-97
q22 141 78.5 200.5t148.5 59.5q41 0 110.5 -37.5t113.5 -37.5q46 0 71 30t41 65h97z" />
    <glyph glyph-name="Umacron" unicode="&#x16a;" horiz-adv-x="1342" 
d="M867 1434h359v-880q0 -262 -158 -417t-396 -155t-395.5 155t-157.5 417h-2l2 880h359v-880q0 -160 56 -220.5t138 -60.5q80 0 137.5 60.5t57.5 220.5v880zM372 1739v160h600v-160h-600z" />
    <glyph glyph-name="umacron" unicode="&#x16b;" horiz-adv-x="1141" 
d="M574 -34q-201 0 -334.5 125t-133.5 287v588h320v-588q0 -84 41 -120.5t107 -36.5t107 36.5t41 120.5v588h320v-588q0 -162 -133.5 -287t-334.5 -125zM274 1271v160h600v-160h-600z" />
    <glyph glyph-name="Ubreve" unicode="&#x16c;" horiz-adv-x="1342" 
d="M867 1434h359v-880q0 -262 -158 -417t-396 -155t-395.5 155t-157.5 417h-2l2 880h359v-880q0 -160 56 -220.5t138 -60.5q80 0 137.5 60.5t57.5 220.5v880zM522 1953q6 -50 43.5 -87.5t107.5 -37.5t106.5 37t42.5 88h191q-22 -146 -113.5 -221.5t-226.5 -75.5
q-134 0 -226.5 76t-115.5 221h191z" />
    <glyph glyph-name="ubreve" unicode="&#x16d;" horiz-adv-x="1141" 
d="M574 -34q-201 0 -334.5 125t-133.5 287v588h320v-588q0 -84 41 -120.5t107 -36.5t107 36.5t41 120.5v588h320v-588q0 -162 -133.5 -287t-334.5 -125zM424 1485q6 -50 43.5 -87.5t107.5 -37.5t106.5 37t42.5 88h191q-22 -146 -113.5 -221.5t-226.5 -75.5q-134 0 -226.5 76
t-115.5 221h191z" />
    <glyph glyph-name="Uring" unicode="&#x16e;" horiz-adv-x="1342" 
d="M867 1434h359v-880q0 -262 -158 -417t-396 -155t-395.5 155t-157.5 417h-2l2 880h359v-880q0 -160 56 -220.5t138 -60.5q80 0 137.5 60.5t57.5 220.5v880zM589 1794q0 -34 23 -57t57 -23t57 23t23 57q0 32 -23.5 56t-56.5 24t-56.5 -24t-23.5 -56zM481 1794
q0 80 54.5 135t133.5 55q81 0 136.5 -55.5t55.5 -134.5q0 -80 -55.5 -135t-136.5 -55q-79 0 -133.5 55t-54.5 135z" />
    <glyph glyph-name="uring" unicode="&#x16f;" horiz-adv-x="1141" 
d="M574 -34q-201 0 -334.5 125t-133.5 287v588h320v-588q0 -84 41 -120.5t107 -36.5t107 36.5t41 120.5v588h320v-588q0 -162 -133.5 -287t-334.5 -125zM492 1351q0 -34 23 -57t57 -23t57 23t23 57q0 32 -23.5 56t-56.5 24t-56.5 -24t-23.5 -56zM384 1351q0 80 54.5 135
t133.5 55q81 0 136.5 -55.5t55.5 -134.5q0 -80 -55.5 -135t-136.5 -55q-79 0 -133.5 55t-54.5 135z" />
    <glyph glyph-name="Uhungarumlaut" unicode="&#x170;" horiz-adv-x="1342" 
d="M867 1434h359v-880q0 -262 -158 -417t-396 -155t-395.5 155t-157.5 417h-2l2 880h359v-880q0 -160 56 -220.5t138 -60.5q80 0 137.5 60.5t57.5 220.5v880zM520 1646h-204l191 342h245zM898 1646h-204l191 342h245z" />
    <glyph glyph-name="uhungarumlaut" unicode="&#x171;" horiz-adv-x="1141" 
d="M574 -34q-201 0 -334.5 125t-133.5 287v588h320v-588q0 -84 41 -120.5t107 -36.5t107 36.5t41 120.5v588h320v-588q0 -162 -133.5 -287t-334.5 -125zM423 1178h-204l191 342h245zM801 1178h-204l191 342h245z" />
    <glyph glyph-name="Uogonek" unicode="&#x172;" horiz-adv-x="1342" 
d="M740 -15q-33 -3 -68 -3q-238 0 -395.5 155t-157.5 417h-2l2 880h359v-880q0 -160 56 -220.5t138 -60.5q80 0 137.5 60.5t57.5 220.5v880h359v-880q0 -262 -158 -417q-19 -19 -39 -35q-163 -136 -163 -191t23.5 -76.5t69.5 -21.5q57 0 122 32v-116q-80 -32 -189 -32
q-102 0 -160.5 44.5t-58.5 120.5q0 44 67 123z" />
    <glyph glyph-name="uogonek" unicode="&#x173;" horiz-adv-x="1141" 
d="M602 -33q-14 -1 -28 -1q-201 0 -334.5 125t-133.5 287v588h320v-588q0 -84 41 -120.5t107 -36.5t107 36.5t41 120.5v588h320v-588q0 -162 -133 -287q-20 -18 -41 -34q-163 -136 -163 -191t23.5 -76.5t69.5 -21.5q57 0 122 32v-116q-80 -32 -189 -32q-102 0 -160.5 44.5
t-58.5 120.5q0 51 90 150z" />
    <glyph glyph-name="Wcircumflex" unicode="&#x174;" horiz-adv-x="1903" 
d="M958 92q-80 -110 -334 -110q-221 0 -362 156t-141 359v937h338v-937q0 -104 44.5 -164t120.5 -60q74 0 118.5 60t44.5 164v937h341v-937q0 -104 44 -164t120 -60q75 0 119.5 60t44.5 164v937h339v-937q0 -203 -141 -359t-362 -156q-256 0 -334 110zM959 1789l-151 -143
h-264l319 342h191l319 -342h-264z" />
    <glyph glyph-name="wcircumflex" unicode="&#x175;" horiz-adv-x="1641" 
d="M973 966v-583q0 -85 36.5 -121t90.5 -36q55 0 91.5 36t36.5 121v583h306v-583q0 -161 -122.5 -286.5t-311.5 -125.5q-211 0 -280 84q-69 -84 -281 -84q-189 0 -311 125.5t-122 286.5v583h305v-583q0 -85 37 -121t91 -36t90.5 36t36.5 121v583h307zM821 1321l-151 -143
h-264l319 342h191l319 -342h-264z" />
    <glyph glyph-name="Ycircumflex" unicode="&#x176;" horiz-adv-x="1227" 
d="M794 513v-513h-359v513q-86 19 -208.5 152t-122.5 336v433h359v-433q0 -105 38.5 -164t112.5 -59t113 59t39 164v433h359v-433q0 -203 -123 -336t-208 -152zM615 1789l-151 -143h-264l319 342h191l319 -342h-264z" />
    <glyph glyph-name="ycircumflex" unicode="&#x177;" horiz-adv-x="1141" 
d="M731 -11v-393h-321v396q-76 14 -176 108q-128 120 -128 282v584h320v-584q0 -84 41 -120.5t107 -36.5t107 36.5t41 120.5v584h320v-584q0 -162 -127 -282q-105 -97 -184 -111zM575 1321l-151 -143h-264l319 342h191l319 -342h-264z" />
    <glyph glyph-name="Ydieresis" unicode="&#x178;" horiz-adv-x="1227" 
d="M794 513v-513h-359v513q-86 19 -208.5 152t-122.5 336v433h359v-433q0 -105 38.5 -164t112.5 -59t113 59t39 164v433h359v-433q0 -203 -123 -336t-208 -152zM448 1698q-49 0 -84.5 35.5t-35.5 84.5t35.5 84.5t84.5 35.5t84.5 -35.5t35.5 -84.5t-35.5 -84.5t-84.5 -35.5z
M781 1698q-50 0 -85 35.5t-35 84.5t35 84.5t85 35.5q49 0 84.5 -35.5t35.5 -84.5t-35.5 -84.5t-84.5 -35.5z" />
    <glyph glyph-name="Zacute" unicode="&#x179;" horiz-adv-x="1133" 
d="M109 1434h694q284 0 284 -201q0 -75 -144 -271l-494 -680h656v-282h-788q-284 0 -284 190q0 88 138 277l501 686h-563v281zM595 1646h-204l290 342h305z" />
    <glyph glyph-name="zacute" unicode="&#x17a;" horiz-adv-x="953" 
d="M79 966h569q258 0 258 -179q0 -71 -130 -221l-321 -346h451v-220h-621q-240 0 -240 168q0 104 165 273l283 305h-414v220zM501 1178h-204l290 342h305z" />
    <glyph glyph-name="Zdotaccent" unicode="&#x17b;" horiz-adv-x="1133" 
d="M109 1434h694q284 0 284 -201q0 -75 -144 -271l-494 -680h656v-282h-788q-284 0 -284 190q0 88 138 277l501 686h-563v281zM569 1698q-49 0 -84.5 35.5t-35.5 84.5t35.5 84.5t84.5 35.5t84.5 -35.5t35.5 -84.5t-35.5 -84.5t-84.5 -35.5z" />
    <glyph glyph-name="zdotaccent" unicode="&#x17c;" horiz-adv-x="953" 
d="M79 966h569q258 0 258 -179q0 -71 -130 -221l-321 -346h451v-220h-621q-240 0 -240 168q0 104 165 273l283 305h-414v220zM478 1230q-49 0 -84.5 35.5t-35.5 84.5t35.5 84.5t84.5 35.5t84.5 -35.5t35.5 -84.5t-35.5 -84.5t-84.5 -35.5z" />
    <glyph glyph-name="Zcaron" unicode="&#x17d;" horiz-adv-x="1133" 
d="M109 1434h694q284 0 284 -201q0 -75 -144 -271l-494 -680h656v-282h-788q-284 0 -284 190q0 88 138 277l501 686h-563v281zM720 1988h264l-319 -342h-191l-319 342h264l151 -143z" />
    <glyph glyph-name="zcaron" unicode="&#x17e;" horiz-adv-x="953" 
d="M79 966h569q258 0 258 -179q0 -71 -130 -221l-321 -346h451v-220h-621q-240 0 -240 168q0 104 165 273l283 305h-414v220zM628 1520h264l-319 -342h-191l-319 342h264l151 -143z" />
    <glyph glyph-name="longs" unicode="&#x17f;" horiz-adv-x="757" 
d="M581 1484h181v-220h-181q-73 0 -106.5 -54t-33.5 -127v-1083h-320v966q0 261 123 389.5t337 128.5z" />
    <glyph glyph-name="uni018F" unicode="&#x18f;" horiz-adv-x="1625" 
d="M1107 713q0 148 -83 256.5t-226 108.5q-116 0 -218 -60.5t-127 -183.5l-392 123q50 178 228 337t509 159q330 0 548 -221t218 -519q0 -289 -218 -510.5t-548 -221.5q-314 0 -494 154t-220 315l765 474l149 -212l-418 -257q89 -99 189 -99q144 0 241 99t97 258z" />
    <glyph glyph-name="florin" unicode="&#x192;" horiz-adv-x="757" 
d="M121 966q0 261 123 389.5t337 128.5h181v-220h-181q-73 0 -106.5 -54t-33.5 -127v-117h321v-220h-321v-632q0 -261 -123 -389.5t-337 -128.5h-181v220h181q73 0 106.5 54t33.5 127v969z" />
    <glyph glyph-name="uni0197" unicode="&#x197;" horiz-adv-x="632" 
d="M137 777v657h359v-657h179v-120h-179v-657h-359v657h-179v120h179z" />
    <glyph glyph-name="uni019A" unicode="&#x19a;" horiz-adv-x="564" 
d="M121 802v682h320v-682h199v-120h-199v-682h-320v682h-198v120h198z" />
    <glyph glyph-name="Ohorn" unicode="&#x1a0;" horiz-adv-x="1660" 
d="M1272 717q0 203 -131.5 336.5t-299.5 133.5q-169 0 -299.5 -133t-130.5 -337q0 -205 130.5 -337.5t299.5 -132.5q168 0 299.5 132.5t131.5 337.5zM1375 1251l20 -19q222 -220 222 -515t-222.5 -515t-553.5 -220q-330 0 -552.5 220t-222.5 515t222.5 515t552.5 220
q238 0 420 -114l49 38q53 39 53 120v143h215l-22 -203q-7 -61 -76 -119z" />
    <glyph glyph-name="ohorn" unicode="&#x1a1;" horiz-adv-x="1194" 
d="M816 500q0 112 -68 181.5t-149 69.5t-149 -69.5t-68 -181.5q0 -114 68 -183t149 -69t149 69t68 183zM1043 790q94 -130 94 -290q0 -205 -153 -360t-385 -155t-385 155t-153 360q0 204 153 359t385 155q205 0 349 -121l21 16q53 39 53 120v143h215l-22 -203
q-7 -61 -76 -119z" />
    <glyph glyph-name="Uhorn" unicode="&#x1af;" horiz-adv-x="1342" 
d="M1226 1242v-688q0 -262 -158 -417t-396 -155t-395.5 155t-157.5 417h-2l2 880h359v-880q0 -160 56 -220.5t138 -60.5q80 0 137.5 60.5t57.5 220.5v880h353q10 27 10 63v143h215l-22 -203q-7 -61 -76 -119z" />
    <glyph glyph-name="uhorn" unicode="&#x1b0;" horiz-adv-x="1141" 
d="M1042 770v-392q0 -162 -133.5 -287t-334.5 -125t-334.5 125t-133.5 287v588h320v-588q0 -84 41 -120.5t107 -36.5t107 36.5t41 120.5v588h320q10 27 10 63v143h215l-22 -203q-7 -61 -76 -119z" />
    <glyph glyph-name="uni01B5" unicode="&#x1b5;" horiz-adv-x="1133" 
d="M397 777l275 376h-563v281h694q284 0 284 -201q0 -75 -144 -271l-134 -185h195v-120h-283l-272 -375h656v-282h-788q-284 0 -284 190q0 88 138 277l139 190h-176v120h263z" />
    <glyph glyph-name="uni01B6" unicode="&#x1b6;" horiz-adv-x="953" 
d="M305 543l188 203h-414v220h569q258 0 258 -179q0 -71 -130 -221l-21 -23h114v-120h-226l-188 -203h451v-220h-621q-240 0 -240 168q0 98 148 255h-148v120h260z" />
    <glyph glyph-name="uni01C4" unicode="&#x1c4;" horiz-adv-x="2519" 
d="M490 1143v-1143h-359v1434h434q323 0 540 -215t217 -502t-217 -502t-513 -215v291q129 0 250 120t121 306q0 187 -121 306.5t-277 119.5h-75zM1495 1434h694q284 0 284 -201q0 -75 -144 -271l-494 -680h656v-282h-788q-284 0 -284 190q0 88 138 277l501 686h-563v281z
M2106 1988h264l-319 -342h-191l-319 342h264l151 -143z" />
    <glyph glyph-name="uni01C5" unicode="&#x1c5;" horiz-adv-x="2339" 
d="M490 1143v-1143h-359v1434h434q323 0 540 -215t217 -502t-217 -502t-513 -215v291q129 0 250 120t121 306q0 187 -121 306.5t-277 119.5h-75zM1465 966h569q258 0 258 -179q0 -71 -130 -221l-321 -346h451v-220h-621q-240 0 -240 168q0 104 165 273l283 305h-414v220z
M2012 1520h264l-319 -342h-191l-319 342h264l151 -143z" />
    <glyph glyph-name="uni01C6" unicode="&#x1c6;" horiz-adv-x="2184" 
d="M642 -18q-232 0 -385 155t-153 364q0 203 153 358t335 155q107 0 211 -43v-295q-86 75 -181 75q-71 0 -134 -69t-63 -181q0 -114 58 -185t159 -71t159 71t58 235h1v933h320v-983q0 -209 -153 -364t-385 -155zM1310 966h569q258 0 258 -179q0 -71 -130 -221l-321 -346h451
v-220h-621q-240 0 -240 168q0 104 165 273l283 305h-414v220zM1857 1520h264l-319 -342h-191l-319 342h264l151 -143z" />
    <glyph glyph-name="uni01C7" unicode="&#x1c7;" horiz-adv-x="2031" 
d="M117 1434h359v-955q17 -197 155 -197h354v-282h-293q-575 0 -575 528v906zM1557 1434h357v-906q0 -528 -565 -528h-277v282h328q139 0 157 197v955z" />
    <glyph glyph-name="uni01C8" unicode="&#x1c8;" horiz-adv-x="1538" 
d="M117 1434h359v-955q17 -197 155 -197h354v-282h-293q-575 0 -575 528v906zM1090 966h320v-968q0 -402 -476 -402h-165v220h198q123 0 123 182v968zM1250 1035q-79 0 -124.5 55.5t-45.5 114.5q0 61 45.5 115.5t124.5 54.5t124.5 -54.5t45.5 -115.5q0 -59 -45.5 -114.5
t-124.5 -55.5z" />
    <glyph glyph-name="uni01C9" unicode="&#x1c9;" horiz-adv-x="1126" 
d="M121 1484h320v-1484h-320v1484zM678 966h320v-968q0 -402 -476 -402h-165v220h198q123 0 123 182v968zM838 1035q-79 0 -124.5 55.5t-45.5 114.5q0 61 45.5 115.5t124.5 54.5t124.5 -54.5t45.5 -115.5q0 -59 -45.5 -114.5t-124.5 -55.5z" />
    <glyph glyph-name="uni01CA" unicode="&#x1ca;" horiz-adv-x="2353" 
d="M365 1460q187 0 316 -289l241 -511v774h348v-1163q0 -288 -240 -288q-172 0 -296 276l-253 522v-781h-350v1159q0 301 234 301zM1879 1434h357v-906q0 -528 -565 -528h-277v282h328q139 0 157 197v955z" />
    <glyph glyph-name="uni01CB" unicode="&#x1cb;" horiz-adv-x="1960" 
d="M365 1460q187 0 316 -289l241 -511v774h348v-1163q0 -288 -240 -288q-172 0 -296 276l-253 522v-781h-350v1159q0 301 234 301zM1512 966h320v-968q0 -402 -476 -402h-165v220h198q123 0 123 182v968zM1672 1035q-79 0 -124.5 55.5t-45.5 114.5q0 61 45.5 115.5
t124.5 54.5t124.5 -54.5t45.5 -115.5q0 -59 -45.5 -114.5t-124.5 -55.5z" />
    <glyph glyph-name="uni01CC" unicode="&#x1cc;" horiz-adv-x="1703" 
d="M1042 602v-602h-320v602q0 84 -41 120.5t-107 36.5t-107 -36.5t-41 -120.5v-602h-320v602q0 162 133.5 287t334.5 125t334.5 -125t133.5 -287zM1255 966h320v-968q0 -402 -476 -402h-165v220h198q123 0 123 182v968zM1415 1035q-79 0 -124.5 55.5t-45.5 114.5
q0 61 45.5 115.5t124.5 54.5t124.5 -54.5t45.5 -115.5q0 -59 -45.5 -114.5t-124.5 -55.5z" />
    <glyph glyph-name="uni01CD" unicode="&#x1cd;" horiz-adv-x="1339" 
d="M1223 932v-932h-359v605h-317v282h317v45q0 102 -61.5 163t-132.5 61t-132.5 -61t-61.5 -220v-875h-359v932q0 204 157.5 360t395.5 156t395.5 -156t157.5 -360zM821 1988h264l-319 -342h-191l-319 342h264l151 -143z" />
    <glyph glyph-name="uni01CE" unicode="&#x1ce;" horiz-adv-x="1231" 
d="M1139 501v-501h-321v501q0 112 -68 181t-149 69t-149 -69t-68 -181q0 -114 53 -185t114 -71q48 0 106 16l104 -212q-80 -67 -210 -67q-192 0 -340 157t-148 362q0 203 153 358t385 155t385 -155t153 -358zM752 1520h264l-319 -342h-191l-319 342h264l151 -143z" />
    <glyph glyph-name="uni01CF" unicode="&#x1cf;" horiz-adv-x="632" 
d="M137 1434h359v-1434h-359v1434zM469 1988h264l-319 -342h-191l-319 342h264l151 -143z" />
    <glyph glyph-name="uni01D0" unicode="&#x1d0;" horiz-adv-x="562" 
d="M114 966h320v-966h-320v966zM427 1520h264l-319 -342h-191l-319 342h264l151 -143z" />
    <glyph glyph-name="uni01D1" unicode="&#x1d1;" horiz-adv-x="1660" 
d="M841 -18q-330 0 -552.5 220t-222.5 515t222.5 515t552.5 220q331 0 553.5 -220t222.5 -515t-222.5 -515t-553.5 -220zM1272 717q0 203 -131.5 336.5t-299.5 133.5q-169 0 -299.5 -133t-130.5 -337q0 -205 130.5 -337.5t299.5 -132.5q168 0 299.5 132.5t131.5 337.5z
M992 1988h264l-319 -342h-191l-319 342h264l151 -143z" />
    <glyph glyph-name="uni01D2" unicode="&#x1d2;" horiz-adv-x="1194" 
d="M816 500q0 112 -68 181.5t-149 69.5t-149 -69.5t-68 -181.5q0 -114 68 -183t149 -69t149 69t68 183zM61 500q0 204 153 359t385 155t385 -155t153 -359q0 -205 -153 -360t-385 -155t-385 155t-153 360zM750 1520h264l-319 -342h-191l-319 342h264l151 -143z" />
    <glyph glyph-name="uni01D3" unicode="&#x1d3;" horiz-adv-x="1342" 
d="M867 1434h359v-880q0 -262 -158 -417t-396 -155t-395.5 155t-157.5 417h-2l2 880h359v-880q0 -160 56 -220.5t138 -60.5q80 0 137.5 60.5t57.5 220.5v880zM822 1988h264l-319 -342h-191l-319 342h264l151 -143z" />
    <glyph glyph-name="uni01D4" unicode="&#x1d4;" horiz-adv-x="1141" 
d="M574 -34q-201 0 -334.5 125t-133.5 287v588h320v-588q0 -84 41 -120.5t107 -36.5t107 36.5t41 120.5v588h320v-588q0 -162 -133.5 -287t-334.5 -125zM725 1520h264l-319 -342h-191l-319 342h264l151 -143z" />
    <glyph glyph-name="uni01D5" unicode="&#x1d5;" horiz-adv-x="1342" 
d="M867 1434h359v-880q0 -262 -158 -417t-396 -155t-395.5 155t-157.5 417h-2l2 880h359v-880q0 -160 56 -220.5t138 -60.5q80 0 137.5 60.5t57.5 220.5v880zM507 1522q-49 0 -84.5 35.5t-35.5 84.5t35.5 84.5t84.5 35.5t84.5 -35.5t35.5 -84.5t-35.5 -84.5t-84.5 -35.5z
M840 1522q-50 0 -85 35.5t-35 84.5t35 84.5t85 35.5q49 0 84.5 -35.5t35.5 -84.5t-35.5 -84.5t-84.5 -35.5zM374 1830v160h600v-160h-600z" />
    <glyph glyph-name="uni01D6" unicode="&#x1d6;" horiz-adv-x="1141" 
d="M574 -34q-201 0 -334.5 125t-133.5 287v588h320v-588q0 -84 41 -120.5t107 -36.5t107 36.5t41 120.5v588h320v-588q0 -162 -133.5 -287t-334.5 -125zM408 1230q-49 0 -84.5 35.5t-35.5 84.5t35.5 84.5t84.5 35.5t84.5 -35.5t35.5 -84.5t-35.5 -84.5t-84.5 -35.5z
M741 1230q-50 0 -85 35.5t-35 84.5t35 84.5t85 35.5q49 0 84.5 -35.5t35.5 -84.5t-35.5 -84.5t-84.5 -35.5zM274 1571v160h600v-160h-600z" />
    <glyph glyph-name="uni01D7" unicode="&#x1d7;" horiz-adv-x="1342" 
d="M867 1434h359v-880q0 -262 -158 -417t-396 -155t-395.5 155t-157.5 417h-2l2 880h359v-880q0 -160 56 -220.5t138 -60.5q80 0 137.5 60.5t57.5 220.5v880zM477 1522q-49 0 -84.5 35.5t-35.5 84.5t35.5 84.5t84.5 35.5t84.5 -35.5t35.5 -84.5t-35.5 -84.5t-84.5 -35.5z
M810 1522q-50 0 -85 35.5t-35 84.5t35 84.5t85 35.5q49 0 84.5 -35.5t35.5 -84.5t-35.5 -84.5t-84.5 -35.5zM715 1762h-144l184 229h245z" />
    <glyph glyph-name="uni01D8" unicode="&#x1d8;" horiz-adv-x="1141" 
d="M574 -34q-201 0 -334.5 125t-133.5 287v588h320v-588q0 -84 41 -120.5t107 -36.5t107 36.5t41 120.5v588h320v-588q0 -162 -133.5 -287t-334.5 -125zM408 1230q-49 0 -84.5 35.5t-35.5 84.5t35.5 84.5t84.5 35.5t84.5 -35.5t35.5 -84.5t-35.5 -84.5t-84.5 -35.5z
M741 1230q-50 0 -85 35.5t-35 84.5t35 84.5t85 35.5q49 0 84.5 -35.5t35.5 -84.5t-35.5 -84.5t-84.5 -35.5zM600 1478h-204l290 342h305z" />
    <glyph glyph-name="uni01D9" unicode="&#x1d9;" horiz-adv-x="1342" 
d="M867 1434h359v-880q0 -262 -158 -417t-396 -155t-395.5 155t-157.5 417h-2l2 880h359v-880q0 -160 56 -220.5t138 -60.5q80 0 137.5 60.5t57.5 220.5v880zM498 1522q-49 0 -84.5 35.5t-35.5 84.5t35.5 84.5t84.5 35.5t84.5 -35.5t35.5 -84.5t-35.5 -84.5t-84.5 -35.5z
M831 1522q-50 0 -85 35.5t-35 84.5t35 84.5t85 35.5q49 0 84.5 -35.5t35.5 -84.5t-35.5 -84.5t-84.5 -35.5zM625 1762l-314 229h195l161 -70l161 70h195l-313 -229h-85z" />
    <glyph glyph-name="uni01DA" unicode="&#x1da;" horiz-adv-x="1141" 
d="M574 -34q-201 0 -334.5 125t-133.5 287v588h320v-588q0 -84 41 -120.5t107 -36.5t107 36.5t41 120.5v588h320v-588q0 -162 -133.5 -287t-334.5 -125zM408 1230q-49 0 -84.5 35.5t-35.5 84.5t35.5 84.5t84.5 35.5t84.5 -35.5t35.5 -84.5t-35.5 -84.5t-84.5 -35.5z
M741 1230q-50 0 -85 35.5t-35 84.5t35 84.5t85 35.5q49 0 84.5 -35.5t35.5 -84.5t-35.5 -84.5t-84.5 -35.5zM725 1820h264l-319 -342h-191l-319 342h264l151 -143z" />
    <glyph glyph-name="uni01DB" unicode="&#x1db;" horiz-adv-x="1342" 
d="M867 1434h359v-880q0 -262 -158 -417t-396 -155t-395.5 155t-157.5 417h-2l2 880h359v-880q0 -160 56 -220.5t138 -60.5q80 0 137.5 60.5t57.5 220.5v880zM522 1522q-49 0 -84.5 35.5t-35.5 84.5t35.5 84.5t84.5 35.5t84.5 -35.5t35.5 -84.5t-35.5 -84.5t-84.5 -35.5z
M855 1522q-50 0 -85 35.5t-35 84.5t35 84.5t85 35.5q49 0 84.5 -35.5t35.5 -84.5t-35.5 -84.5t-84.5 -35.5zM335 1991h245l184 -229h-144z" />
    <glyph glyph-name="uni01DC" unicode="&#x1dc;" horiz-adv-x="1141" 
d="M574 -34q-201 0 -334.5 125t-133.5 287v588h320v-588q0 -84 41 -120.5t107 -36.5t107 36.5t41 120.5v588h320v-588q0 -162 -133.5 -287t-334.5 -125zM408 1230q-49 0 -84.5 35.5t-35.5 84.5t35.5 84.5t84.5 35.5t84.5 -35.5t35.5 -84.5t-35.5 -84.5t-84.5 -35.5z
M741 1230q-50 0 -85 35.5t-35 84.5t35 84.5t85 35.5q49 0 84.5 -35.5t35.5 -84.5t-35.5 -84.5t-84.5 -35.5zM159 1820h305l290 -342h-204z" />
    <glyph glyph-name="uni01DD" unicode="&#x1dd;" horiz-adv-x="1199" 
d="M795 462q0 104 -58 180t-159 76q-81 0 -152.5 -42.5t-89.5 -128.5l-275 86q35 125 160 236.5t357 111.5t385 -155t153 -364q0 -203 -153 -358.5t-385 -155.5q-220 0 -346.5 108t-154.5 221l537 333l105 -149l-294 -180q63 -70 133 -70q101 0 169 69.5t68 181.5z" />
    <glyph glyph-name="uni01DD" unicode="&#x259;" horiz-adv-x="1199" 
d="M795 462q0 104 -58 180t-159 76q-81 0 -152.5 -42.5t-89.5 -128.5l-275 86q35 125 160 236.5t357 111.5t385 -155t153 -364q0 -203 -153 -358.5t-385 -155.5q-220 0 -346.5 108t-154.5 221l537 333l105 -149l-294 -180q63 -70 133 -70q101 0 169 69.5t68 181.5z" />
    <glyph glyph-name="uni01DE" unicode="&#x1de;" horiz-adv-x="1339" 
d="M1223 932v-932h-359v605h-317v282h317v45q0 102 -61.5 163t-132.5 61t-132.5 -61t-61.5 -220v-875h-359v932q0 204 157.5 360t395.5 156t395.5 -156t157.5 -360zM506 1522q-49 0 -84.5 35.5t-35.5 84.5t35.5 84.5t84.5 35.5t84.5 -35.5t35.5 -84.5t-35.5 -84.5
t-84.5 -35.5zM839 1522q-50 0 -85 35.5t-35 84.5t35 84.5t85 35.5q49 0 84.5 -35.5t35.5 -84.5t-35.5 -84.5t-84.5 -35.5zM373 1830v160h600v-160h-600z" />
    <glyph glyph-name="uni01DF" unicode="&#x1df;" horiz-adv-x="1231" 
d="M1139 501v-501h-321v501q0 112 -68 181t-149 69t-149 -69t-68 -181q0 -114 53 -185t114 -71q48 0 106 16l104 -212q-80 -67 -210 -67q-192 0 -340 157t-148 362q0 203 153 358t385 155t385 -155t153 -358zM435 1230q-49 0 -84.5 35.5t-35.5 84.5t35.5 84.5t84.5 35.5
t84.5 -35.5t35.5 -84.5t-35.5 -84.5t-84.5 -35.5zM768 1230q-50 0 -85 35.5t-35 84.5t35 84.5t85 35.5q49 0 84.5 -35.5t35.5 -84.5t-35.5 -84.5t-84.5 -35.5zM301 1571v160h600v-160h-600z" />
    <glyph glyph-name="uni01E0" unicode="&#x1e0;" horiz-adv-x="1339" 
d="M1223 932v-932h-359v605h-317v282h317v45q0 102 -61.5 163t-132.5 61t-132.5 -61t-61.5 -220v-875h-359v932q0 204 157.5 360t395.5 156t395.5 -156t157.5 -360zM669 1522q-51 0 -85.5 35.5t-34.5 84.5t34.5 84.5t85.5 35.5q49 0 84.5 -35.5t35.5 -84.5t-35.5 -84.5
t-84.5 -35.5zM369 1830v160h600v-160h-600z" />
    <glyph glyph-name="uni01E1" unicode="&#x1e1;" horiz-adv-x="1231" 
d="M1139 501v-501h-321v501q0 112 -68 181t-149 69t-149 -69t-68 -181q0 -114 53 -185t114 -71q48 0 106 16l104 -212q-80 -67 -210 -67q-192 0 -340 157t-148 362q0 203 153 358t385 155t385 -155t153 -358zM601 1230q-49 0 -84.5 35.5t-35.5 84.5t35.5 84.5t84.5 35.5
t84.5 -35.5t35.5 -84.5t-35.5 -84.5t-84.5 -35.5zM301 1571v160h600v-160h-600z" />
    <glyph glyph-name="uni01E2" unicode="&#x1e2;" horiz-adv-x="1943" 
d="M1223 96v-96h-359v577h-317v280h317v75q0 102 -61.5 163t-132.5 61t-132.5 -61t-61.5 -220v-875h-359v932q0 204 157.5 360t395.5 156t396 -156l37 -40q208 182 505 182h221v-281h-221q-155 0 -262.5 -108.5t-120.5 -187.5h604v-280h-604q12 -78 120 -187t263 -109h221
v-281h-221q-216 0 -385 96zM673 1739v160h600v-160h-600z" />
    <glyph glyph-name="uni01E3" unicode="&#x1e3;" horiz-adv-x="1957" 
d="M1139 22v-22h-321v501q0 112 -68 181t-149 69t-149 -69t-68 -181q0 -114 53 -185t114 -71q48 0 106 16l104 -212q-80 -67 -210 -67q-192 0 -340 157t-148 362q0 203 153 358t385 155q227 0 378 -148q151 148 378 148q220 0 346.5 -108t154.5 -221l-537 -333l-105 149
l294 180q-63 70 -133 70q-101 0 -169 -69.5t-68 -181.5q0 -104 58 -180t159 -76q81 0 152.5 42.5t89.5 128.5l275 -86q-35 -125 -160 -236.5t-357 -111.5q-119 0 -218 41zM669 1271v160h600v-160h-600z" />
    <glyph glyph-name="uni01E4" unicode="&#x1e4;" horiz-adv-x="1660" 
d="M1226 491q30 52 34 98h-455v212h795q17 -51 17 -134q0 -90 -30 -176h60v-120h-117q-52 -86 -135 -169q-223 -220 -554 -220q-330 0 -552.5 220t-222.5 515t222.5 515t552.5 220q401 0 630 -324l-222 -165q-180 224 -408 224q-169 0 -299.5 -133t-130.5 -337
q0 -205 130.5 -337.5t299.5 -132.5q168 0 289 122l2 2h-260v120h354z" />
    <glyph glyph-name="uni01E5" unicode="&#x1e5;" horiz-adv-x="1231" 
d="M1139 439v-405q0 -200 -153 -320t-385 -120q-222 0 -405 146l106 159q158 -112 299 -112q111 0 164 54t53 183l1 415h-431q12 -74 54 -124q58 -70 139 -70q85 0 181 66v-286q-83 -43 -171 -43q-212 0 -370 156q-134 132 -154 301h-60v120h59q20 168 150 300
q153 155 385 155t385 -155q130 -132 150 -300h107v-120h-104zM808 559q-14 67 -48 113q-58 79 -159 79t-159 -69q-42 -50 -54 -123h420z" />
    <glyph glyph-name="Gcaron" unicode="&#x1e6;" horiz-adv-x="1660" 
d="M1260 589h-455v212h795q17 -51 17 -134q0 -245 -222.5 -465t-553.5 -220q-330 0 -552.5 220t-222.5 515t222.5 515t552.5 220q401 0 630 -324l-222 -165q-180 224 -408 224q-169 0 -299.5 -133t-130.5 -337q0 -205 130.5 -337.5t299.5 -132.5q168 0 289 122t130 220z
M992 1988h264l-319 -342h-191l-319 342h264l151 -143z" />
    <glyph glyph-name="gcaron" unicode="&#x1e7;" horiz-adv-x="1231" 
d="M601 -213q111 0 164 54t53 183l1 426q-1 143 -59 222t-159 79t-159 -69t-58 -182q0 -116 58 -185.5t139 -69.5q85 0 181 66v-286q-83 -43 -171 -43q-212 0 -370 155.5t-158 362.5q0 204 153 359t385 155t385 -155t153 -359v-466q0 -200 -153 -320t-385 -120
q-222 0 -405 146l106 159q158 -112 299 -112zM752 1520h264l-319 -342h-191l-319 342h264l151 -143z" />
    <glyph glyph-name="uni01E8" unicode="&#x1e8;" horiz-adv-x="1300" 
d="M131 1434h359v-547h96q64 0 177 241l148 306h360q-206 -534 -348 -594q96 -9 179 -118.5t83 -302.5v-419h-357v393q0 212 -149 212h-189v-605h-359v1434zM852 1988h264l-319 -342h-191l-319 342h264l151 -143z" />
    <glyph glyph-name="uni01E9" unicode="&#x1e9;" horiz-adv-x="1093" 
d="M121 1484h320v-835h42q77 0 248 317h323q-152 -312 -240 -368q59 0 111 -74t57 -180v-344h-321v296q0 63 -19.5 98t-76.5 35h-124v-429h-320v1484zM738 1988h264l-319 -342h-191l-319 342h264l151 -143z" />
    <glyph glyph-name="uni01EA" unicode="&#x1ea;" horiz-adv-x="1660" 
d="M1272 717q0 203 -131.5 336.5t-299.5 133.5q-169 0 -299.5 -133t-130.5 -337q0 -205 130.5 -337.5t299.5 -132.5q168 0 299.5 132.5t131.5 337.5zM1017 -1q-84 -17 -176 -17q-330 0 -552.5 220t-222.5 515t222.5 515t552.5 220q331 0 553.5 -220t222.5 -515t-222 -515
q-34 -33 -69 -61q-160 -134 -160 -188q0 -55 23.5 -76.5t69.5 -21.5q57 0 122 32v-116q-80 -32 -189 -32q-102 0 -160.5 44.5t-58.5 120.5q0 36 44 95z" />
    <glyph glyph-name="uni01EB" unicode="&#x1eb;" horiz-adv-x="1194" 
d="M816 500q0 112 -68 181.5t-149 69.5t-149 -69.5t-68 -181.5q0 -114 68 -183t149 -69t149 69t68 183zM664 -12q-31 -3 -65 -3q-232 0 -385 155t-153 360q0 204 153 359t385 155t385 -155t153 -359q0 -205 -153 -360l-12 -12q-1 -1 -2 -1q-19 -18 -39 -34
q-122 -108 -122 -156q0 -55 23.5 -76.5t69.5 -21.5q57 0 122 32v-116q-80 -32 -189 -32q-102 0 -160.5 44.5t-58.5 120.5q0 38 48 100z" />
    <glyph glyph-name="uni01EC" unicode="&#x1ec;" horiz-adv-x="1660" 
d="M1272 717q0 203 -131.5 336.5t-299.5 133.5q-169 0 -299.5 -133t-130.5 -337q0 -205 130.5 -337.5t299.5 -132.5q168 0 299.5 132.5t131.5 337.5zM1017 -1q-84 -17 -176 -17q-330 0 -552.5 220t-222.5 515t222.5 515t552.5 220q331 0 553.5 -220t222.5 -515t-222 -515
q-34 -33 -69 -61q-160 -134 -160 -188q0 -55 23.5 -76.5t69.5 -21.5q57 0 122 32v-116q-80 -32 -189 -32q-102 0 -160.5 44.5t-58.5 120.5q0 36 44 95zM542 1739v160h600v-160h-600z" />
    <glyph glyph-name="uni01ED" unicode="&#x1ed;" horiz-adv-x="1194" 
d="M816 500q0 112 -68 181.5t-149 69.5t-149 -69.5t-68 -181.5q0 -114 68 -183t149 -69t149 69t68 183zM664 -12q-31 -3 -65 -3q-232 0 -385 155t-153 360q0 204 153 359t385 155t385 -155t153 -359q0 -205 -153 -360l-12 -12q-1 -1 -2 -1q-19 -18 -39 -34
q-122 -108 -122 -156q0 -55 23.5 -76.5t69.5 -21.5q57 0 122 32v-116q-80 -32 -189 -32q-102 0 -160.5 44.5t-58.5 120.5q0 38 48 100zM299 1271v160h600v-160h-600z" />
    <glyph glyph-name="uni01F0" unicode="&#x1f0;" horiz-adv-x="562" 
d="M114 966h320v-968q0 -402 -476 -402h-165v220h198q123 0 123 182v968zM426 1520h264l-319 -342h-191l-319 342h264l151 -143z" />
    <glyph glyph-name="uni01F1" unicode="&#x1f1;" horiz-adv-x="2519" 
d="M490 1143v-1143h-359v1434h434q323 0 540 -215t217 -502t-217 -502t-513 -215v291q129 0 250 120t121 306q0 187 -121 306.5t-277 119.5h-75zM1495 1434h694q284 0 284 -201q0 -75 -144 -271l-494 -680h656v-282h-788q-284 0 -284 190q0 88 138 277l501 686h-563v281z
" />
    <glyph glyph-name="uni01F2" unicode="&#x1f2;" horiz-adv-x="2339" 
d="M490 1143v-1143h-359v1434h434q323 0 540 -215t217 -502t-217 -502t-513 -215v291q129 0 250 120t121 306q0 187 -121 306.5t-277 119.5h-75zM1465 966h569q258 0 258 -179q0 -71 -130 -221l-321 -346h451v-220h-621q-240 0 -240 168q0 104 165 273l283 305h-414v220z
" />
    <glyph glyph-name="uni01F3" unicode="&#x1f3;" horiz-adv-x="2184" 
d="M642 -18q-232 0 -385 155t-153 364q0 203 153 358t335 155q107 0 211 -43v-295q-86 75 -181 75q-71 0 -134 -69t-63 -181q0 -114 58 -185t159 -71t159 71t58 235h1v933h320v-983q0 -209 -153 -364t-385 -155zM1310 966h569q258 0 258 -179q0 -71 -130 -221l-321 -346h451
v-220h-621q-240 0 -240 168q0 104 165 273l283 305h-414v220z" />
    <glyph glyph-name="uni01F4" unicode="&#x1f4;" horiz-adv-x="1660" 
d="M1260 589h-455v212h795q17 -51 17 -134q0 -245 -222.5 -465t-553.5 -220q-330 0 -552.5 220t-222.5 515t222.5 515t552.5 220q401 0 630 -324l-222 -165q-180 224 -408 224q-169 0 -299.5 -133t-130.5 -337q0 -205 130.5 -337.5t299.5 -132.5q168 0 289 122t130 220z
M867 1646h-204l290 342h305z" />
    <glyph glyph-name="uni01F5" unicode="&#x1f5;" horiz-adv-x="1231" 
d="M601 -213q111 0 164 54t53 183l1 426q-1 143 -59 222t-159 79t-159 -69t-58 -182q0 -116 58 -185.5t139 -69.5q85 0 181 66v-286q-83 -43 -171 -43q-212 0 -370 155.5t-158 362.5q0 204 153 359t385 155t385 -155t153 -359v-466q0 -200 -153 -320t-385 -120
q-222 0 -405 146l106 159q158 -112 299 -112zM627 1178h-204l290 342h305z" />
    <glyph glyph-name="uni01F8" unicode="&#x1f8;" horiz-adv-x="1398" 
d="M365 1460q187 0 316 -289l241 -511v774h348v-1163q0 -288 -240 -288q-172 0 -296 276l-253 522v-781h-350v1159q0 301 234 301zM284 1988h305l290 -342h-204z" />
    <glyph glyph-name="uni01F9" unicode="&#x1f9;" horiz-adv-x="1141" 
d="M1042 602v-602h-320v602q0 84 -41 120.5t-107 36.5t-107 -36.5t-41 -120.5v-602h-320v602q0 162 133.5 287t334.5 125t334.5 -125t133.5 -287zM159 1520h305l290 -342h-204z" />
    <glyph glyph-name="Aringacute" unicode="&#x1fa;" horiz-adv-x="1339" 
d="M1223 932v-932h-359v605h-317v282h317v45q0 102 -61.5 163t-132.5 61t-132.5 -61t-61.5 -220v-875h-359v932q0 204 157.5 360t395.5 156t395.5 -156t157.5 -360zM597 1743q0 -34 23 -57t57 -23t57 23t23 57q0 32 -23.5 56t-56.5 24t-56.5 -24t-23.5 -56zM489 1743
q0 80 54.5 135t133.5 55q81 0 136.5 -55.5t55.5 -134.5q0 -80 -55.5 -135t-136.5 -55q-79 0 -133.5 55t-54.5 135zM1072 1743h-144l184 248h245z" />
    <glyph glyph-name="aringacute" unicode="&#x1fb;" horiz-adv-x="1231" 
d="M1139 501v-501h-321v501q0 112 -68 181t-149 69t-149 -69t-68 -181q0 -114 53 -185t114 -71q48 0 106 16l104 -212q-80 -67 -210 -67q-192 0 -340 157t-148 362q0 203 153 358t385 155t385 -155t153 -358zM519 1351q0 -34 23 -57t57 -23t57 23t23 57q0 32 -23.5 56
t-56.5 24t-56.5 -24t-23.5 -56zM411 1351q0 80 54.5 135t133.5 55q81 0 136.5 -55.5t55.5 -134.5q0 -80 -55.5 -135t-136.5 -55q-79 0 -133.5 55t-54.5 135zM1020 1351h-204l290 342h305z" />
    <glyph glyph-name="AEacute" unicode="&#x1fc;" horiz-adv-x="1943" 
d="M1223 96v-96h-359v577h-317v280h317v75q0 102 -61.5 163t-132.5 61t-132.5 -61t-61.5 -220v-875h-359v932q0 204 157.5 360t395.5 156t396 -156l37 -40q208 182 505 182h221v-281h-221q-155 0 -262.5 -108.5t-120.5 -187.5h604v-280h-604q12 -78 120 -187t263 -109h221
v-281h-221q-216 0 -385 96zM999 1646h-204l290 342h305z" />
    <glyph glyph-name="aeacute" unicode="&#x1fd;" horiz-adv-x="1957" 
d="M1139 22v-22h-321v501q0 112 -68 181t-149 69t-149 -69t-68 -181q0 -114 53 -185t114 -71q48 0 106 16l104 -212q-80 -67 -210 -67q-192 0 -340 157t-148 362q0 203 153 358t385 155q227 0 378 -148q151 148 378 148q220 0 346.5 -108t154.5 -221l-537 -333l-105 149
l294 180q-63 70 -133 70q-101 0 -169 -69.5t-68 -181.5q0 -104 58 -180t159 -76q81 0 152.5 42.5t89.5 128.5l275 -86q-35 -125 -160 -236.5t-357 -111.5q-119 0 -218 41zM994 1178h-204l290 342h305z" />
    <glyph glyph-name="Oslashacute" unicode="&#x1fe;" horiz-adv-x="1660" 
d="M804 249q18 -2 37 -2q168 0 299.5 132.5t131.5 337.5q0 203 -131 337q-45 45 -94 75zM646 298l245 886q-25 3 -50 3q-169 0 -299.5 -133t-130.5 -337q0 -205 131 -337q49 -51 104 -82zM1124 1405q151 -55 271 -173q222 -220 222 -515t-222.5 -515t-553.5 -220
q-56 0 -109 6l-42 -153h-172l52 190q-157 54 -281 177q-223 220 -223 515t222.5 515t552.5 220q63 0 122 -8l31 114h172zM867 1646h-204l290 342h305z" />
    <glyph glyph-name="oslashacute" unicode="&#x1ff;" horiz-adv-x="1194" 
d="M351 40q-75 37 -137 100q-153 155 -153 360q0 204 153 359t385 155q48 0 93 -7l58 164h170l-75 -211q76 -38 139 -101q153 -155 153 -359q0 -205 -153 -360t-385 -155q-50 0 -95 7l-56 -157h-169zM747 682l-153 -434h5q81 0 149 69t68 183q0 112 -68 182h-1zM449 318
l153 433h-3q-81 0 -149 -69.5t-68 -181.5q0 -113 67 -182zM625 1178h-204l290 342h305z" />
    <glyph glyph-name="uni0200" unicode="&#x200;" horiz-adv-x="1339" 
d="M1223 932v-932h-359v605h-317v282h317v45q0 102 -61.5 163t-132.5 61t-132.5 -61t-61.5 -220v-875h-359v932q0 204 157.5 360t395.5 156t395.5 -156t157.5 -360zM641 1988h245l191 -342h-204zM263 1988h245l191 -342h-204z" />
    <glyph glyph-name="uni0201" unicode="&#x201;" horiz-adv-x="1231" 
d="M1139 501v-501h-321v501q0 112 -68 181t-149 69t-149 -69t-68 -181q0 -114 53 -185t114 -71q48 0 106 16l104 -212q-80 -67 -210 -67q-192 0 -340 157t-148 362q0 203 153 358t385 155t385 -155t153 -358zM572 1520h245l191 -342h-204zM194 1520h245l191 -342h-204z" />
    <glyph glyph-name="uni0202" unicode="&#x202;" horiz-adv-x="1339" 
d="M1223 932v-932h-359v605h-317v282h317v45q0 102 -61.5 163t-132.5 61t-132.5 -61t-61.5 -220v-875h-359v932q0 204 157.5 360t395.5 156t395.5 -156t157.5 -360zM767 1656q-6 50 -43.5 87.5t-107.5 37.5t-106.5 -37t-42.5 -88h-191q22 146 113.5 221.5t226.5 75.5
q134 0 226.5 -76t115.5 -221h-191z" />
    <glyph glyph-name="uni0203" unicode="&#x203;" horiz-adv-x="1231" 
d="M1139 501v-501h-321v501q0 112 -68 181t-149 69t-149 -69t-68 -181q0 -114 53 -185t114 -71q48 0 106 16l104 -212q-80 -67 -210 -67q-192 0 -340 157t-148 362q0 203 153 358t385 155t385 -155t153 -358zM698 1188q-6 50 -43.5 87.5t-107.5 37.5t-106.5 -37t-42.5 -88
h-191q22 146 113.5 221.5t226.5 75.5q134 0 226.5 -76t115.5 -221h-191z" />
    <glyph glyph-name="uni0204" unicode="&#x204;" horiz-adv-x="1160" 
d="M442 857h604v-280h-604q12 -78 120 -187t263 -109h221v-281h-221q-323 0 -540 215t-217 502t217 502t540 215h221v-281h-221q-155 0 -262.5 -108.5t-120.5 -187.5zM636 1988h245l191 -342h-204zM258 1988h245l191 -342h-204z" />
    <glyph glyph-name="uni0205" unicode="&#x205;" horiz-adv-x="1199" 
d="M382 500q0 -104 58 -180t159 -76q81 0 152.5 42.5t89.5 128.5l275 -86q-35 -125 -160 -236.5t-357 -111.5t-385 155t-153 364q0 203 153 358.5t385 155.5q220 0 346.5 -108t154.5 -221l-537 -333l-105 149l294 180q-63 70 -133 70q-101 0 -169 -69.5t-68 -181.5z
M559 1520h245l191 -342h-204zM181 1520h245l191 -342h-204z" />
    <glyph glyph-name="uni0206" unicode="&#x206;" horiz-adv-x="1160" 
d="M442 857h604v-280h-604q12 -78 120 -187t263 -109h221v-281h-221q-323 0 -540 215t-217 502t217 502t540 215h221v-281h-221q-155 0 -262.5 -108.5t-120.5 -187.5zM762 1656q-6 50 -43.5 87.5t-107.5 37.5t-106.5 -37t-42.5 -88h-191q22 146 113.5 221.5t226.5 75.5
q134 0 226.5 -76t115.5 -221h-191z" />
    <glyph glyph-name="uni0207" unicode="&#x207;" horiz-adv-x="1199" 
d="M382 500q0 -104 58 -180t159 -76q81 0 152.5 42.5t89.5 128.5l275 -86q-35 -125 -160 -236.5t-357 -111.5t-385 155t-153 364q0 203 153 358.5t385 155.5q220 0 346.5 -108t154.5 -221l-537 -333l-105 149l294 180q-63 70 -133 70q-101 0 -169 -69.5t-68 -181.5z
M686 1188q-6 50 -43.5 87.5t-107.5 37.5t-106.5 -37t-42.5 -88h-191q22 146 113.5 221.5t226.5 75.5q134 0 226.5 -76t115.5 -221h-191z" />
    <glyph glyph-name="uni0208" unicode="&#x208;" horiz-adv-x="632" 
d="M137 1434h359v-1434h-359v1434zM287 1988h245l191 -342h-204zM-91 1988h245l191 -342h-204z" />
    <glyph glyph-name="uni0209" unicode="&#x209;" horiz-adv-x="562" 
d="M114 966h320v-966h-320v966zM245 1520h245l191 -342h-204zM-133 1520h245l191 -342h-204z" />
    <glyph glyph-name="uni020A" unicode="&#x20a;" horiz-adv-x="632" 
d="M137 1434h359v-1434h-359v1434zM414 1656q-6 50 -43.5 87.5t-107.5 37.5t-106.5 -37t-42.5 -88h-191q22 146 113.5 221.5t226.5 75.5q134 0 226.5 -76t115.5 -221h-191z" />
    <glyph glyph-name="uni020B" unicode="&#x20b;" horiz-adv-x="562" 
d="M114 966h320v-966h-320v966zM371 1188q-6 50 -43.5 87.5t-107.5 37.5t-106.5 -37t-42.5 -88h-191q22 146 113.5 221.5t226.5 75.5q134 0 226.5 -76t115.5 -221h-191z" />
    <glyph glyph-name="uni020C" unicode="&#x20c;" horiz-adv-x="1660" 
d="M841 -18q-330 0 -552.5 220t-222.5 515t222.5 515t552.5 220q331 0 553.5 -220t222.5 -515t-222.5 -515t-553.5 -220zM1272 717q0 203 -131.5 336.5t-299.5 133.5q-169 0 -299.5 -133t-130.5 -337q0 -205 130.5 -337.5t299.5 -132.5q168 0 299.5 132.5t131.5 337.5z
M812 1988h245l191 -342h-204zM434 1988h245l191 -342h-204z" />
    <glyph glyph-name="uni020D" unicode="&#x20d;" horiz-adv-x="1194" 
d="M816 500q0 112 -68 181.5t-149 69.5t-149 -69.5t-68 -181.5q0 -114 68 -183t149 -69t149 69t68 183zM61 500q0 204 153 359t385 155t385 -155t153 -359q0 -205 -153 -360t-385 -155t-385 155t-153 360zM570 1520h245l191 -342h-204zM192 1520h245l191 -342h-204z" />
    <glyph glyph-name="uni020E" unicode="&#x20e;" horiz-adv-x="1660" 
d="M841 -18q-330 0 -552.5 220t-222.5 515t222.5 515t552.5 220q331 0 553.5 -220t222.5 -515t-222.5 -515t-553.5 -220zM1272 717q0 203 -131.5 336.5t-299.5 133.5q-169 0 -299.5 -133t-130.5 -337q0 -205 130.5 -337.5t299.5 -132.5q168 0 299.5 132.5t131.5 337.5z
M939 1656q-6 50 -43.5 87.5t-107.5 37.5t-106.5 -37t-42.5 -88h-191q22 146 113.5 221.5t226.5 75.5q134 0 226.5 -76t115.5 -221h-191z" />
    <glyph glyph-name="uni020F" unicode="&#x20f;" horiz-adv-x="1194" 
d="M816 500q0 112 -68 181.5t-149 69.5t-149 -69.5t-68 -181.5q0 -114 68 -183t149 -69t149 69t68 183zM61 500q0 204 153 359t385 155t385 -155t153 -359q0 -205 -153 -360t-385 -155t-385 155t-153 360zM696 1188q-6 50 -43.5 87.5t-107.5 37.5t-106.5 -37t-42.5 -88h-191
q22 146 113.5 221.5t226.5 75.5q134 0 226.5 -76t115.5 -221h-191z" />
    <glyph glyph-name="uni0210" unicode="&#x210;" horiz-adv-x="1255" 
d="M476 0h-359v932q0 204 157.5 360t395.5 156q216 0 347 -113t131 -295q-1 -181 -112 -268q170 -86 170 -328v-444h-359l1 387q-4 114 -46 166t-110 52h-129v282q135 0 180 42t45 112q0 58 -27.5 86.5t-100.5 28.5q-61 0 -122.5 -61t-61.5 -220v-875zM632 1988h245
l191 -342h-204zM254 1988h245l191 -342h-204z" />
    <glyph glyph-name="uni0211" unicode="&#x211;" horiz-adv-x="780" 
d="M704 1014h81v-220h-121q-103 0 -164 -96.5t-61 -222.5v-475h-320v966h320v-72q136 120 265 120zM423 1520h245l191 -342h-204zM45 1520h245l191 -342h-204z" />
    <glyph glyph-name="uni0212" unicode="&#x212;" horiz-adv-x="1255" 
d="M476 0h-359v932q0 204 157.5 360t395.5 156q216 0 347 -113t131 -295q-1 -181 -112 -268q170 -86 170 -328v-444h-359l1 387q-4 114 -46 166t-110 52h-129v282q135 0 180 42t45 112q0 58 -27.5 86.5t-100.5 28.5q-61 0 -122.5 -61t-61.5 -220v-875zM759 1656
q-6 50 -43.5 87.5t-107.5 37.5t-106.5 -37t-42.5 -88h-191q22 146 113.5 221.5t226.5 75.5q134 0 226.5 -76t115.5 -221h-191z" />
    <glyph glyph-name="uni0213" unicode="&#x213;" horiz-adv-x="780" 
d="M704 1014h81v-220h-121q-103 0 -164 -96.5t-61 -222.5v-475h-320v966h320v-72q136 120 265 120zM549 1188q-6 50 -43.5 87.5t-107.5 37.5t-106.5 -37t-42.5 -88h-191q22 146 113.5 221.5t226.5 75.5q134 0 226.5 -76t115.5 -221h-191z" />
    <glyph glyph-name="uni0214" unicode="&#x214;" horiz-adv-x="1342" 
d="M867 1434h359v-880q0 -262 -158 -417t-396 -155t-395.5 155t-157.5 417h-2l2 880h359v-880q0 -160 56 -220.5t138 -60.5q80 0 137.5 60.5t57.5 220.5v880zM642 1988h245l191 -342h-204zM264 1988h245l191 -342h-204z" />
    <glyph glyph-name="uni0215" unicode="&#x215;" horiz-adv-x="1141" 
d="M574 -34q-201 0 -334.5 125t-133.5 287v588h320v-588q0 -84 41 -120.5t107 -36.5t107 36.5t41 120.5v588h320v-588q0 -162 -133.5 -287t-334.5 -125zM545 1520h245l191 -342h-204zM167 1520h245l191 -342h-204z" />
    <glyph glyph-name="uni0216" unicode="&#x216;" horiz-adv-x="1342" 
d="M867 1434h359v-880q0 -262 -158 -417t-396 -155t-395.5 155t-157.5 417h-2l2 880h359v-880q0 -160 56 -220.5t138 -60.5q80 0 137.5 60.5t57.5 220.5v880zM769 1656q-6 50 -43.5 87.5t-107.5 37.5t-106.5 -37t-42.5 -88h-191q22 146 113.5 221.5t226.5 75.5
q134 0 226.5 -76t115.5 -221h-191z" />
    <glyph glyph-name="uni0217" unicode="&#x217;" horiz-adv-x="1141" 
d="M574 -34q-201 0 -334.5 125t-133.5 287v588h320v-588q0 -84 41 -120.5t107 -36.5t107 36.5t41 120.5v588h320v-588q0 -162 -133.5 -287t-334.5 -125zM671 1188q-6 50 -43.5 87.5t-107.5 37.5t-106.5 -37t-42.5 -88h-191q22 146 113.5 221.5t226.5 75.5q134 0 226.5 -76
t115.5 -221h-191z" />
    <glyph glyph-name="Scommaaccent" unicode="&#x218;" horiz-adv-x="1190" 
d="M501 1434h557v-281h-557q-62 0 -62 -83q0 -88 124 -153l320 -164q236 -124 236 -359q0 -166 -129 -280t-346 -114h-572v282h575q59 0 86 23.5t27 88.5q0 102 -121 159l-322 164q-237 122 -237 353q0 150 114.5 257t306.5 107zM531 -136h196l-88 -270h-174z" />
    <glyph glyph-name="scommaaccent" unicode="&#x219;" horiz-adv-x="988" 
d="M406 966h467v-220h-417q-64 0 -64 -61q0 -63 262 -137t262 -250q0 -119 -101.5 -208.5t-256.5 -89.5h-486v220h456q58 0 58 73q0 66 -191 115t-257 116.5t-66 168.5q0 109 94 191t240 82zM429 -136h196l-88 -270h-174z" />
    <glyph glyph-name="uni021A" unicode="&#x21a;" horiz-adv-x="1106" 
d="M33 1434h1038v-281h-341v-1153h-358v1153h-339v281zM487 -136h196l-88 -270h-174z" />
    <glyph glyph-name="uni021B" unicode="&#x21b;" horiz-adv-x="768" 
d="M109 1277h320v-311h270v-220h-270v-337q0 -78 27 -133.5t95 -55.5h148v-220h-122q-216 0 -342 118t-126 291v868zM339 -136h196l-88 -270h-174z" />
    <glyph glyph-name="uni021E" unicode="&#x21e;" horiz-adv-x="1365" 
d="M131 1434h359v-547h388v547h359v-1434h-359v605h-388v-605h-359v1434zM835 1988h264l-319 -342h-191l-319 342h264l151 -143z" />
    <glyph glyph-name="uni021F" unicode="&#x21f;" horiz-adv-x="1155" 
d="M121 1484h320v-542q91 72 220 72q172 0 284 -119.5t112 -347.5v-547h-320v552q0 88 -34.5 143t-94.5 55q-77 0 -122 -60t-45 -155v-535h-320v1484zM740 1988h264l-319 -342h-191l-319 342h264l151 -143z" />
    <glyph glyph-name="uni0226" unicode="&#x226;" horiz-adv-x="1339" 
d="M1223 932v-932h-359v605h-317v282h317v45q0 102 -61.5 163t-132.5 61t-132.5 -61t-61.5 -220v-875h-359v932q0 204 157.5 360t395.5 156t395.5 -156t157.5 -360zM670 1698q-49 0 -84.5 35.5t-35.5 84.5t35.5 84.5t84.5 35.5t84.5 -35.5t35.5 -84.5t-35.5 -84.5
t-84.5 -35.5z" />
    <glyph glyph-name="uni0227" unicode="&#x227;" horiz-adv-x="1231" 
d="M1139 501v-501h-321v501q0 112 -68 181t-149 69t-149 -69t-68 -181q0 -114 53 -185t114 -71q48 0 106 16l104 -212q-80 -67 -210 -67q-192 0 -340 157t-148 362q0 203 153 358t385 155t385 -155t153 -358zM601 1230q-49 0 -84.5 35.5t-35.5 84.5t35.5 84.5t84.5 35.5
t84.5 -35.5t35.5 -84.5t-35.5 -84.5t-84.5 -35.5z" />
    <glyph glyph-name="uni0228" unicode="&#x228;" horiz-adv-x="1160" 
d="M573 38q-162 52 -288 177q-217 215 -217 502t217 502t540 215h221v-281h-221q-155 0 -262.5 -108.5t-120.5 -187.5h604v-280h-604q12 -78 120 -187t263 -109h221v-281h-221q-72 0 -138 11v-97q86 0 134 -40.5t48 -113.5q0 -76 -58.5 -120.5t-160.5 -44.5q-109 0 -189 32
v96q65 -32 142 -32q46 0 69.5 21.5t23.5 46.5q0 35 -22 57.5t-47 22.5h-54v199z" />
    <glyph glyph-name="uni0229" unicode="&#x229;" horiz-adv-x="1199" 
d="M497 -11q-165 27 -283 147q-153 155 -153 364q0 203 153 358.5t385 155.5q220 0 346.5 -108t154.5 -221l-537 -333l-105 149l294 180q-63 70 -133 70q-101 0 -169 -69.5t-68 -181.5q0 -104 58 -180t159 -76q81 0 152.5 42.5t89.5 128.5l275 -86q-35 -125 -160 -236
q-122 -109 -345 -112v-67q86 0 134 -40.5t48 -113.5q0 -76 -58.5 -120.5t-160.5 -44.5q-109 0 -189 32v96q65 -32 142 -32q46 0 69.5 21.5t23.5 46.5q0 35 -22 57.5t-47 22.5h-54v150z" />
    <glyph glyph-name="uni022A" unicode="&#x22a;" horiz-adv-x="1660" 
d="M841 -18q-330 0 -552.5 220t-222.5 515t222.5 515t552.5 220q331 0 553.5 -220t222.5 -515t-222.5 -515t-553.5 -220zM1272 717q0 203 -131.5 336.5t-299.5 133.5q-169 0 -299.5 -133t-130.5 -337q0 -205 130.5 -337.5t299.5 -132.5q168 0 299.5 132.5t131.5 337.5z
M675 1522q-49 0 -84.5 35.5t-35.5 84.5t35.5 84.5t84.5 35.5t84.5 -35.5t35.5 -84.5t-35.5 -84.5t-84.5 -35.5zM1008 1522q-50 0 -85 35.5t-35 84.5t35 84.5t85 35.5q49 0 84.5 -35.5t35.5 -84.5t-35.5 -84.5t-84.5 -35.5zM542 1830v160h600v-160h-600z" />
    <glyph glyph-name="uni022B" unicode="&#x22b;" horiz-adv-x="1194" 
d="M816 500q0 112 -68 181.5t-149 69.5t-149 -69.5t-68 -181.5q0 -114 68 -183t149 -69t149 69t68 183zM61 500q0 204 153 359t385 155t385 -155t153 -359q0 -205 -153 -360t-385 -155t-385 155t-153 360zM433 1230q-49 0 -84.5 35.5t-35.5 84.5t35.5 84.5t84.5 35.5
t84.5 -35.5t35.5 -84.5t-35.5 -84.5t-84.5 -35.5zM766 1230q-50 0 -85 35.5t-35 84.5t35 84.5t85 35.5q49 0 84.5 -35.5t35.5 -84.5t-35.5 -84.5t-84.5 -35.5zM299 1571v160h600v-160h-600z" />
    <glyph glyph-name="uni022C" unicode="&#x22c;" horiz-adv-x="1660" 
d="M841 -18q-330 0 -552.5 220t-222.5 515t222.5 515t552.5 220q331 0 553.5 -220t222.5 -515t-222.5 -515t-553.5 -220zM1272 717q0 203 -131.5 336.5t-299.5 133.5q-169 0 -299.5 -133t-130.5 -337q0 -205 130.5 -337.5t299.5 -132.5q168 0 299.5 132.5t131.5 337.5z
M1138 1990v-160h-600v160h600zM1138 1732q-21 -83 -71.5 -146.5t-132.5 -63.5q-46 0 -108 26t-102 26q-41 0 -63.5 -10.5t-34.5 -41.5h-88q20 106 71 158t135 52q38 0 101 -28t103 -28q42 0 65 15t37 41h88z" />
    <glyph glyph-name="uni022D" unicode="&#x22d;" horiz-adv-x="1194" 
d="M816 500q0 112 -68 181.5t-149 69.5t-149 -69.5t-68 -181.5q0 -114 68 -183t149 -69t149 69t68 183zM61 500q0 204 153 359t385 155t385 -155t153 -359q0 -205 -153 -360t-385 -155t-385 155t-153 360zM929 1490q-23 -111 -79 -185.5t-145 -74.5q-51 0 -119.5 34.5
t-111.5 34.5q-45 0 -70 -24t-38 -65h-97q22 141 78.5 200.5t148.5 59.5q41 0 110.5 -37.5t113.5 -37.5q46 0 71 30t41 65h97zM299 1571v160h600v-160h-600z" />
    <glyph glyph-name="uni022E" unicode="&#x22e;" horiz-adv-x="1660" 
d="M841 -18q-330 0 -552.5 220t-222.5 515t222.5 515t552.5 220q331 0 553.5 -220t222.5 -515t-222.5 -515t-553.5 -220zM1272 717q0 203 -131.5 336.5t-299.5 133.5q-169 0 -299.5 -133t-130.5 -337q0 -205 130.5 -337.5t299.5 -132.5q168 0 299.5 132.5t131.5 337.5z
M842 1698q-49 0 -84.5 35.5t-35.5 84.5t35.5 84.5t84.5 35.5t84.5 -35.5t35.5 -84.5t-35.5 -84.5t-84.5 -35.5z" />
    <glyph glyph-name="uni022F" unicode="&#x22f;" horiz-adv-x="1194" 
d="M816 500q0 112 -68 181.5t-149 69.5t-149 -69.5t-68 -181.5q0 -114 68 -183t149 -69t149 69t68 183zM61 500q0 204 153 359t385 155t385 -155t153 -359q0 -205 -153 -360t-385 -155t-385 155t-153 360zM599 1230q-49 0 -84.5 35.5t-35.5 84.5t35.5 84.5t84.5 35.5
t84.5 -35.5t35.5 -84.5t-35.5 -84.5t-84.5 -35.5z" />
    <glyph glyph-name="uni0230" unicode="&#x230;" horiz-adv-x="1660" 
d="M841 -18q-330 0 -552.5 220t-222.5 515t222.5 515t552.5 220q331 0 553.5 -220t222.5 -515t-222.5 -515t-553.5 -220zM1272 717q0 203 -131.5 336.5t-299.5 133.5q-169 0 -299.5 -133t-130.5 -337q0 -205 130.5 -337.5t299.5 -132.5q168 0 299.5 132.5t131.5 337.5z
M839 1522q-51 0 -85.5 35.5t-34.5 84.5t34.5 84.5t85.5 35.5q49 0 84.5 -35.5t35.5 -84.5t-35.5 -84.5t-84.5 -35.5zM539 1830v160h600v-160h-600z" />
    <glyph glyph-name="uni0231" unicode="&#x231;" horiz-adv-x="1194" 
d="M816 500q0 112 -68 181.5t-149 69.5t-149 -69.5t-68 -181.5q0 -114 68 -183t149 -69t149 69t68 183zM61 500q0 204 153 359t385 155t385 -155t153 -359q0 -205 -153 -360t-385 -155t-385 155t-153 360zM599 1230q-49 0 -84.5 35.5t-35.5 84.5t35.5 84.5t84.5 35.5
t84.5 -35.5t35.5 -84.5t-35.5 -84.5t-84.5 -35.5zM299 1571v160h600v-160h-600z" />
    <glyph glyph-name="uni0232" unicode="&#x232;" horiz-adv-x="1227" 
d="M794 513v-513h-359v513q-86 19 -208.5 152t-122.5 336v433h359v-433q0 -105 38.5 -164t112.5 -59t113 59t39 164v433h359v-433q0 -203 -123 -336t-208 -152zM315 1739v160h600v-160h-600z" />
    <glyph glyph-name="uni0233" unicode="&#x233;" horiz-adv-x="1141" 
d="M731 -11v-393h-321v396q-76 14 -176 108q-128 120 -128 282v584h320v-584q0 -84 41 -120.5t107 -36.5t107 36.5t41 120.5v584h320v-584q0 -162 -127 -282q-105 -97 -184 -111zM274 1271v160h600v-160h-600z" />
    <glyph glyph-name="uni0237" unicode="&#x237;" horiz-adv-x="562" 
d="M114 966h320v-968q0 -402 -476 -402h-165v220h198q123 0 123 182v968z" />
    <glyph glyph-name="uni02BB" unicode="&#x2bb;" horiz-adv-x="314" 
d="M124 1434h132l-59 -275h-150z" />
    <glyph glyph-name="afii57929" unicode="&#x2bc;" horiz-adv-x="314" 
d="M105 1434h151l-78 -275h-131z" />
    <glyph glyph-name="afii64937" unicode="&#x2bd;" horiz-adv-x="314" 
d="M255 1159h-131l-77 275h150z" />
    <glyph glyph-name="uni02BE" unicode="&#x2be;" horiz-adv-x="1024" 
d="M511 1271q34 0 57 23t23 57q0 32 -23.5 56t-56.5 24v110q81 0 136.5 -55.5t55.5 -134.5q0 -80 -55.5 -135t-136.5 -55v110z" />
    <glyph glyph-name="uni02BF" unicode="&#x2bf;" horiz-adv-x="1024" 
d="M511 1431q-33 0 -56.5 -24t-23.5 -56q0 -34 23 -57t57 -23v-110q-79 0 -133.5 55t-54.5 135t54.5 135t133.5 55v-110z" />
    <glyph glyph-name="circumflex" unicode="&#x2c6;" horiz-adv-x="1024" 
d="M517 1321l-151 -143h-264l319 342h191l319 -342h-264z" />
    <glyph glyph-name="caron" unicode="&#x2c7;" horiz-adv-x="1024" 
d="M667 1520h264l-319 -342h-191l-319 342h264l151 -143z" />
    <glyph glyph-name="uni02C8" unicode="&#x2c8;" horiz-adv-x="402" 
d="M117 1524h160v-347h-160v347z" />
    <glyph glyph-name="uni02C9" unicode="&#x2c9;" horiz-adv-x="1024" 
d="M212 1271v160h600v-160h-600z" />
    <glyph glyph-name="uni02CA" unicode="&#x2ca;" horiz-adv-x="827" 
d="M510 1178h-264l320 342h305z" />
    <glyph glyph-name="uni02CB" unicode="&#x2cb;" horiz-adv-x="1063" 
d="M246 1520h305l320 -342h-264z" />
    <glyph glyph-name="uni02CC" unicode="&#x2cc;" horiz-adv-x="402" 
d="M117 -120h160v-346h-160v346z" />
    <glyph glyph-name="uni02CD" unicode="&#x2cd;" horiz-adv-x="760" 
d="M80 -339v160h600v-160h-600z" />
    <glyph glyph-name="uni02CE" unicode="&#x2ce;" horiz-adv-x="1063" 
d="M246 -62h305l320 -342h-264z" />
    <glyph glyph-name="uni02CF" unicode="&#x2cf;" horiz-adv-x="827" 
d="M510 -404h-264l320 342h305z" />
    <glyph glyph-name="breve" unicode="&#x2d8;" horiz-adv-x="1024" 
d="M361 1485q6 -50 43.5 -87.5t107.5 -37.5t106.5 37t42.5 88h191q-22 -146 -113.5 -221.5t-226.5 -75.5q-134 0 -226.5 76t-115.5 221h191z" />
    <glyph glyph-name="dotaccent" unicode="&#x2d9;" horiz-adv-x="1024" 
d="M512 1230q-49 0 -84.5 35.5t-35.5 84.5t35.5 84.5t84.5 35.5t84.5 -35.5t35.5 -84.5t-35.5 -84.5t-84.5 -35.5z" />
    <glyph glyph-name="ring" unicode="&#x2da;" horiz-adv-x="1024" 
d="M431 1351q0 -34 23 -57t57 -23t57 23t23 57q0 32 -23.5 56t-56.5 24t-56.5 -24t-23.5 -56zM323 1351q0 80 54.5 135t133.5 55q81 0 136.5 -55.5t55.5 -134.5q0 -80 -55.5 -135t-136.5 -55q-79 0 -133.5 55t-54.5 135z" />
    <glyph glyph-name="ogonek" unicode="&#x2db;" horiz-adv-x="1024" 
d="M768 -373q-80 -32 -189 -32q-102 0 -160.5 44.5t-58.5 120.5q0 73 182 240h174q-163 -136 -163 -191t23.5 -76.5t69.5 -21.5q57 0 122 32v-116z" />
    <glyph glyph-name="tilde" unicode="&#x2dc;" horiz-adv-x="1024" 
d="M851 1490q-23 -111 -79 -185.5t-145 -74.5q-51 0 -119.5 34.5t-111.5 34.5q-45 0 -70 -24t-38 -65h-97q22 141 78.5 200.5t148.5 59.5q41 0 110.5 -37.5t113.5 -37.5q46 0 71 30t41 65h97z" />
    <glyph glyph-name="hungarumlaut" unicode="&#x2dd;" horiz-adv-x="851" 
d="M288 1178h-204l191 342h245zM666 1178h-204l191 342h245z" />
    <glyph glyph-name="uni02F3" unicode="&#x2f3;" horiz-adv-x="1024" 
d="M431 -276q0 -34 23 -57t57 -23t57 23t23 57q0 32 -23.5 56t-56.5 24t-56.5 -24t-23.5 -56zM323 -276q0 80 54.5 135t133.5 55q81 0 136.5 -55.5t55.5 -134.5q0 -80 -55.5 -135t-136.5 -55q-79 0 -133.5 55t-54.5 135z" />
    <glyph glyph-name="uni02F7" unicode="&#x2f7;" horiz-adv-x="1024" 
d="M851 -131q-23 -111 -79 -185.5t-145 -74.5q-51 0 -119.5 34.5t-111.5 34.5q-45 0 -70 -24t-38 -65h-97q22 141 78.5 200.5t148.5 59.5q41 0 110.5 -37.5t113.5 -37.5q46 0 71 30t41 65h97z" />
    <glyph glyph-name="gravecomb" unicode="&#x300;" horiz-adv-x="0" 
d="M-916 1520h305l320 -342h-264z" />
    <glyph glyph-name="acutecomb" unicode="&#x301;" horiz-adv-x="0" 
d="M-633 1178h-264l320 342h305z" />
    <glyph glyph-name="uni0302" unicode="&#x302;" horiz-adv-x="0" 
d="M-617 1321l-151 -143h-264l319 342h191l319 -342h-264z" />
    <glyph glyph-name="tildecomb" unicode="&#x303;" horiz-adv-x="0" 
d="M-285 1490q-23 -111 -79 -185.5t-145 -74.5q-51 0 -119.5 34.5t-111.5 34.5q-45 0 -70 -24t-38 -65h-97q22 141 78.5 200.5t148.5 59.5q41 0 110.5 -37.5t113.5 -37.5q46 0 71 30t41 65h97z" />
    <glyph glyph-name="uni0304" unicode="&#x304;" horiz-adv-x="0" 
d="M-932 1271v160h600v-160h-600z" />
    <glyph glyph-name="uni0305" unicode="&#x305;" horiz-adv-x="0" 
d="M-1222 1684h1227v-100h-1227v100z" />
    <glyph glyph-name="uni0306" unicode="&#x306;" horiz-adv-x="0" 
d="M-569 1485q6 -50 43.5 -87.5t107.5 -37.5t106.5 37t42.5 88h191q-22 -146 -113.5 -221.5t-226.5 -75.5q-134 0 -226.5 76t-115.5 221h191z" />
    <glyph glyph-name="uni0307" unicode="&#x307;" horiz-adv-x="0" 
d="M-510 1230q-49 0 -84.5 35.5t-35.5 84.5t35.5 84.5t84.5 35.5t84.5 -35.5t35.5 -84.5t-35.5 -84.5t-84.5 -35.5z" />
    <glyph glyph-name="uni0308" unicode="&#x308;" horiz-adv-x="0" 
d="M-711 1230q-49 0 -84.5 35.5t-35.5 84.5t35.5 84.5t84.5 35.5t84.5 -35.5t35.5 -84.5t-35.5 -84.5t-84.5 -35.5zM-378 1230q-50 0 -85 35.5t-35 84.5t35 84.5t85 35.5q49 0 84.5 -35.5t35.5 -84.5t-35.5 -84.5t-84.5 -35.5z" />
    <glyph glyph-name="hookabovecomb" unicode="&#x309;" horiz-adv-x="0" 
d="M-601 1508q98 0 170 -44t72 -113q0 -55 -64 -91.5t-128 -37.5v-109h-131v171h68q49 0 69 21.5t20 54.5q0 29 -26 46.5t-65 17.5q-44 0 -75 -23t-31 -47h-121q0 70 71.5 112t170.5 42z" />
    <glyph glyph-name="uni030A" unicode="&#x30a;" horiz-adv-x="0" 
d="M-695 1351q0 -34 23 -57t57 -23t57 23t23 57q0 32 -23.5 56t-56.5 24t-56.5 -24t-23.5 -56zM-803 1351q0 80 54.5 135t133.5 55q81 0 136.5 -55.5t55.5 -134.5q0 -80 -55.5 -135t-136.5 -55q-79 0 -133.5 55t-54.5 135z" />
    <glyph glyph-name="uni030B" unicode="&#x30b;" horiz-adv-x="0" 
d="M-712 1178h-204l191 342h245zM-334 1178h-204l191 342h245z" />
    <glyph glyph-name="uni030C" unicode="&#x30c;" horiz-adv-x="0" 
d="M-470 1520h264l-319 -342h-191l-319 342h264l151 -143z" />
    <glyph glyph-name="uni030D" unicode="&#x30d;" horiz-adv-x="0" 
d="M-680 1524h160v-347h-160v347z" />
    <glyph glyph-name="uni030E" unicode="&#x30e;" horiz-adv-x="0" 
d="M-543 1524h160v-347h-160v347zM-810 1524h160v-347h-160v347z" />
    <glyph glyph-name="uni030F" unicode="&#x30f;" horiz-adv-x="0" 
d="M-638 1520h245l191 -342h-204zM-1016 1520h245l191 -342h-204z" />
    <glyph glyph-name="uni0310" unicode="&#x310;" horiz-adv-x="0" 
d="M-981 1485q6 -50 43.5 -87.5t107.5 -37.5t106.5 37t42.5 88h191q-22 -146 -113.5 -221.5t-226.5 -75.5q-134 0 -226.5 76t-115.5 221h191zM-831 1485q-49 0 -84.5 35.5t-35.5 84.5t35.5 84.5t84.5 35.5t84.5 -35.5t35.5 -84.5t-35.5 -84.5t-84.5 -35.5z" />
    <glyph glyph-name="uni0311" unicode="&#x311;" horiz-adv-x="0" 
d="M-474 1188q-6 50 -43.5 87.5t-107.5 37.5t-106.5 -37t-42.5 -88h-191q22 146 113.5 221.5t226.5 75.5q134 0 226.5 -76t115.5 -221h-191z" />
    <glyph glyph-name="uni0312" unicode="&#x312;" horiz-adv-x="0" 
d="M-573 1434h132l-59 -275h-150z" />
    <glyph glyph-name="uni0313" unicode="&#x313;" horiz-adv-x="0" 
d="M-612 1434h151l-78 -275h-131z" />
    <glyph glyph-name="uni0314" unicode="&#x314;" horiz-adv-x="0" 
d="M-512 1159h-131l-77 275h150z" />
    <glyph glyph-name="uni0315" unicode="&#x315;" horiz-adv-x="159" 
d="M108 1484h151l-78 -275h-131z" />
    <glyph glyph-name="uni031B" unicode="&#x31b;" horiz-adv-x="0" 
d="M-223 1164h215l-22 -203q-7 -61 -76 -119l-142 -89l-79 109l51 39q53 39 53 120v143z" />
    <glyph glyph-name="dotbelowcomb" unicode="&#x323;" horiz-adv-x="0" 
d="M-545 -391q-49 0 -84.5 35.5t-35.5 84.5t35.5 84.5t84.5 35.5t84.5 -35.5t35.5 -84.5t-35.5 -84.5t-84.5 -35.5z" />
    <glyph glyph-name="uni0324" unicode="&#x324;" horiz-adv-x="0" 
d="M-730 -391q-49 0 -84.5 35.5t-35.5 84.5t35.5 84.5t84.5 35.5t84.5 -35.5t35.5 -84.5t-35.5 -84.5t-84.5 -35.5zM-349 -391q-49 0 -84.5 35.5t-35.5 84.5t35.5 84.5t84.5 35.5t84.5 -35.5t35.5 -84.5t-35.5 -84.5t-84.5 -35.5z" />
    <glyph glyph-name="uni0325" unicode="&#x325;" horiz-adv-x="0" 
d="M-575 -276q0 -34 23 -57t57 -23t57 23t23 57q0 32 -23.5 56t-56.5 24t-56.5 -24t-23.5 -56zM-683 -276q0 80 54.5 135t133.5 55q81 0 136.5 -55.5t55.5 -134.5q0 -80 -55.5 -135t-136.5 -55q-79 0 -133.5 55t-54.5 135z" />
    <glyph glyph-name="uni0326" unicode="&#x326;" horiz-adv-x="0" 
d="M-551 -136h196l-88 -270h-174z" />
    <glyph glyph-name="uni032D" unicode="&#x32d;" horiz-adv-x="0" 
d="M-542 -261l-151 -143h-264l319 342h191l319 -342h-264z" />
    <glyph glyph-name="uni032E" unicode="&#x32e;" horiz-adv-x="0" 
d="M-639 -109q16 -80 58.5 -117.5t112.5 -37.5t111.5 37t57.5 118h151q-22 -146 -103.5 -221.5t-216.5 -75.5q-134 0 -216.5 76t-105.5 221h151z" />
    <glyph glyph-name="uni032F" unicode="&#x32f;" horiz-adv-x="0" 
d="M-356 -419q-6 50 -43.5 87.5t-107.5 37.5t-106.5 -37t-42.5 -88h-191q22 146 113.5 221.5t226.5 75.5q134 0 226.5 -76t115.5 -221h-191z" />
    <glyph glyph-name="uni0330" unicode="&#x330;" horiz-adv-x="0" 
d="M-213 -131q-23 -110 -79 -185t-145 -75q-51 0 -119.5 35t-111.5 35q-45 0 -70 -24t-38 -66h-97q22 142 78.5 201t148.5 59q41 0 110.5 -37t113.5 -37q46 0 71 30t41 64h97z" />
    <glyph glyph-name="uni0331" unicode="&#x331;" horiz-adv-x="0" 
d="M-842 -351v160h600v-160h-600z" />
    <glyph glyph-name="uni0332" unicode="&#x332;" horiz-adv-x="0" 
d="M-1228 -100h1227v-100h-1227v100z" />
    <glyph glyph-name="uni0335" unicode="&#x335;" horiz-adv-x="0" 
d="M-716 777h717v-120h-717v120z" />
    <glyph glyph-name="uni0336" unicode="&#x336;" horiz-adv-x="0" 
d="M-1434 777h1434v-120h-1434v120z" />
    <glyph glyph-name="uni0337" unicode="&#x337;" horiz-adv-x="0" 
d="M-681 590l621 358l60 -104l-621 -358z" />
    <glyph glyph-name="uni0352" unicode="&#x352;" horiz-adv-x="0" 
d="M-599 1415q41 0 70.5 -29.5t29.5 -70.5t-29.5 -70.5t-70.5 -29.5t-70.5 29.5t-29.5 70.5t29.5 70.5t70.5 29.5zM-307 1416h-101q-17 73 -65 107t-127 34t-126 -33.5t-64 -107.5h-101q20 133 94 201.5t197 68.5q122 0 197 -69t96 -201z" />
    <glyph glyph-name="uni035D" unicode="&#x35d;" horiz-adv-x="0" 
d="M-584 1485h172q34 -73 145 -107t269 -34t267 33.5t143 107.5h172q-40 -133 -188 -201.5t-394 -68.5q-244 0 -394 69t-192 201z" />
    <glyph glyph-name="uni035E" unicode="&#x35e;" horiz-adv-x="0" 
d="M-600 1271v160h1200v-160h-1200z" />
    <glyph glyph-name="uni035F" unicode="&#x35f;" horiz-adv-x="0" 
d="M-600 -353v160h1200v-160h-1200z" />
    <glyph glyph-name="uni0360" unicode="&#x360;" horiz-adv-x="0" 
d="M660 1490q-46 -111 -157.5 -185.5t-290.5 -74.5q-102 0 -238.5 34.5t-224.5 34.5q-89 0 -138.5 -24t-77.5 -65h-193q44 141 156.5 200.5t296.5 59.5q83 0 222 -37.5t226 -37.5q92 0 143 30t83 65h193z" />
    <glyph glyph-name="uni0361" unicode="&#x361;" horiz-adv-x="0" 
d="M-4 1485q246 0 394 -68.5t188 -201.5h-172q-34 74 -143 107.5t-267 33.5t-269 -34t-145 -107h-172q42 132 192 201t394 69z" />
    <glyph glyph-name="uni0374" unicode="&#x374;" horiz-adv-x="543" 
d="M474 1434l-232 -358h-146l125 358h253z" />
    <glyph glyph-name="uni0375" unicode="&#x375;" horiz-adv-x="543" 
d="M474 -108l-232 -358h-146l125 358h253z" />
    <glyph glyph-name="uni037E" unicode="&#x37e;" horiz-adv-x="754" 
d="M252 269h262l-128 -477h-231zM403 500q-83 0 -131.5 58t-48.5 122t48.5 122t131.5 58t131.5 -58t48.5 -122t-48.5 -122t-131.5 -58z" />
    <glyph glyph-name="tonos" unicode="&#x384;" horiz-adv-x="827" 
d="M280 1178h-204l209 259h305z" />
    <glyph glyph-name="dieresistonos" unicode="&#x385;" horiz-adv-x="1208" 
d="M385 1194q-49 0 -84.5 35.5t-35.5 84.5t35.5 84.5t84.5 35.5t84.5 -35.5t35.5 -84.5t-35.5 -84.5t-84.5 -35.5zM718 1194q-50 0 -85 35.5t-35 84.5t35 84.5t85 35.5q49 0 84.5 -35.5t35.5 -84.5t-35.5 -84.5t-84.5 -35.5zM623 1434h-144l184 229h245z" />
    <glyph glyph-name="Alphatonos" unicode="&#x386;" horiz-adv-x="1639" 
d="M280 1178h-204l209 259h305zM1523 932v-932h-359v605h-317v282h317v45q0 102 -61.5 163t-132.5 61t-132.5 -61t-61.5 -220v-875h-359v932q0 204 157.5 360t395.5 156t395.5 -156t157.5 -360z" />
    <glyph glyph-name="anoteleia" unicode="&#x387;" horiz-adv-x="508" 
d="M298 966q-50 0 -85 35t-35 85t35 85t85 35q49 0 84.5 -35t35.5 -85t-35.5 -85t-84.5 -35z" />
    <glyph glyph-name="Epsilontonos" unicode="&#x388;" horiz-adv-x="1487" 
d="M280 1178h-204l209 259h305zM769 857h604v-280h-604q12 -78 120 -187t263 -109h221v-281h-221q-323 0 -540 215t-217 502t217 502t540 215h221v-281h-221q-155 0 -262.5 -108.5t-120.5 -187.5z" />
    <glyph glyph-name="Etatonos" unicode="&#x389;" horiz-adv-x="1992" 
d="M280 1178h-204l209 259h305zM758 1434h359v-547h388v547h359v-1434h-359v605h-388v-605h-359v1434z" />
    <glyph glyph-name="Iotatonos" unicode="&#x38a;" horiz-adv-x="1259" 
d="M280 1178h-204l209 259h305zM764 1434h359v-1434h-359v1434z" />
    <glyph glyph-name="Omicrontonos" unicode="&#x38c;" horiz-adv-x="1987" 
d="M280 1178h-204l209 259h305zM1168 -18q-330 0 -552.5 220t-222.5 515t222.5 515t552.5 220q331 0 553.5 -220t222.5 -515t-222.5 -515t-553.5 -220zM1599 717q0 203 -131.5 336.5t-299.5 133.5q-169 0 -299.5 -133t-130.5 -337q0 -205 130.5 -337.5t299.5 -132.5
q168 0 299.5 132.5t131.5 337.5z" />
    <glyph glyph-name="Upsilontonos" unicode="&#x38e;" horiz-adv-x="1854" 
d="M280 1178h-204l209 259h305zM1421 513v-513h-359v513q-86 19 -208.5 152t-122.5 336v433h359v-433q0 -105 38.5 -164t112.5 -59t113 59t39 164v433h359v-433q0 -203 -123 -336t-208 -152z" />
    <glyph glyph-name="Omegatonos" unicode="&#x38f;" horiz-adv-x="2005" 
d="M280 1178h-204l209 259h305zM1162 1187q-166 0 -295 -133t-129 -337q0 -192 129.5 -335.5t129.5 -226.5q0 -155 -251 -155h-353v221h154q-154 192 -154 496q0 294 220.5 514.5t548.5 220.5t548.5 -220.5t220.5 -514.5q0 -304 -154 -496h154v-221h-353q-251 0 -251 155
q0 83 129.5 226.5t129.5 335.5q0 204 -129 337t-295 133z" />
    <glyph glyph-name="iotadieresistonos" unicode="&#x390;" horiz-adv-x="562" 
d="M114 966h320v-966h-320v966zM74 1194q-49 0 -84.5 35.5t-35.5 84.5t35.5 84.5t84.5 35.5t84.5 -35.5t35.5 -84.5t-35.5 -84.5t-84.5 -35.5zM407 1194q-50 0 -85 35.5t-35 84.5t35 84.5t85 35.5q49 0 84.5 -35.5t35.5 -84.5t-35.5 -84.5t-84.5 -35.5zM312 1434h-144
l184 229h245z" />
    <glyph glyph-name="Alpha" unicode="&#x391;" horiz-adv-x="1339" 
d="M1223 932v-932h-359v605h-317v282h317v45q0 102 -61.5 163t-132.5 61t-132.5 -61t-61.5 -220v-875h-359v932q0 204 157.5 360t395.5 156t395.5 -156t157.5 -360z" />
    <glyph glyph-name="Beta" unicode="&#x392;" horiz-adv-x="1267" 
d="M1148 1037q-1 -178 -112 -265q170 -86 170 -328q0 -221 -166.5 -332.5t-320.5 -111.5h-156v282h129q87 0 120.5 31.5t33.5 121.5q0 94 -43 132t-111 38h-129v282h68q77 0 117 42t40 112q0 71 -32.5 93t-85.5 22q-71 0 -132.5 -61t-61.5 -220v-875h-359v932
q0 204 157.5 360t395.5 156q216 0 347 -113t131 -298z" />
    <glyph glyph-name="Gamma" unicode="&#x393;" horiz-adv-x="947" 
d="M476 0h-359v915q0 519 566 519h276v-282h-310q-173 0 -173 -203v-949z" />
    <glyph glyph-name="uni0394" unicode="&#x394;" horiz-adv-x="1339" 
d="M476 283h388l-194 560zM476 1v-1h-359l553 1448l553 -1448z" />
    <glyph glyph-name="Epsilon" unicode="&#x395;" horiz-adv-x="1160" 
d="M442 857h604v-280h-604q12 -78 120 -187t263 -109h221v-281h-221q-323 0 -540 215t-217 502t217 502t540 215h221v-281h-221q-155 0 -262.5 -108.5t-120.5 -187.5z" />
    <glyph glyph-name="Zeta" unicode="&#x396;" horiz-adv-x="1133" 
d="M109 1434h694q284 0 284 -201q0 -75 -144 -271l-494 -680h656v-282h-788q-284 0 -284 190q0 88 138 277l501 686h-563v281z" />
    <glyph glyph-name="Eta" unicode="&#x397;" horiz-adv-x="1365" 
d="M131 1434h359v-547h388v547h359v-1434h-359v605h-388v-605h-359v1434z" />
    <glyph glyph-name="Theta" unicode="&#x398;" horiz-adv-x="1660" 
d="M841 -18q-330 0 -552.5 220t-222.5 515t222.5 515t552.5 220q331 0 553.5 -220t222.5 -515t-222.5 -515t-553.5 -220zM1272 717q0 203 -131.5 336.5t-299.5 133.5q-169 0 -299.5 -133t-130.5 -337q0 -205 130.5 -337.5t299.5 -132.5q168 0 299.5 132.5t131.5 337.5z
M482 591v252h719v-252h-719z" />
    <glyph glyph-name="Iota" unicode="&#x399;" horiz-adv-x="632" 
d="M137 1434h359v-1434h-359v1434z" />
    <glyph glyph-name="Kappa" unicode="&#x39a;" horiz-adv-x="1300" 
d="M131 1434h359v-547h96q64 0 177 241l148 306h360q-206 -534 -348 -594q96 -9 179 -118.5t83 -302.5v-419h-357v393q0 212 -149 212h-189v-605h-359v1434z" />
    <glyph glyph-name="Lambda" unicode="&#x39b;" horiz-adv-x="1339" 
d="M1223 932v-932h-359v932q0 102 -61.5 163t-132.5 61t-132.5 -61t-61.5 -220v-875h-359v932q0 204 157.5 360t395.5 156t395.5 -156t157.5 -360z" />
    <glyph glyph-name="Mu" unicode="&#x39c;" horiz-adv-x="1786" 
d="M439 1459q195 0 292 -310l171 -542l186 550q95 302 270 302q163 0 196 -119l191 -1340h-350l-105 746l-166 -520q-73 -243 -226 -243t-229 243l-163 521l-111 -747h-350l201 1339q28 120 193 120z" />
    <glyph glyph-name="Nu" unicode="&#x39d;" horiz-adv-x="1398" 
d="M365 1460q187 0 316 -289l241 -511v774h348v-1163q0 -288 -240 -288q-172 0 -296 276l-253 522v-781h-350v1159q0 301 234 301z" />
    <glyph glyph-name="Xi" unicode="&#x39e;" horiz-adv-x="1786" 
d="M1397 896v-359h-1008v359h1008zM1610 1434v-359h-1434v359h1434zM1610 359v-359h-1434v359h1434z" />
    <glyph glyph-name="Omicron" unicode="&#x39f;" horiz-adv-x="1660" 
d="M841 -18q-330 0 -552.5 220t-222.5 515t222.5 515t552.5 220q331 0 553.5 -220t222.5 -515t-222.5 -515t-553.5 -220zM1272 717q0 203 -131.5 336.5t-299.5 133.5q-169 0 -299.5 -133t-130.5 -337q0 -205 130.5 -337.5t299.5 -132.5q168 0 299.5 132.5t131.5 337.5z" />
    <glyph glyph-name="Pi" unicode="&#x3a0;" horiz-adv-x="1499" 
d="M530 1153v-1153h-358v1153h-139v281h1431v-281h-141v-1153h-358v1153h-435z" />
    <glyph glyph-name="Rho" unicode="&#x3a1;" horiz-adv-x="1220" 
d="M476 0h-359v935q0 204 157.5 360t395.5 156t395.5 -156t157.5 -360q0 -205 -157.5 -360t-419.5 -155v291q95 0 156.5 60.5t61.5 163.5q0 102 -56.5 163t-137.5 61q-101 0 -147.5 -71t-46.5 -210v-878z" />
    <glyph glyph-name="Sigma" unicode="&#x3a3;" horiz-adv-x="1394" 
d="M201 1434h1044v-282h-498l334 -392l-492 -480h674v-280h-1062v96l541 529l-541 713v96z" />
    <glyph glyph-name="Tau" unicode="&#x3a4;" horiz-adv-x="1106" 
d="M33 1434h1038v-281h-341v-1153h-358v1153h-339v281z" />
    <glyph glyph-name="Upsilon" unicode="&#x3a5;" horiz-adv-x="1227" 
d="M794 513v-513h-359v513q-86 19 -208.5 152t-122.5 336v433h359v-433q0 -105 38.5 -164t112.5 -59t113 59t39 164v433h359v-433q0 -203 -123 -336t-208 -152z" />
    <glyph glyph-name="Phi" unicode="&#x3a6;" horiz-adv-x="1660" 
d="M1021 1058v-682q63 26 120 71q131 106 131 270q0 162 -131 269q-57 46 -120 72zM662 1291v143h359v-143q214 -36 374 -162q222 -176 222 -412t-222 -412q-160 -126 -374 -162v-143h-359v143q-214 36 -373 162q-223 176 -223 412t223 412q159 126 373 162zM662 375v684
q-64 -26 -120 -72q-131 -107 -131 -270q0 -164 131 -270q56 -46 120 -72z" />
    <glyph glyph-name="Chi" unicode="&#x3a7;" horiz-adv-x="1373" 
d="M686 1143q256 291 669 291v-291q-246 0 -367 -119.5t-121 -306.5q0 -186 121 -306t367 -120v-291q-413 0 -669 291q-255 -291 -668 -291v291q246 0 367 120t121 306q0 187 -121 306.5t-367 119.5v291q413 0 668 -291z" />
    <glyph glyph-name="Psi" unicode="&#x3a8;" horiz-adv-x="1472" 
d="M605 259q-192 32 -354.5 176t-162.5 432v307h252v-207q0 -226 68 -325t197 -128v920h262v-920q129 29 197 128t68 325v207h252v-307q0 -288 -163 -432t-354 -175v-260h-262v259z" />
    <glyph glyph-name="uni03A9" unicode="&#x3a9;" horiz-adv-x="1678" 
d="M835 1187q-166 0 -295 -133t-129 -337q0 -192 129.5 -335.5t129.5 -226.5q0 -155 -251 -155h-353v221h154q-154 192 -154 496q0 294 220.5 514.5t548.5 220.5t548.5 -220.5t220.5 -514.5q0 -304 -154 -496h154v-221h-353q-251 0 -251 155q0 83 129.5 226.5t129.5 335.5
q0 204 -129 337t-295 133z" />
    <glyph glyph-name="Iotadieresis" unicode="&#x3aa;" horiz-adv-x="632" 
d="M137 1434h359v-1434h-359v1434zM151 1698q-49 0 -84.5 35.5t-35.5 84.5t35.5 84.5t84.5 35.5t84.5 -35.5t35.5 -84.5t-35.5 -84.5t-84.5 -35.5zM484 1698q-50 0 -85 35.5t-35 84.5t35 84.5t85 35.5q49 0 84.5 -35.5t35.5 -84.5t-35.5 -84.5t-84.5 -35.5z" />
    <glyph glyph-name="Upsilondieresis" unicode="&#x3ab;" horiz-adv-x="1227" 
d="M794 513v-513h-359v513q-86 19 -208.5 152t-122.5 336v433h359v-433q0 -105 38.5 -164t112.5 -59t113 59t39 164v433h359v-433q0 -203 -123 -336t-208 -152zM448 1698q-49 0 -84.5 35.5t-35.5 84.5t35.5 84.5t84.5 35.5t84.5 -35.5t35.5 -84.5t-35.5 -84.5t-84.5 -35.5z
M781 1698q-50 0 -85 35.5t-35 84.5t35 84.5t85 35.5q49 0 84.5 -35.5t35.5 -84.5t-35.5 -84.5t-84.5 -35.5z" />
    <glyph glyph-name="alphatonos" unicode="&#x3ac;" horiz-adv-x="1231" 
d="M1139 501v-501h-321v501q0 112 -68 181t-149 69t-149 -69t-68 -181q0 -114 53 -185t114 -71q48 0 106 16l104 -212q-80 -67 -210 -67q-192 0 -340 157t-148 362q0 203 153 358t385 155t385 -155t153 -358zM607 1178h-204l209 259h305z" />
    <glyph glyph-name="epsilontonos" unicode="&#x3ad;" horiz-adv-x="1040" 
d="M461 578h307v-191h-307q-20 -31 -20 -74q0 -53 28 -76t79 -23h342v-214h-367q-184 0 -278.5 84.5t-94.5 211.5q0 116 62 186q-62 71 -62 187q0 127 94.5 211.5t278.5 84.5h367v-214h-342q-51 0 -79 -23t-28 -76q0 -43 20 -74zM526 1178h-204l209 259h305z" />
    <glyph glyph-name="etatonos" unicode="&#x3ae;" horiz-adv-x="1141" 
d="M1042 602v-1006h-320v1006q0 84 -41 120.5t-107 36.5t-107 -36.5t-41 -120.5v-602h-320v602q0 162 133.5 287t334.5 125t334.5 -125t133.5 -287zM580 1178h-204l209 259h305z" />
    <glyph glyph-name="iotatonos" unicode="&#x3af;" horiz-adv-x="562" 
d="M114 966h320v-966h-320v966zM280 1178h-204l209 259h305z" />
    <glyph glyph-name="upsilondieresistonos" unicode="&#x3b0;" horiz-adv-x="1044" 
d="M526 -46q-180 0 -259 266l-267 746h331l195 -528l194 528h332l-267 -746q-79 -266 -259 -266zM326 1194q-49 0 -84.5 35.5t-35.5 84.5t35.5 84.5t84.5 35.5t84.5 -35.5t35.5 -84.5t-35.5 -84.5t-84.5 -35.5zM659 1194q-50 0 -85 35.5t-35 84.5t35 84.5t85 35.5
q49 0 84.5 -35.5t35.5 -84.5t-35.5 -84.5t-84.5 -35.5zM564 1434h-144l184 229h245z" />
    <glyph glyph-name="alpha" unicode="&#x3b1;" horiz-adv-x="1231" 
d="M1139 501v-501h-321v501q0 112 -68 181t-149 69t-149 -69t-68 -181q0 -114 53 -185t114 -71q48 0 106 16l104 -212q-80 -67 -210 -67q-192 0 -340 157t-148 362q0 203 153 358t385 155t385 -155t153 -358z" />
    <glyph glyph-name="beta" unicode="&#x3b2;" horiz-adv-x="1239" 
d="M376 868h161q86 0 133.5 66.5t47.5 142.5q0 73 -52 115.5t-125 42.5q-74 0 -119.5 -52t-45.5 -125v-190zM376 671v-208q0 -93 66 -159t160 -66t160 66t66 141q0 81 -67.5 153.5t-189.5 72.5h-195zM847 802q237 -98 253 -324q0 -207 -146 -352.5t-324 -145.5
q-145 0 -254 86v-220q0 -127 -47 -253h-275q50 126 50 253v1201q0 180 127.5 307t307.5 127q179 0 306.5 -112t127.5 -292q0 -179 -126 -275z" />
    <glyph glyph-name="gamma" unicode="&#x3b3;" horiz-adv-x="1141" 
d="M731 -11v-393h-321v396q-76 14 -176 108q-128 120 -128 282v584h320v-584q0 -84 41 -120.5t107 -36.5t107 36.5t41 120.5v584h320v-584q0 -162 -127 -282q-105 -97 -184 -111z" />
    <glyph glyph-name="delta" unicode="&#x3b4;" horiz-adv-x="1194" 
d="M816 500q0 112 -68 181.5t-149 69.5t-149 -69.5t-68 -181.5q0 -114 68 -183t149 -69t149 69t68 183zM984 859q153 -155 153 -359q0 -205 -153 -360t-385 -155t-385 155t-153 360q0 204 153 359q84 85 191 123l-5 1l-84 101q-130 150 -130 221q0 179 258 179h569v-220
h-414l352 -374q17 -15 33 -31z" />
    <glyph glyph-name="epsilon" unicode="&#x3b5;" horiz-adv-x="1040" 
d="M461 578h307v-191h-307q-20 -31 -20 -74q0 -53 28 -76t79 -23h342v-214h-367q-184 0 -278.5 84.5t-94.5 211.5q0 116 62 186q-62 71 -62 187q0 127 94.5 211.5t278.5 84.5h367v-214h-342q-51 0 -79 -23t-28 -76q0 -43 20 -74z" />
    <glyph glyph-name="zeta" unicode="&#x3b6;" horiz-adv-x="1192" 
d="M994 1434v-283q-568 -178 -568 -454q0 -162 67 -278.5t181 -116.5q90 0 197 -104t108 -267q0 -185 -76 -260.5t-251 -75.5h-206l40 228h105q114 0 115 97q0 135 -193 135q-306 0 -379 367q-18 84 -22 196q0 446 444 533h-368v283h806z" />
    <glyph glyph-name="eta" unicode="&#x3b7;" horiz-adv-x="1141" 
d="M1042 602v-1006h-320v1006q0 84 -41 120.5t-107 36.5t-107 -36.5t-41 -120.5v-602h-320v602q0 162 133.5 287t334.5 125t334.5 -125t133.5 -287z" />
    <glyph glyph-name="theta" unicode="&#x3b8;" horiz-adv-x="1228" 
d="M351 612v-155q34 -266 252 -266q240 0 273 266v155h-525zM876 822v155q-33 266 -273 266q-218 0 -252 -266v-155h525zM1156 491q0 -222 -146.5 -365.5t-403.5 -143.5q-252 0 -393 144t-141 365v452q0 221 141 365t393 144q257 0 403.5 -143.5t146.5 -365.5v-452z" />
    <glyph glyph-name="iota" unicode="&#x3b9;" horiz-adv-x="562" 
d="M114 966h320v-966h-320v966z" />
    <glyph glyph-name="kappa" unicode="&#x3ba;" horiz-adv-x="1093" 
d="M121 966h320v-317h42q77 0 248 317h323q-152 -312 -240 -368q59 0 111 -74t57 -180v-344h-321v296q0 63 -19.5 98t-76.5 35h-124v-429h-320v966z" />
    <glyph glyph-name="lambda" unicode="&#x3bb;" horiz-adv-x="1044" 
d="M863 514l189 -514h-332l-194 513l-195 -513h-331l267 725q42 135 111 200l-203 558h335z" />
    <glyph glyph-name="uni03BC" unicode="&#x3bc;" horiz-adv-x="1141" 
d="M426 377q0 -83 41 -119q41 -37 107 -37t107 36.5t41 120.5v588h320v-588q0 -162 -133.5 -287t-334.5 -125q-79 0 -148 19v-396h-320v1377h320v-589z" />
    <glyph glyph-name="nu" unicode="&#x3bd;" horiz-adv-x="1044" 
d="M526 -46q-180 0 -259 266l-267 746h331l195 -528l194 528h332l-267 -746q-79 -266 -259 -266z" />
    <glyph glyph-name="xi" unicode="&#x3be;" horiz-adv-x="1142" 
d="M849 965v-190h-114q-184 0 -261 -97.5t-77 -265.5q0 -236 301 -280q331 -65 332 -270q0 -117 -122 -191.5t-277 -74.5h-284l40 140h144q88 0 157 34.5t69 96.5q0 111 -295 170q-345 80 -349 345q0 329 345 493q-102 0 -173.5 78.5t-71.5 182.5q0 135 113 241.5t284 106.5
h244l36 -191h-229q-143 0 -190 -40t-47 -117t57.5 -120.5t253.5 -50.5h114z" />
    <glyph glyph-name="omicron" unicode="&#x3bf;" horiz-adv-x="1194" 
d="M816 500q0 112 -68 181.5t-149 69.5t-149 -69.5t-68 -181.5q0 -114 68 -183t149 -69t149 69t68 183zM61 500q0 204 153 359t385 155t385 -155t153 -359q0 -205 -153 -360t-385 -155t-385 155t-153 360z" />
    <glyph glyph-name="pi" unicode="&#x3c0;" horiz-adv-x="1206" 
d="M1157 966v-282h-122v-684h-300v684h-160v-684h-300v684q-59 0 -88 -62h-118q0 344 271 344h817z" />
    <glyph glyph-name="rho" unicode="&#x3c1;" horiz-adv-x="1231" 
d="M642 1016q232 0 385 -156t153 -361q0 -203 -153 -363.5t-335 -160.5q-107 0 -211 43v296q86 -76 181 -76q71 0 134 74.5t63 186.5q0 114 -58 184t-159 70t-159 -70t-58 -234h-1v-853h-320v903q0 205 153 361t385 156z" />
    <glyph glyph-name="sigma1" unicode="&#x3c2;" horiz-adv-x="1125" 
d="M296 268q-215 141 -215 365q0 146 99 239.5t257 93.5h562v-231h-462q-164 0 -164 -102q0 -123 173 -245l325 -234q121 -88 121 -242q0 -113 -117.5 -214.5t-244.5 -101.5h-441v220h391q118 0 118 91q0 75 -113 154z" />
    <glyph glyph-name="sigma" unicode="&#x3c3;" horiz-adv-x="1194" 
d="M816 500q0 112 -68 181.5t-149 69.5t-149 -69.5t-68 -181.5q0 -114 68 -183t149 -69t149 69t68 183zM1069 751q68 -115 68 -251q0 -205 -153 -360t-385 -155t-385 155t-153 360q0 204 153 359t385 155h653v-263h-183z" />
    <glyph glyph-name="tau" unicode="&#x3c4;" horiz-adv-x="1106" 
d="M33 966h1038v-281h-341v-685h-358v685h-339v281z" />
    <glyph glyph-name="upsilon" unicode="&#x3c5;" horiz-adv-x="1044" 
d="M526 -46q-180 0 -259 266l-267 746h331l195 -528l194 528h332l-267 -746q-79 -266 -259 -266z" />
    <glyph glyph-name="phi" unicode="&#x3c6;" horiz-adv-x="1194" 
d="M474 -3q-187 31 -300 164.5t-113 438.5q0 370 387 586l74 -129q-140 -171 -140 -411q0 -299 92 -351l-2 360q0 153 74.5 249.5t182.5 96.5q147 0 277.5 -148.5t130.5 -352.5q0 -205 -131.5 -338t-281.5 -165v-402h-250v402zM724 295q92 58 92 205q0 182 -41 182
q-51 0 -51 -138v-249z" />
    <glyph glyph-name="chi" unicode="&#x3c7;" horiz-adv-x="1325" 
d="M662 680q220 278 575 278v-278q-211 0 -315 -114t-104 -283q0 -178 104 -292.5t315 -114.5v-278q-355 0 -575 278q-219 -278 -574 -278v278q211 0 315 114.5t104 292.5q0 169 -104 283t-315 114v278q355 0 574 -278z" />
    <glyph glyph-name="psi" unicode="&#x3c8;" horiz-adv-x="1641" 
d="M666 1166h307v-940q82 0 168.5 86t86.5 271v383h306v-383q0 -261 -172.5 -436.5t-388.5 -175.5v-379h-307v379q-216 0 -388 175.5t-172 436.5v383h305v-383q0 -185 87 -271t168 -86v940z" />
    <glyph glyph-name="omega" unicode="&#x3c9;" horiz-adv-x="1641" 
d="M820 54q-70 -83 -281 -83q-189 0 -311 125.5t-122 361.5q0 277 362 508l99 -135q-156 -135 -156 -388q0 -145 37 -181t91 -36t90.5 36t36.5 121v292h307v-292q0 -85 36.5 -121t90.5 -36t91 36t37 181q0 253 -156 388l99 135q362 -231 362 -508q0 -236 -122 -361.5
t-311 -125.5q-211 0 -280 83z" />
    <glyph glyph-name="iotadieresis" unicode="&#x3ca;" horiz-adv-x="562" 
d="M114 966h320v-966h-320v966zM109 1230q-49 0 -84.5 35.5t-35.5 84.5t35.5 84.5t84.5 35.5t84.5 -35.5t35.5 -84.5t-35.5 -84.5t-84.5 -35.5zM442 1230q-50 0 -85 35.5t-35 84.5t35 84.5t85 35.5q49 0 84.5 -35.5t35.5 -84.5t-35.5 -84.5t-84.5 -35.5z" />
    <glyph glyph-name="upsilondieresis" unicode="&#x3cb;" horiz-adv-x="1044" 
d="M526 -46q-180 0 -259 266l-267 746h331l195 -528l194 528h332l-267 -746q-79 -266 -259 -266zM361 1230q-49 0 -84.5 35.5t-35.5 84.5t35.5 84.5t84.5 35.5t84.5 -35.5t35.5 -84.5t-35.5 -84.5t-84.5 -35.5zM694 1230q-50 0 -85 35.5t-35 84.5t35 84.5t85 35.5
q49 0 84.5 -35.5t35.5 -84.5t-35.5 -84.5t-84.5 -35.5z" />
    <glyph glyph-name="omicrontonos" unicode="&#x3cc;" horiz-adv-x="1194" 
d="M816 500q0 112 -68 181.5t-149 69.5t-149 -69.5t-68 -181.5q0 -114 68 -183t149 -69t149 69t68 183zM61 500q0 204 153 359t385 155t385 -155t153 -359q0 -205 -153 -360t-385 -155t-385 155t-153 360zM605 1178h-204l209 259h305z" />
    <glyph glyph-name="upsilontonos" unicode="&#x3cd;" horiz-adv-x="1044" 
d="M526 -46q-180 0 -259 266l-267 746h331l195 -528l194 528h332l-267 -746q-79 -266 -259 -266zM532 1178h-204l209 259h305z" />
    <glyph glyph-name="omegatonos" unicode="&#x3ce;" horiz-adv-x="1641" 
d="M820 54q-70 -83 -281 -83q-189 0 -311 125.5t-122 361.5q0 277 362 508l99 -135q-156 -135 -156 -388q0 -145 37 -181t91 -36t90.5 36t36.5 121v292h307v-292q0 -85 36.5 -121t90.5 -36t91 36t37 181q0 253 -156 388l99 135q362 -231 362 -508q0 -236 -122 -361.5
t-311 -125.5q-211 0 -280 83zM826 1178h-204l209 259h305z" />
    <glyph glyph-name="uni1E00" unicode="&#x1e00;" horiz-adv-x="1339" 
d="M1223 932v-932h-359v605h-317v282h317v45q0 102 -61.5 163t-132.5 61t-132.5 -61t-61.5 -220v-875h-359v932q0 204 157.5 360t395.5 156t395.5 -156t157.5 -360zM588 -276q0 -34 23 -57t57 -23t57 23t23 57q0 32 -23.5 56t-56.5 24t-56.5 -24t-23.5 -56zM480 -276
q0 80 54.5 135t133.5 55q81 0 136.5 -55.5t55.5 -134.5q0 -80 -55.5 -135t-136.5 -55q-79 0 -133.5 55t-54.5 135z" />
    <glyph glyph-name="uni1E01" unicode="&#x1e01;" horiz-adv-x="1231" 
d="M1139 501v-501h-321v501q0 112 -68 181t-149 69t-149 -69t-68 -181q0 -114 53 -185t114 -71q48 0 106 16l104 -212q-80 -67 -210 -67q-192 0 -340 157t-148 362q0 203 153 358t385 155t385 -155t153 -358zM519 -276q0 -34 23 -57t57 -23t57 23t23 57q0 32 -23.5 56
t-56.5 24t-56.5 -24t-23.5 -56zM411 -276q0 80 54.5 135t133.5 55q81 0 136.5 -55.5t55.5 -134.5q0 -80 -55.5 -135t-136.5 -55q-79 0 -133.5 55t-54.5 135z" />
    <glyph glyph-name="uni1E02" unicode="&#x1e02;" horiz-adv-x="1267" 
d="M1148 1037q-1 -178 -112 -265q170 -86 170 -328q0 -221 -166.5 -332.5t-320.5 -111.5h-156v282h129q87 0 120.5 31.5t33.5 121.5q0 94 -43 132t-111 38h-129v282h68q77 0 117 42t40 112q0 71 -32.5 93t-85.5 22q-71 0 -132.5 -61t-61.5 -220v-875h-359v932
q0 204 157.5 360t395.5 156q216 0 347 -113t131 -298zM662 1698q-49 0 -84.5 35.5t-35.5 84.5t35.5 84.5t84.5 35.5t84.5 -35.5t35.5 -84.5t-35.5 -84.5t-84.5 -35.5z" />
    <glyph glyph-name="uni1E03" unicode="&#x1e03;" horiz-adv-x="1231" 
d="M104 501v983h320v-933h1q0 -164 58 -235t159 -71t159 71t58 185q0 111 -63 180.5t-134 69.5q-95 0 -181 -76v296q104 43 211 43q182 0 335 -155.5t153 -357.5q0 -205 -153 -362t-385 -157t-385 157t-153 362zM762 1230q-49 0 -84.5 35.5t-35.5 84.5t35.5 84.5t84.5 35.5
t84.5 -35.5t35.5 -84.5t-35.5 -84.5t-84.5 -35.5z" />
    <glyph glyph-name="uni1E04" unicode="&#x1e04;" horiz-adv-x="1267" 
d="M1148 1037q-1 -178 -112 -265q170 -86 170 -328q0 -221 -166.5 -332.5t-320.5 -111.5h-156v282h129q87 0 120.5 31.5t33.5 121.5q0 94 -43 132t-111 38h-129v282h68q77 0 117 42t40 112q0 71 -32.5 93t-85.5 22q-71 0 -132.5 -61t-61.5 -220v-875h-359v932
q0 204 157.5 360t395.5 156q216 0 347 -113t131 -298zM662 -391q-49 0 -84.5 35.5t-35.5 84.5t35.5 84.5t84.5 35.5t84.5 -35.5t35.5 -84.5t-35.5 -84.5t-84.5 -35.5z" />
    <glyph glyph-name="uni1E05" unicode="&#x1e05;" horiz-adv-x="1231" 
d="M104 501v983h320v-933h1q0 -164 58 -235t159 -71t159 71t58 185q0 111 -63 180.5t-134 69.5q-95 0 -181 -76v296q104 43 211 43q182 0 335 -155.5t153 -357.5q0 -205 -153 -362t-385 -157t-385 157t-153 362zM642 -391q-49 0 -84.5 35.5t-35.5 84.5t35.5 84.5t84.5 35.5
t84.5 -35.5t35.5 -84.5t-35.5 -84.5t-84.5 -35.5z" />
    <glyph glyph-name="uni1E06" unicode="&#x1e06;" horiz-adv-x="1267" 
d="M1148 1037q-1 -178 -112 -265q170 -86 170 -328q0 -221 -166.5 -332.5t-320.5 -111.5h-156v282h129q87 0 120.5 31.5t33.5 121.5q0 94 -43 132t-111 38h-129v282h68q77 0 117 42t40 112q0 71 -32.5 93t-85.5 22q-71 0 -132.5 -61t-61.5 -220v-875h-359v932
q0 204 157.5 360t395.5 156q216 0 347 -113t131 -298zM362 -339v160h600v-160h-600z" />
    <glyph glyph-name="uni1E07" unicode="&#x1e07;" horiz-adv-x="1231" 
d="M104 501v983h320v-933h1q0 -164 58 -235t159 -71t159 71t58 185q0 111 -63 180.5t-134 69.5q-95 0 -181 -76v296q104 43 211 43q182 0 335 -155.5t153 -357.5q0 -205 -153 -362t-385 -157t-385 157t-153 362zM342 -339v160h600v-160h-600z" />
    <glyph glyph-name="uni1E08" unicode="&#x1e08;" horiz-adv-x="1139" 
d="M573 38q-162 52 -288 177q-217 215 -217 502t217 502t540 215h237v-291h-237q-156 0 -277 -119.5t-121 -306.5q0 -186 121 -306t277 -120h237v-291h-237q-72 0 -138 11v-97q86 0 134 -40.5t48 -113.5q0 -76 -58.5 -120.5t-160.5 -44.5q-109 0 -189 32v96q65 -32 142 -32
q46 0 69.5 21.5t23.5 46.5q0 35 -22 57.5t-47 22.5h-54v199zM591 1646h-204l290 342h305z" />
    <glyph glyph-name="uni1E09" unicode="&#x1e09;" horiz-adv-x="894" 
d="M428 18q-124 31 -218 116q-149 133 -149 349t149 349.5t375 133.5h234v-220h-234q-76 0 -142 -68t-66 -195t66 -195t142 -68h234v-220h-234q-22 0 -43 1v-87q86 0 134 -40.5t48 -113.5q0 -76 -58.5 -120.5t-160.5 -44.5q-109 0 -189 32v96q65 -32 142 -32q46 0 69.5 21.5
t23.5 46.5q0 35 -22 57.5t-47 22.5h-54v179zM468 1178h-204l290 342h305z" />
    <glyph glyph-name="uni1E0A" unicode="&#x1e0a;" horiz-adv-x="1386" 
d="M490 1143v-1143h-359v1434h434q323 0 540 -215t217 -502t-217 -502t-513 -215v291q129 0 250 120t121 306q0 187 -121 306.5t-277 119.5h-75zM627 1698q-49 0 -84.5 35.5t-35.5 84.5t35.5 84.5t84.5 35.5t84.5 -35.5t35.5 -84.5t-35.5 -84.5t-84.5 -35.5z" />
    <glyph glyph-name="uni1E0B" unicode="&#x1e0b;" horiz-adv-x="1231" 
d="M642 -18q-232 0 -385 155t-153 364q0 203 153 358t335 155q107 0 211 -43v-295q-86 75 -181 75q-71 0 -134 -69t-63 -181q0 -114 58 -185t159 -71t159 71t58 235h1v933h320v-983q0 -209 -153 -364t-385 -155zM522 1230q-49 0 -84.5 35.5t-35.5 84.5t35.5 84.5t84.5 35.5
t84.5 -35.5t35.5 -84.5t-35.5 -84.5t-84.5 -35.5z" />
    <glyph glyph-name="uni1E0C" unicode="&#x1e0c;" horiz-adv-x="1386" 
d="M490 1143v-1143h-359v1434h434q323 0 540 -215t217 -502t-217 -502t-513 -215v291q129 0 250 120t121 306q0 187 -121 306.5t-277 119.5h-75zM627 -391q-49 0 -84.5 35.5t-35.5 84.5t35.5 84.5t84.5 35.5t84.5 -35.5t35.5 -84.5t-35.5 -84.5t-84.5 -35.5z" />
    <glyph glyph-name="uni1E0D" unicode="&#x1e0d;" horiz-adv-x="1231" 
d="M642 -18q-232 0 -385 155t-153 364q0 203 153 358t335 155q107 0 211 -43v-295q-86 75 -181 75q-71 0 -134 -69t-63 -181q0 -114 58 -185t159 -71t159 71t58 235h1v933h320v-983q0 -209 -153 -364t-385 -155zM642 -391q-49 0 -84.5 35.5t-35.5 84.5t35.5 84.5t84.5 35.5
t84.5 -35.5t35.5 -84.5t-35.5 -84.5t-84.5 -35.5z" />
    <glyph glyph-name="uni1E0E" unicode="&#x1e0e;" horiz-adv-x="1386" 
d="M490 1143v-1143h-359v1434h434q323 0 540 -215t217 -502t-217 -502t-513 -215v291q129 0 250 120t121 306q0 187 -121 306.5t-277 119.5h-75zM327 -339v160h600v-160h-600z" />
    <glyph glyph-name="uni1E0F" unicode="&#x1e0f;" horiz-adv-x="1231" 
d="M642 -18q-232 0 -385 155t-153 364q0 203 153 358t335 155q107 0 211 -43v-295q-86 75 -181 75q-71 0 -134 -69t-63 -181q0 -114 58 -185t159 -71t159 71t58 235h1v933h320v-983q0 -209 -153 -364t-385 -155zM342 -339v160h600v-160h-600z" />
    <glyph glyph-name="uni1E10" unicode="&#x1e10;" horiz-adv-x="1386" 
d="M256 0h-125v1434h434q323 0 540 -215t217 -502t-217 -502t-513 -215v291q129 0 250 120t121 306q0 187 -121 306.5t-277 119.5h-75v-1143h-120v-86q86 0 134 -40.5t48 -113.5q0 -76 -58.5 -120.5t-160.5 -44.5q-109 0 -189 32v96q65 -32 142 -32q46 0 69.5 21.5
t23.5 46.5q0 35 -22 57.5t-47 22.5h-54v161z" />
    <glyph glyph-name="uni1E11" unicode="&#x1e11;" horiz-adv-x="1231" 
d="M550 -11q-171 25 -293 148q-153 155 -153 364q0 203 153 358t335 155q107 0 211 -43v-295q-86 75 -181 75q-71 0 -134 -69t-63 -181q0 -114 58 -185t159 -71t159 71t58 235h1v933h320v-983q0 -209 -153 -364q-146 -148 -363 -155v-68q86 0 134 -40.5t48 -113.5
q0 -76 -58.5 -120.5t-160.5 -44.5q-109 0 -189 32v96q65 -32 142 -32q46 0 69.5 21.5t23.5 46.5q0 35 -22 57.5t-47 22.5h-54v150z" />
    <glyph glyph-name="uni1E12" unicode="&#x1e12;" horiz-adv-x="1386" 
d="M490 1143v-1143h-359v1434h434q323 0 540 -215t217 -502t-217 -502t-513 -215v291q129 0 250 120t121 306q0 187 -121 306.5t-277 119.5h-75zM627 -261l-151 -143h-264l319 342h191l319 -342h-264z" />
    <glyph glyph-name="uni1E13" unicode="&#x1e13;" horiz-adv-x="1231" 
d="M642 -18q-232 0 -385 155t-153 364q0 203 153 358t335 155q107 0 211 -43v-295q-86 75 -181 75q-71 0 -134 -69t-63 -181q0 -114 58 -185t159 -71t159 71t58 235h1v933h320v-983q0 -209 -153 -364t-385 -155zM643 -261l-151 -143h-264l319 342h191l319 -342h-264z" />
    <glyph glyph-name="uni1E14" unicode="&#x1e14;" horiz-adv-x="1160" 
d="M442 857h604v-280h-604q12 -78 120 -187t263 -109h221v-281h-221q-323 0 -540 215t-217 502t217 502t540 215h221v-281h-221q-155 0 -262.5 -108.5t-120.5 -187.5zM967 1682v-160h-600v160h600zM367 1991h245l184 -248h-144z" />
    <glyph glyph-name="uni1E15" unicode="&#x1e15;" horiz-adv-x="1199" 
d="M382 500q0 -104 58 -180t159 -76q81 0 152.5 42.5t89.5 128.5l275 -86q-35 -125 -160 -236.5t-357 -111.5t-385 155t-153 364q0 203 153 358.5t385 155.5q220 0 346.5 -108t154.5 -221l-537 -333l-105 149l294 180q-63 70 -133 70q-101 0 -169 -69.5t-68 -181.5z
M212 1271v160h600v-160h-600zM174 1820h305l290 -342h-204z" />
    <glyph glyph-name="uni1E16" unicode="&#x1e16;" horiz-adv-x="1160" 
d="M442 857h604v-280h-604q12 -78 120 -187t263 -109h221v-281h-221q-323 0 -540 215t-217 502t217 502t540 215h221v-281h-221q-155 0 -262.5 -108.5t-120.5 -187.5zM967 1682v-160h-600v160h600zM682 1743h-144l184 248h245z" />
    <glyph glyph-name="uni1E17" unicode="&#x1e17;" horiz-adv-x="1199" 
d="M382 500q0 -104 58 -180t159 -76q81 0 152.5 42.5t89.5 128.5l275 -86q-35 -125 -160 -236.5t-357 -111.5t-385 155t-153 364q0 203 153 358.5t385 155.5q220 0 346.5 -108t154.5 -221l-537 -333l-105 149l294 180q-63 70 -133 70q-101 0 -169 -69.5t-68 -181.5z
M289 1271v160h600v-160h-600zM596 1591h-204l290 342h305z" />
    <glyph glyph-name="uni1E18" unicode="&#x1e18;" horiz-adv-x="1160" 
d="M442 857h604v-280h-604q12 -78 120 -187t263 -109h221v-281h-221q-323 0 -540 215t-217 502t217 502t540 215h221v-281h-221q-155 0 -262.5 -108.5t-120.5 -187.5zM666 -261l-151 -143h-264l319 342h191l319 -342h-264z" />
    <glyph glyph-name="uni1E19" unicode="&#x1e19;" horiz-adv-x="1199" 
d="M382 500q0 -104 58 -180t159 -76q81 0 152.5 42.5t89.5 128.5l275 -86q-35 -125 -160 -236.5t-357 -111.5t-385 155t-153 364q0 203 153 358.5t385 155.5q220 0 346.5 -108t154.5 -221l-537 -333l-105 149l294 180q-63 70 -133 70q-101 0 -169 -69.5t-68 -181.5z
M589 -261l-151 -143h-264l319 342h191l319 -342h-264z" />
    <glyph glyph-name="uni1E1A" unicode="&#x1e1a;" horiz-adv-x="1160" 
d="M442 857h604v-280h-604q12 -78 120 -187t263 -109h221v-281h-221q-323 0 -540 215t-217 502t217 502t540 215h221v-281h-221q-155 0 -262.5 -108.5t-120.5 -187.5zM995 -131q-23 -111 -79 -185.5t-145 -74.5q-51 0 -119.5 34.5t-111.5 34.5q-45 0 -70 -24t-38 -65h-97
q22 141 78.5 200.5t148.5 59.5q41 0 110.5 -37.5t113.5 -37.5q46 0 71 30t41 65h97z" />
    <glyph glyph-name="uni1E1B" unicode="&#x1e1b;" horiz-adv-x="1199" 
d="M382 500q0 -104 58 -180t159 -76q81 0 152.5 42.5t89.5 128.5l275 -86q-35 -125 -160 -236.5t-357 -111.5t-385 155t-153 364q0 203 153 358.5t385 155.5q220 0 346.5 -108t154.5 -221l-537 -333l-105 149l294 180q-63 70 -133 70q-101 0 -169 -69.5t-68 -181.5z
M919 -131q-23 -111 -79 -185.5t-145 -74.5q-51 0 -119.5 34.5t-111.5 34.5q-45 0 -70 -24t-38 -65h-97q22 141 78.5 200.5t148.5 59.5q41 0 110.5 -37.5t113.5 -37.5q46 0 71 30t41 65h97z" />
    <glyph glyph-name="uni1E1C" unicode="&#x1e1c;" horiz-adv-x="1160" 
d="M573 38q-162 52 -288 177q-217 215 -217 502t217 502t540 215h221v-281h-221q-155 0 -262.5 -108.5t-120.5 -187.5h604v-280h-604q12 -78 120 -187t263 -109h221v-281h-221q-72 0 -138 11v-97q86 0 134 -40.5t48 -113.5q0 -76 -58.5 -120.5t-160.5 -44.5q-109 0 -189 32
v96q65 -32 142 -32q46 0 69.5 21.5t23.5 46.5q0 35 -22 57.5t-47 22.5h-54v199zM407 1953q6 -50 43.5 -87.5t107.5 -37.5t106.5 37t42.5 88h191q-22 -146 -113.5 -221.5t-226.5 -75.5q-134 0 -226.5 76t-115.5 221h191z" />
    <glyph glyph-name="uni1E1D" unicode="&#x1e1d;" horiz-adv-x="1199" 
d="M497 -11q-165 27 -283 147q-153 155 -153 364q0 203 153 358.5t385 155.5q220 0 346.5 -108t154.5 -221l-537 -333l-105 149l294 180q-63 70 -133 70q-101 0 -169 -69.5t-68 -181.5q0 -104 58 -180t159 -76q81 0 152.5 42.5t89.5 128.5l275 -86q-35 -125 -160 -236
q-122 -109 -345 -112v-67q86 0 134 -40.5t48 -113.5q0 -76 -58.5 -120.5t-160.5 -44.5q-109 0 -189 32v96q65 -32 142 -32q46 0 69.5 21.5t23.5 46.5q0 35 -22 57.5t-47 22.5h-54v150zM439 1485q6 -50 43.5 -87.5t107.5 -37.5t106.5 37t42.5 88h191q-22 -146 -113.5 -221.5
t-226.5 -75.5q-134 0 -226.5 76t-115.5 221h191z" />
    <glyph glyph-name="uni1E1E" unicode="&#x1e1e;" horiz-adv-x="1050" 
d="M476 861h483v-279h-483v-582h-359v915q0 519 566 519h276v-282h-310q-173 0 -173 -203v-88zM538 1698q-49 0 -84.5 35.5t-35.5 84.5t35.5 84.5t84.5 35.5t84.5 -35.5t35.5 -84.5t-35.5 -84.5t-84.5 -35.5z" />
    <glyph glyph-name="uni1E1F" unicode="&#x1e1f;" horiz-adv-x="757" 
d="M581 1484h181v-220h-181q-73 0 -106.5 -54t-33.5 -127v-117h321v-220h-321v-746h-320v966q0 261 123 389.5t337 128.5zM444 1698q-49 0 -84.5 35.5t-35.5 84.5t35.5 84.5t84.5 35.5t84.5 -35.5t35.5 -84.5t-35.5 -84.5t-84.5 -35.5z" />
    <glyph glyph-name="uni1E20" unicode="&#x1e20;" horiz-adv-x="1660" 
d="M1260 589h-455v212h795q17 -51 17 -134q0 -245 -222.5 -465t-553.5 -220q-330 0 -552.5 220t-222.5 515t222.5 515t552.5 220q401 0 630 -324l-222 -165q-180 224 -408 224q-169 0 -299.5 -133t-130.5 -337q0 -205 130.5 -337.5t299.5 -132.5q168 0 289 122t130 220z
M542 1739v160h600v-160h-600z" />
    <glyph glyph-name="uni1E21" unicode="&#x1e21;" horiz-adv-x="1231" 
d="M601 -213q111 0 164 54t53 183l1 426q-1 143 -59 222t-159 79t-159 -69t-58 -182q0 -116 58 -185.5t139 -69.5q85 0 181 66v-286q-83 -43 -171 -43q-212 0 -370 155.5t-158 362.5q0 204 153 359t385 155t385 -155t153 -359v-466q0 -200 -153 -320t-385 -120
q-222 0 -405 146l106 159q158 -112 299 -112zM301 1271v160h600v-160h-600z" />
    <glyph glyph-name="uni1E22" unicode="&#x1e22;" horiz-adv-x="1365" 
d="M131 1434h359v-547h388v547h359v-1434h-359v605h-388v-605h-359v1434zM684 1698q-49 0 -84.5 35.5t-35.5 84.5t35.5 84.5t84.5 35.5t84.5 -35.5t35.5 -84.5t-35.5 -84.5t-84.5 -35.5z" />
    <glyph glyph-name="uni1E23" unicode="&#x1e23;" horiz-adv-x="1155" 
d="M121 1484h320v-542q91 72 220 72q172 0 284 -119.5t112 -347.5v-547h-320v552q0 88 -34.5 143t-94.5 55q-77 0 -122 -60t-45 -155v-535h-320v1484zM676 1230q-49 0 -84.5 35.5t-35.5 84.5t35.5 84.5t84.5 35.5t84.5 -35.5t35.5 -84.5t-35.5 -84.5t-84.5 -35.5z" />
    <glyph glyph-name="uni1E24" unicode="&#x1e24;" horiz-adv-x="1365" 
d="M131 1434h359v-547h388v547h359v-1434h-359v605h-388v-605h-359v1434zM684 -391q-49 0 -84.5 35.5t-35.5 84.5t35.5 84.5t84.5 35.5t84.5 -35.5t35.5 -84.5t-35.5 -84.5t-84.5 -35.5z" />
    <glyph glyph-name="uni1E25" unicode="&#x1e25;" horiz-adv-x="1155" 
d="M121 1484h320v-542q91 72 220 72q172 0 284 -119.5t112 -347.5v-547h-320v552q0 88 -34.5 143t-94.5 55q-77 0 -122 -60t-45 -155v-535h-320v1484zM589 -391q-49 0 -84.5 35.5t-35.5 84.5t35.5 84.5t84.5 35.5t84.5 -35.5t35.5 -84.5t-35.5 -84.5t-84.5 -35.5z" />
    <glyph glyph-name="uni1E26" unicode="&#x1e26;" horiz-adv-x="1365" 
d="M131 1434h359v-547h388v547h359v-1434h-359v605h-388v-605h-359v1434zM518 1698q-49 0 -84.5 35.5t-35.5 84.5t35.5 84.5t84.5 35.5t84.5 -35.5t35.5 -84.5t-35.5 -84.5t-84.5 -35.5zM851 1698q-50 0 -85 35.5t-35 84.5t35 84.5t85 35.5q49 0 84.5 -35.5t35.5 -84.5
t-35.5 -84.5t-84.5 -35.5z" />
    <glyph glyph-name="uni1E27" unicode="&#x1e27;" horiz-adv-x="1155" 
d="M121 1484h320v-542q91 72 220 72q172 0 284 -119.5t112 -347.5v-547h-320v552q0 88 -34.5 143t-94.5 55q-77 0 -122 -60t-45 -155v-535h-320v1484zM423 1698q-49 0 -84.5 35.5t-35.5 84.5t35.5 84.5t84.5 35.5t84.5 -35.5t35.5 -84.5t-35.5 -84.5t-84.5 -35.5zM756 1698
q-50 0 -85 35.5t-35 84.5t35 84.5t85 35.5q49 0 84.5 -35.5t35.5 -84.5t-35.5 -84.5t-84.5 -35.5z" />
    <glyph glyph-name="uni1E28" unicode="&#x1e28;" horiz-adv-x="1365" 
d="M243 0h-112v1434h359v-547h388v547h359v-1434h-359v605h-388v-605h-133v-86q86 0 134 -40.5t48 -113.5q0 -76 -58.5 -120.5t-160.5 -44.5q-109 0 -189 32v96q65 -32 142 -32q46 0 69.5 21.5t23.5 46.5q0 35 -22 57.5t-47 22.5h-54v161z" />
    <glyph glyph-name="uni1E29" unicode="&#x1e29;" horiz-adv-x="1155" 
d="M233 0h-112v1484h320v-542q91 72 220 72q172 0 284 -119.5t112 -347.5v-547h-320v552q0 88 -34.5 143t-94.5 55q-77 0 -122 -60t-45 -155v-535h-94v-86q86 0 134 -40.5t48 -113.5q0 -76 -58.5 -120.5t-160.5 -44.5q-109 0 -189 32v96q65 -32 142 -32q46 0 69.5 21.5
t23.5 46.5q0 35 -22 57.5t-47 22.5h-54v161z" />
    <glyph glyph-name="uni1E2A" unicode="&#x1e2a;" horiz-adv-x="1365" 
d="M131 1434h359v-547h388v547h359v-1434h-359v605h-388v-605h-359v1434zM514 -109q16 -80 58.5 -117.5t112.5 -37.5t111.5 37t57.5 118h151q-22 -146 -103.5 -221.5t-216.5 -75.5q-134 0 -216.5 76t-105.5 221h151z" />
    <glyph glyph-name="uni1E2B" unicode="&#x1e2b;" horiz-adv-x="1155" 
d="M121 1484h320v-542q91 72 220 72q172 0 284 -119.5t112 -347.5v-547h-320v552q0 88 -34.5 143t-94.5 55q-77 0 -122 -60t-45 -155v-535h-320v1484zM419 -109q16 -80 58.5 -117.5t112.5 -37.5t111.5 37t57.5 118h151q-22 -146 -103.5 -221.5t-216.5 -75.5
q-134 0 -216.5 76t-105.5 221h151z" />
    <glyph glyph-name="uni1E2C" unicode="&#x1e2c;" horiz-adv-x="632" 
d="M137 1434h359v-1434h-359v1434zM649 -131q-23 -111 -79 -185.5t-145 -74.5q-51 0 -119.5 34.5t-111.5 34.5q-45 0 -70 -24t-38 -65h-97q22 141 78.5 200.5t148.5 59.5q41 0 110.5 -37.5t113.5 -37.5q46 0 71 30t41 65h97z" />
    <glyph glyph-name="uni1E2D" unicode="&#x1e2d;" horiz-adv-x="562" 
d="M114 966h320v-966h-320v966zM274 1035q-79 0 -124.5 55.5t-45.5 114.5q0 61 45.5 115.5t124.5 54.5t124.5 -54.5t45.5 -115.5q0 -59 -45.5 -114.5t-124.5 -55.5zM606 -131q-23 -111 -79 -185.5t-145 -74.5q-51 0 -119.5 34.5t-111.5 34.5q-45 0 -70 -24t-38 -65h-97
q22 141 78.5 200.5t148.5 59.5q41 0 110.5 -37.5t113.5 -37.5q46 0 71 30t41 65h97z" />
    <glyph glyph-name="uni1E2E" unicode="&#x1e2e;" horiz-adv-x="632" 
d="M137 1434h359v-1434h-359v1434zM156 1522q-49 0 -84.5 35.5t-35.5 84.5t35.5 84.5t84.5 35.5t84.5 -35.5t35.5 -84.5t-35.5 -84.5t-84.5 -35.5zM489 1522q-50 0 -85 35.5t-35 84.5t35 84.5t85 35.5q49 0 84.5 -35.5t35.5 -84.5t-35.5 -84.5t-84.5 -35.5zM394 1762h-144
l184 229h245z" />
    <glyph glyph-name="uni1E2F" unicode="&#x1e2f;" horiz-adv-x="562" 
d="M114 966h320v-966h-320v966zM110 1230q-49 0 -84.5 35.5t-35.5 84.5t35.5 84.5t84.5 35.5t84.5 -35.5t35.5 -84.5t-35.5 -84.5t-84.5 -35.5zM443 1230q-50 0 -85 35.5t-35 84.5t35 84.5t85 35.5q49 0 84.5 -35.5t35.5 -84.5t-35.5 -84.5t-84.5 -35.5zM365 1478h-204
l290 342h305z" />
    <glyph glyph-name="uni1E30" unicode="&#x1e30;" horiz-adv-x="1300" 
d="M131 1434h359v-547h96q64 0 177 241l148 306h360q-206 -534 -348 -594q96 -9 179 -118.5t83 -302.5v-419h-357v393q0 212 -149 212h-189v-605h-359v1434zM727 1646h-204l290 342h305z" />
    <glyph glyph-name="uni1E31" unicode="&#x1e31;" horiz-adv-x="1093" 
d="M121 1484h320v-835h42q77 0 248 317h323q-152 -312 -240 -368q59 0 111 -74t57 -180v-344h-321v296q0 63 -19.5 98t-76.5 35h-124v-429h-320v1484zM387 1649h-204l290 342h305z" />
    <glyph glyph-name="uni1E32" unicode="&#x1e32;" horiz-adv-x="1300" 
d="M131 1434h359v-547h96q64 0 177 241l148 306h360q-206 -534 -348 -594q96 -9 179 -118.5t83 -302.5v-419h-357v393q0 212 -149 212h-189v-605h-359v1434zM701 -391q-49 0 -84.5 35.5t-35.5 84.5t35.5 84.5t84.5 35.5t84.5 -35.5t35.5 -84.5t-35.5 -84.5t-84.5 -35.5z" />
    <glyph glyph-name="uni1E33" unicode="&#x1e33;" horiz-adv-x="1093" 
d="M121 1484h320v-835h42q77 0 248 317h323q-152 -312 -240 -368q59 0 111 -74t57 -180v-344h-321v296q0 63 -19.5 98t-76.5 35h-124v-429h-320v1484zM588 -391q-49 0 -84.5 35.5t-35.5 84.5t35.5 84.5t84.5 35.5t84.5 -35.5t35.5 -84.5t-35.5 -84.5t-84.5 -35.5z" />
    <glyph glyph-name="uni1E34" unicode="&#x1e34;" horiz-adv-x="1300" 
d="M131 1434h359v-547h96q64 0 177 241l148 306h360q-206 -534 -348 -594q96 -9 179 -118.5t83 -302.5v-419h-357v393q0 212 -149 212h-189v-605h-359v1434zM401 -339v160h600v-160h-600z" />
    <glyph glyph-name="uni1E35" unicode="&#x1e35;" horiz-adv-x="1093" 
d="M121 1484h320v-835h42q77 0 248 317h323q-152 -312 -240 -368q59 0 111 -74t57 -180v-344h-321v296q0 63 -19.5 98t-76.5 35h-124v-429h-320v1484zM288 -339v160h600v-160h-600z" />
    <glyph glyph-name="uni1E36" unicode="&#x1e36;" horiz-adv-x="976" 
d="M117 1434h359v-955q17 -197 155 -197h354v-282h-293q-575 0 -575 528v906zM551 -391q-49 0 -84.5 35.5t-35.5 84.5t35.5 84.5t84.5 35.5t84.5 -35.5t35.5 -84.5t-35.5 -84.5t-84.5 -35.5z" />
    <glyph glyph-name="uni1E37" unicode="&#x1e37;" horiz-adv-x="564" 
d="M121 1484h320v-1484h-320v1484zM281 -391q-49 0 -84.5 35.5t-35.5 84.5t35.5 84.5t84.5 35.5t84.5 -35.5t35.5 -84.5t-35.5 -84.5t-84.5 -35.5z" />
    <glyph glyph-name="uni1E38" unicode="&#x1e38;" horiz-adv-x="976" 
d="M117 1434h359v-955q17 -197 155 -197h354v-282h-293q-575 0 -575 528v906zM12 1739v160h600v-160h-600zM551 -391q-49 0 -84.5 35.5t-35.5 84.5t35.5 84.5t84.5 35.5t84.5 -35.5t35.5 -84.5t-35.5 -84.5t-84.5 -35.5z" />
    <glyph glyph-name="uni1E39" unicode="&#x1e39;" horiz-adv-x="564" 
d="M121 1484h320v-1484h-320v1484zM-17 1739v160h600v-160h-600zM281 -391q-49 0 -84.5 35.5t-35.5 84.5t35.5 84.5t84.5 35.5t84.5 -35.5t35.5 -84.5t-35.5 -84.5t-84.5 -35.5z" />
    <glyph glyph-name="uni1E3A" unicode="&#x1e3a;" horiz-adv-x="976" 
d="M117 1434h359v-955q17 -197 155 -197h354v-282h-293q-575 0 -575 528v906zM251 -339v160h600v-160h-600z" />
    <glyph glyph-name="uni1E3B" unicode="&#x1e3b;" horiz-adv-x="564" 
d="M121 1484h320v-1484h-320v1484zM-17 -339v160h600v-160h-600z" />
    <glyph glyph-name="uni1E3C" unicode="&#x1e3c;" horiz-adv-x="976" 
d="M117 1434h359v-955q17 -197 155 -197h354v-282h-293q-575 0 -575 528v906zM552 -261l-151 -143h-264l319 342h191l319 -342h-264z" />
    <glyph glyph-name="uni1E3D" unicode="&#x1e3d;" horiz-adv-x="564" 
d="M121 1484h320v-1484h-320v1484zM282 -261l-151 -143h-264l319 342h191l319 -342h-264z" />
    <glyph glyph-name="uni1E3E" unicode="&#x1e3e;" horiz-adv-x="1786" 
d="M439 1459q195 0 292 -310l171 -542l186 550q95 302 270 302q163 0 196 -119l191 -1340h-350l-105 746l-166 -520q-73 -243 -226 -243t-229 243l-163 521l-111 -747h-350l201 1339q28 120 193 120zM921 1646h-204l290 342h305z" />
    <glyph glyph-name="uni1E3F" unicode="&#x1e3f;" horiz-adv-x="1641" 
d="M666 0v602q0 85 -36.5 121t-90.5 36t-91 -36t-37 -121v-602h-305v602q0 161 122 286.5t311 125.5q159 0 281 -130q121 130 280 130q189 0 311.5 -125.5t122.5 -286.5v-602h-306v602q0 85 -36.5 121t-91.5 36q-54 0 -90.5 -36t-36.5 -121v-602h-307zM846 1178h-204
l290 342h305z" />
    <glyph glyph-name="uni1E40" unicode="&#x1e40;" horiz-adv-x="1786" 
d="M439 1459q195 0 292 -310l171 -542l186 550q95 302 270 302q163 0 196 -119l191 -1340h-350l-105 746l-166 -520q-73 -243 -226 -243t-229 243l-163 521l-111 -747h-350l201 1339q28 120 193 120zM895 1698q-49 0 -84.5 35.5t-35.5 84.5t35.5 84.5t84.5 35.5t84.5 -35.5
t35.5 -84.5t-35.5 -84.5t-84.5 -35.5z" />
    <glyph glyph-name="uni1E41" unicode="&#x1e41;" horiz-adv-x="1641" 
d="M666 0v602q0 85 -36.5 121t-90.5 36t-91 -36t-37 -121v-602h-305v602q0 161 122 286.5t311 125.5q159 0 281 -130q121 130 280 130q189 0 311.5 -125.5t122.5 -286.5v-602h-306v602q0 85 -36.5 121t-91.5 36q-54 0 -90.5 -36t-36.5 -121v-602h-307zM820 1230
q-49 0 -84.5 35.5t-35.5 84.5t35.5 84.5t84.5 35.5t84.5 -35.5t35.5 -84.5t-35.5 -84.5t-84.5 -35.5z" />
    <glyph glyph-name="uni1E42" unicode="&#x1e42;" horiz-adv-x="1786" 
d="M439 1459q195 0 292 -310l171 -542l186 550q95 302 270 302q163 0 196 -119l191 -1340h-350l-105 746l-166 -520q-73 -243 -226 -243t-229 243l-163 521l-111 -747h-350l201 1339q28 120 193 120zM895 -391q-49 0 -84.5 35.5t-35.5 84.5t35.5 84.5t84.5 35.5t84.5 -35.5
t35.5 -84.5t-35.5 -84.5t-84.5 -35.5z" />
    <glyph glyph-name="uni1E43" unicode="&#x1e43;" horiz-adv-x="1641" 
d="M666 0v602q0 85 -36.5 121t-90.5 36t-91 -36t-37 -121v-602h-305v602q0 161 122 286.5t311 125.5q159 0 281 -130q121 130 280 130q189 0 311.5 -125.5t122.5 -286.5v-602h-306v602q0 85 -36.5 121t-91.5 36q-54 0 -90.5 -36t-36.5 -121v-602h-307zM820 -391
q-49 0 -84.5 35.5t-35.5 84.5t35.5 84.5t84.5 35.5t84.5 -35.5t35.5 -84.5t-35.5 -84.5t-84.5 -35.5z" />
    <glyph glyph-name="uni1E44" unicode="&#x1e44;" horiz-adv-x="1398" 
d="M365 1460q187 0 316 -289l241 -511v774h348v-1163q0 -288 -240 -288q-172 0 -296 276l-253 522v-781h-350v1159q0 301 234 301zM701 1698q-49 0 -84.5 35.5t-35.5 84.5t35.5 84.5t84.5 35.5t84.5 -35.5t35.5 -84.5t-35.5 -84.5t-84.5 -35.5z" />
    <glyph glyph-name="uni1E45" unicode="&#x1e45;" horiz-adv-x="1141" 
d="M1042 602v-602h-320v602q0 84 -41 120.5t-107 36.5t-107 -36.5t-41 -120.5v-602h-320v602q0 162 133.5 287t334.5 125t334.5 -125t133.5 -287zM574 1230q-49 0 -84.5 35.5t-35.5 84.5t35.5 84.5t84.5 35.5t84.5 -35.5t35.5 -84.5t-35.5 -84.5t-84.5 -35.5z" />
    <glyph glyph-name="uni1E46" unicode="&#x1e46;" horiz-adv-x="1398" 
d="M365 1460q187 0 316 -289l241 -511v774h348v-1163q0 -288 -240 -288q-172 0 -296 276l-253 522v-781h-350v1159q0 301 234 301zM701 -391q-49 0 -84.5 35.5t-35.5 84.5t35.5 84.5t84.5 35.5t84.5 -35.5t35.5 -84.5t-35.5 -84.5t-84.5 -35.5z" />
    <glyph glyph-name="uni1E47" unicode="&#x1e47;" horiz-adv-x="1141" 
d="M1042 602v-602h-320v602q0 84 -41 120.5t-107 36.5t-107 -36.5t-41 -120.5v-602h-320v602q0 162 133.5 287t334.5 125t334.5 -125t133.5 -287zM574 -391q-49 0 -84.5 35.5t-35.5 84.5t35.5 84.5t84.5 35.5t84.5 -35.5t35.5 -84.5t-35.5 -84.5t-84.5 -35.5z" />
    <glyph glyph-name="uni1E48" unicode="&#x1e48;" horiz-adv-x="1398" 
d="M365 1460q187 0 316 -289l241 -511v774h348v-1163q0 -288 -240 -288q-172 0 -296 276l-253 522v-781h-350v1159q0 301 234 301zM401 -339v160h600v-160h-600z" />
    <glyph glyph-name="uni1E49" unicode="&#x1e49;" horiz-adv-x="1141" 
d="M1042 602v-602h-320v602q0 84 -41 120.5t-107 36.5t-107 -36.5t-41 -120.5v-602h-320v602q0 162 133.5 287t334.5 125t334.5 -125t133.5 -287zM274 -339v160h600v-160h-600z" />
    <glyph glyph-name="uni1E4A" unicode="&#x1e4a;" horiz-adv-x="1398" 
d="M365 1460q187 0 316 -289l241 -511v774h348v-1163q0 -288 -240 -288q-172 0 -296 276l-253 522v-781h-350v1159q0 301 234 301zM701 -261l-151 -143h-264l319 342h191l319 -342h-264z" />
    <glyph glyph-name="uni1E4B" unicode="&#x1e4b;" horiz-adv-x="1141" 
d="M1042 602v-602h-320v602q0 84 -41 120.5t-107 36.5t-107 -36.5t-41 -120.5v-602h-320v602q0 162 133.5 287t334.5 125t334.5 -125t133.5 -287zM575 -261l-151 -143h-264l319 342h191l319 -342h-264z" />
    <glyph glyph-name="uni1E4C" unicode="&#x1e4c;" horiz-adv-x="1660" 
d="M841 -18q-330 0 -552.5 220t-222.5 515t222.5 515t552.5 220q331 0 553.5 -220t222.5 -515t-222.5 -515t-553.5 -220zM1272 717q0 203 -131.5 336.5t-299.5 133.5q-169 0 -299.5 -133t-130.5 -337q0 -205 130.5 -337.5t299.5 -132.5q168 0 299.5 132.5t131.5 337.5z
M912 1743h-144l184 248h245zM1106 1732q-21 -83 -71.5 -146.5t-132.5 -63.5q-46 0 -108 26t-102 26q-41 0 -63.5 -10.5t-34.5 -41.5h-88q20 106 71 158t135 52q38 0 101 -28t103 -28q42 0 65 15t37 41h88z" />
    <glyph glyph-name="uni1E4D" unicode="&#x1e4d;" horiz-adv-x="1194" 
d="M816 500q0 112 -68 181.5t-149 69.5t-149 -69.5t-68 -181.5q0 -114 68 -183t149 -69t149 69t68 183zM61 500q0 204 153 359t385 155t385 -155t153 -359q0 -205 -153 -360t-385 -155t-385 155t-153 360zM929 1490q-23 -111 -79 -185.5t-145 -74.5q-51 0 -119.5 34.5
t-111.5 34.5q-45 0 -70 -24t-38 -65h-97q22 141 78.5 200.5t148.5 59.5q41 0 110.5 -37.5t113.5 -37.5q46 0 71 30t41 65h97zM607 1490h-204l290 342h305z" />
    <glyph glyph-name="uni1E4E" unicode="&#x1e4e;" horiz-adv-x="1660" 
d="M841 -18q-330 0 -552.5 220t-222.5 515t222.5 515t552.5 220q331 0 553.5 -220t222.5 -515t-222.5 -515t-553.5 -220zM1272 717q0 203 -131.5 336.5t-299.5 133.5q-169 0 -299.5 -133t-130.5 -337q0 -205 130.5 -337.5t299.5 -132.5q168 0 299.5 132.5t131.5 337.5z
M1142 1732q-21 -83 -71.5 -146.5t-132.5 -63.5q-46 0 -108 26t-102 26q-41 0 -63.5 -10.5t-34.5 -41.5h-88q20 106 71 158t135 52q38 0 101 -28t103 -28q42 0 65 15t37 41h88zM801 1870q0 -49 -35.5 -84.5t-84.5 -35.5t-84.5 35.5t-35.5 84.5t35.5 84.5t84.5 35.5
t84.5 -35.5t35.5 -84.5zM1134 1870q0 -49 -35.5 -84.5t-84.5 -35.5q-50 0 -85 35.5t-35 84.5t35 84.5t85 35.5q49 0 84.5 -35.5t35.5 -84.5z" />
    <glyph glyph-name="uni1E4F" unicode="&#x1e4f;" horiz-adv-x="1194" 
d="M816 500q0 112 -68 181.5t-149 69.5t-149 -69.5t-68 -181.5q0 -114 68 -183t149 -69t149 69t68 183zM61 500q0 204 153 359t385 155t385 -155t153 -359q0 -205 -153 -360t-385 -155t-385 155t-153 360zM929 1490q-23 -111 -79 -185.5t-145 -74.5q-51 0 -119.5 34.5
t-111.5 34.5q-45 0 -70 -24t-38 -65h-97q22 141 78.5 200.5t148.5 59.5q41 0 110.5 -37.5t113.5 -37.5q46 0 71 30t41 65h97zM369 1530q-49 0 -84.5 35.5t-35.5 84.5t35.5 84.5t84.5 35.5t84.5 -35.5t35.5 -84.5t-35.5 -84.5t-84.5 -35.5zM702 1530q-50 0 -85 35.5t-35 84.5
t35 84.5t85 35.5q49 0 84.5 -35.5t35.5 -84.5t-35.5 -84.5t-84.5 -35.5z" />
    <glyph glyph-name="uni1E50" unicode="&#x1e50;" horiz-adv-x="1660" 
d="M841 -18q-330 0 -552.5 220t-222.5 515t222.5 515t552.5 220q331 0 553.5 -220t222.5 -515t-222.5 -515t-553.5 -220zM1272 717q0 203 -131.5 336.5t-299.5 133.5q-169 0 -299.5 -133t-130.5 -337q0 -205 130.5 -337.5t299.5 -132.5q168 0 299.5 132.5t131.5 337.5z
M1142 1682v-160h-600v160h600zM542 1991h245l184 -248h-144z" />
    <glyph glyph-name="uni1E51" unicode="&#x1e51;" horiz-adv-x="1194" 
d="M816 500q0 112 -68 181.5t-149 69.5t-149 -69.5t-68 -181.5q0 -114 68 -183t149 -69t149 69t68 183zM61 500q0 204 153 359t385 155t385 -155t153 -359q0 -205 -153 -360t-385 -155t-385 155t-153 360zM299 1271v160h600v-160h-600zM202 1933h305l290 -342h-204z" />
    <glyph glyph-name="uni1E52" unicode="&#x1e52;" horiz-adv-x="1660" 
d="M841 -18q-330 0 -552.5 220t-222.5 515t222.5 515t552.5 220q331 0 553.5 -220t222.5 -515t-222.5 -515t-553.5 -220zM1272 717q0 203 -131.5 336.5t-299.5 133.5q-169 0 -299.5 -133t-130.5 -337q0 -205 130.5 -337.5t299.5 -132.5q168 0 299.5 132.5t131.5 337.5z
M1142 1682v-160h-600v160h600zM857 1743h-144l184 248h245z" />
    <glyph glyph-name="uni1E53" unicode="&#x1e53;" horiz-adv-x="1194" 
d="M816 500q0 112 -68 181.5t-149 69.5t-149 -69.5t-68 -181.5q0 -114 68 -183t149 -69t149 69t68 183zM61 500q0 204 153 359t385 155t385 -155t153 -359q0 -205 -153 -360t-385 -155t-385 155t-153 360zM299 1271v160h600v-160h-600zM607 1591h-204l290 342h305z" />
    <glyph glyph-name="uni1E54" unicode="&#x1e54;" horiz-adv-x="1220" 
d="M476 0h-359v935q0 204 157.5 360t395.5 156t395.5 -156t157.5 -360q0 -205 -157.5 -360t-419.5 -155v291q95 0 156.5 60.5t61.5 163.5q0 102 -56.5 163t-137.5 61q-101 0 -147.5 -71t-46.5 -210v-878zM696 1646h-204l290 342h305z" />
    <glyph glyph-name="uni1E55" unicode="&#x1e55;" horiz-adv-x="1231" 
d="M642 1016q232 0 385 -156t153 -361q0 -203 -153 -363.5t-335 -160.5q-107 0 -211 43v296q86 -76 181 -76q71 0 134 74.5t63 186.5q0 114 -58 184t-159 70t-159 -70t-58 -234h-1v-853h-320v903q0 205 153 361t385 156zM668 1178h-204l290 342h305z" />
    <glyph glyph-name="uni1E56" unicode="&#x1e56;" horiz-adv-x="1220" 
d="M476 0h-359v935q0 204 157.5 360t395.5 156t395.5 -156t157.5 -360q0 -205 -157.5 -360t-419.5 -155v291q95 0 156.5 60.5t61.5 163.5q0 102 -56.5 163t-137.5 61q-101 0 -147.5 -71t-46.5 -210v-878zM670 1698q-49 0 -84.5 35.5t-35.5 84.5t35.5 84.5t84.5 35.5
t84.5 -35.5t35.5 -84.5t-35.5 -84.5t-84.5 -35.5z" />
    <glyph glyph-name="uni1E57" unicode="&#x1e57;" horiz-adv-x="1231" 
d="M642 1016q232 0 385 -156t153 -361q0 -203 -153 -363.5t-335 -160.5q-107 0 -211 43v296q86 -76 181 -76q71 0 134 74.5t63 186.5q0 114 -58 184t-159 70t-159 -70t-58 -234h-1v-853h-320v903q0 205 153 361t385 156zM642 1230q-49 0 -84.5 35.5t-35.5 84.5t35.5 84.5
t84.5 35.5t84.5 -35.5t35.5 -84.5t-35.5 -84.5t-84.5 -35.5z" />
    <glyph glyph-name="uni1E58" unicode="&#x1e58;" horiz-adv-x="1255" 
d="M476 0h-359v932q0 204 157.5 360t395.5 156q216 0 347 -113t131 -295q-1 -181 -112 -268q170 -86 170 -328v-444h-359l1 387q-4 114 -46 166t-110 52h-129v282q135 0 180 42t45 112q0 58 -27.5 86.5t-100.5 28.5q-61 0 -122.5 -61t-61.5 -220v-875zM662 1698
q-49 0 -84.5 35.5t-35.5 84.5t35.5 84.5t84.5 35.5t84.5 -35.5t35.5 -84.5t-35.5 -84.5t-84.5 -35.5z" />
    <glyph glyph-name="uni1E59" unicode="&#x1e59;" horiz-adv-x="780" 
d="M704 1014h81v-220h-121q-103 0 -164 -96.5t-61 -222.5v-475h-320v966h320v-72q136 120 265 120zM454 1230q-49 0 -84.5 35.5t-35.5 84.5t35.5 84.5t84.5 35.5t84.5 -35.5t35.5 -84.5t-35.5 -84.5t-84.5 -35.5z" />
    <glyph glyph-name="uni1E5A" unicode="&#x1e5a;" horiz-adv-x="1255" 
d="M476 0h-359v932q0 204 157.5 360t395.5 156q216 0 347 -113t131 -295q-1 -181 -112 -268q170 -86 170 -328v-444h-359l1 387q-4 114 -46 166t-110 52h-129v282q135 0 180 42t45 112q0 58 -27.5 86.5t-100.5 28.5q-61 0 -122.5 -61t-61.5 -220v-875zM662 -391
q-49 0 -84.5 35.5t-35.5 84.5t35.5 84.5t84.5 35.5t84.5 -35.5t35.5 -84.5t-35.5 -84.5t-84.5 -35.5z" />
    <glyph glyph-name="uni1E5B" unicode="&#x1e5b;" horiz-adv-x="780" 
d="M704 1014h81v-220h-121q-103 0 -164 -96.5t-61 -222.5v-475h-320v966h320v-72q136 120 265 120zM452 -391q-49 0 -84.5 35.5t-35.5 84.5t35.5 84.5t84.5 35.5t84.5 -35.5t35.5 -84.5t-35.5 -84.5t-84.5 -35.5z" />
    <glyph glyph-name="uni1E5C" unicode="&#x1e5c;" horiz-adv-x="1255" 
d="M476 0h-359v932q0 204 157.5 360t395.5 156q216 0 347 -113t131 -295q-1 -181 -112 -268q170 -86 170 -328v-444h-359l1 387q-4 114 -46 166t-110 52h-129v282q135 0 180 42t45 112q0 58 -27.5 86.5t-100.5 28.5q-61 0 -122.5 -61t-61.5 -220v-875zM362 1739v160h600
v-160h-600zM662 -391q-49 0 -84.5 35.5t-35.5 84.5t35.5 84.5t84.5 35.5t84.5 -35.5t35.5 -84.5t-35.5 -84.5t-84.5 -35.5z" />
    <glyph glyph-name="uni1E5D" unicode="&#x1e5d;" horiz-adv-x="780" 
d="M704 1014h81v-220h-121q-103 0 -164 -96.5t-61 -222.5v-475h-320v966h320v-72q136 120 265 120zM154 1271v160h600v-160h-600zM452 -391q-49 0 -84.5 35.5t-35.5 84.5t35.5 84.5t84.5 35.5t84.5 -35.5t35.5 -84.5t-35.5 -84.5t-84.5 -35.5z" />
    <glyph glyph-name="uni1E5E" unicode="&#x1e5e;" horiz-adv-x="1255" 
d="M476 0h-359v932q0 204 157.5 360t395.5 156q216 0 347 -113t131 -295q-1 -181 -112 -268q170 -86 170 -328v-444h-359l1 387q-4 114 -46 166t-110 52h-129v282q135 0 180 42t45 112q0 58 -27.5 86.5t-100.5 28.5q-61 0 -122.5 -61t-61.5 -220v-875zM362 -339v160h600
v-160h-600z" />
    <glyph glyph-name="uni1E5F" unicode="&#x1e5f;" horiz-adv-x="780" 
d="M704 1014h81v-220h-121q-103 0 -164 -96.5t-61 -222.5v-475h-320v966h320v-72q136 120 265 120zM152 -339v160h600v-160h-600z" />
    <glyph glyph-name="uni1E60" unicode="&#x1e60;" horiz-adv-x="1190" 
d="M501 1434h557v-281h-557q-62 0 -62 -83q0 -88 124 -153l320 -164q236 -124 236 -359q0 -166 -129 -280t-346 -114h-572v282h575q59 0 86 23.5t27 88.5q0 102 -121 159l-322 164q-237 122 -237 353q0 150 114.5 257t306.5 107zM596 1698q-49 0 -84.5 35.5t-35.5 84.5
t35.5 84.5t84.5 35.5t84.5 -35.5t35.5 -84.5t-35.5 -84.5t-84.5 -35.5z" />
    </font>
</defs>
</svg>
